<svg id="Layer_1" data-name="Layer 1" xmlns="http://www.w3.org/2000/svg" viewBox="0 0 149.34 149.34">
  <title>hololense</title>
  <path id="bg-svg" d="M74.67,0A74.67,74.67,0,0,0,0,74.67H0a75.75,75.75,0,0,0,9.38,36.26C22,133.23,47.3,149.67,74.67,149.34c37-.41,74.67-31.4,74.67-74.67A74.67,74.67,0,0,0,74.67,0Z" transform="translate(0 0)" style="fill: #f6f6f6"/>
  <g>
    <path id="icon-svg" d="M16,72.91v9.84c0,1.39,0,2.78,0,4.17a4.33,4.33,0,0,0,2.43,3.42c3.12,1.93,7.06,2.63,10.62,3.21a.75.75,0,1,0,.4-1.45h0c-2.9-1-8.49-3-8.38-6.93.06-2.26,2.24-3.82,4-4.83a37.62,37.62,0,0,1,10-3.57,107.38,107.38,0,0,1,14-2.28,175.14,175.14,0,0,1,17.74-.86.76.76,0,0,0,.75-.75,50.32,50.32,0,0,1,3-16.71.75.75,0,0,0-.52-.92l-.2,0a199.64,199.64,0,0,0-32,4.65,79.05,79.05,0,0,0-11.27,3.51,28.38,28.38,0,0,0-7.43,4.11A7.38,7.38,0,0,0,16,72.87a.75.75,0,0,0,1.5,0c0-1.71,1.22-3.09,2.45-4.14a25.41,25.41,0,0,1,7-3.91c7.68-3.14,16-4.76,24.18-6,6.2-1,12.45-1.62,18.71-2.09l-.72-1a51.57,51.57,0,0,0-3.06,17.11l.75-.75c-11,0-22.25.69-32.94,3.37a33.82,33.82,0,0,0-10.42,4.07c-1.94,1.28-3.84,3.16-3.84,5.65,0,4.71,5.84,7,9.48,8.3l.4-1.45a33.22,33.22,0,0,1-9.34-2.55C19,89,17.63,88.2,17.57,86.79c-.15-3.39,0-6.81,0-10.2V72.91a.77.77,0,1,0-1.54,0Z" transform="translate(0 0)" style="fill: #231f20"/>
    <path id="icon-svg-2" d="M23.18,85.24c0,1.2,1.07,2.06,2,2.69a22.36,22.36,0,0,0,5.64,2.56c7.44,2.45,15.44,3.38,23.23,3.92a123.51,123.51,0,0,0,18.12-.47.76.76,0,0,0,.51-1.3c-2.42-2.71-3.46-5.83-4.1-9.36a.75.75,0,0,0-.72-.55,161.81,161.81,0,0,1-27.51-2.24q-1.78-.31-3.56-.66a13.24,13.24,0,0,0-3.24-.58,13.53,13.53,0,0,0-3,.93c-.9.31-1.79.65-2.66,1-1.61.7-4.56,1.94-4.68,4-.06,1,1.44,1,1.5,0,0-.65,1.1-1.24,1.56-1.53a21.57,21.57,0,0,1,4.3-2,17,17,0,0,1,3-.93,11.1,11.1,0,0,1,3.38.55q3.32.64,6.66,1.14a165.23,165.23,0,0,0,24.32,1.82l-.72-.55a19.32,19.32,0,0,0,4.48,10l.53-1.28c-2.46.19-4.93.33-7.4.44s-5.14.35-7.68.22c-4.54-.24-9.08-.64-13.57-1.31-5.45-.81-11.4-1.8-16.34-4.39a8.47,8.47,0,0,1-1.92-1.27,2.37,2.37,0,0,1-.44-.5,1,1,0,0,1-.14-.36A.75.75,0,0,0,23.18,85.24Z" transform="translate(0 0)" style="fill: #231f20"/>
    <path id="icon-svg-3" d="M93.25,58.76c-6.65,0-13.32,0-20,.39l.72,1c.43-1.32.54-2.74,1-4l-.72.55c5.81-.34,11.63-.24,17.45-.22a137.72,137.72,0,0,1,16.78.94,77.51,77.51,0,0,1,13.75,2.85c2.82.89,6,2,8.19,4,1.78,1.66,1.37,3.66,1.37,5.92l1.47-.2c-1.17-3.3-5.35-5-8.32-6.2a73.22,73.22,0,0,0-18.24-4.19,115.47,115.47,0,0,0-13.49-.79.75.75,0,1,0,0,1.5,99.14,99.14,0,0,1,26,3.17,39.65,39.65,0,0,1,8.53,3.24c1.5.82,3.46,2,4.07,3.66a.75.75,0,0,0,1.47-.2c0-2,.37-4.24-.91-6-1.63-2.22-4.47-3.48-7-4.46a63.26,63.26,0,0,0-13.29-3.37A121.07,121.07,0,0,0,95.3,54.89c-7-.12-14-.21-21,.2a.78.78,0,0,0-.72.55c-.46,1.31-.57,2.73-1,4a.75.75,0,0,0,.52.92l.2,0c6.64-.39,13.31-.39,20-.39a.75.75,0,0,0-.05-1.49Z" transform="translate(0 0)" style="fill: #231f20"/>
    <path id="icon-svg-4" d="M73.43,74a44.2,44.2,0,0,1,1.25-10.13l-.72.55c13-.6,26.25-.76,39.11,1.63A48.41,48.41,0,0,1,126,69.92a12.2,12.2,0,0,1,3.44,2.36,3.22,3.22,0,0,1,.85,1.22,7.11,7.11,0,0,1-.32,2.25q-.22,1.23-.5,2.44a48.11,48.11,0,0,1-7,16,28.09,28.09,0,0,1-2.43,3.3c-.87,1-2,3-3.52,3-2.06,0-.77-3.39-1.89-4.52-1.55-1.55-4.66-.07-6,1.06a6.17,6.17,0,0,1-4.48,1.75,34.34,34.34,0,0,1-5.42-.42,62.54,62.54,0,0,1-9.55-2.72c-2.81-.94-5.7-1.75-8.45-2.83A9.46,9.46,0,0,1,75,85.88,52.46,52.46,0,0,1,73.47,74,.75.75,0,0,0,72,74,53.61,53.61,0,0,0,73.2,84.94c.6,2.8,1.47,5.34,3.69,7.28,2.38,2.11,5.79,2.85,8.79,3.85,2.66.89,5.3,1.83,8,2.65a36.06,36.06,0,0,0,10.71,1.59,7.18,7.18,0,0,0,3.95-1.07c1.44-.93,2.45-2.28,4.33-2.32,1.36,0,1.1,1.14,1.1,2.14a2.67,2.67,0,0,0,1,2.37c2.43,1.87,4.7-.82,6.12-2.53a49.35,49.35,0,0,0,8.84-16,41.27,41.27,0,0,0,1.95-9c.12-1.35-1.06-2.55-2-3.36-3-2.44-6.94-3.67-10.58-4.64C104.5,62,88.92,62.23,74,62.92a.77.77,0,0,0-.72.55A46,46,0,0,0,71.93,74a.75.75,0,0,0,1.5,0Z" transform="translate(0 0)" style="fill: #231f20"/>
  </g>
</svg>
