<svg xmlns="http://www.w3.org/2000/svg" xmlns:xlink="http://www.w3.org/1999/xlink"><symbol id="hololense" viewBox="0 0 149.4 149.4"><path d="M74.7 0A74.64 74.64 0 0 0 0 74.7 75.79 75.79 0 0 0 9.4 111c12.6 22.3 37.9 38.7 65.3 38.4 37-.4 74.7-31.4 74.7-74.7A74.77 74.77 0 0 0 74.7 0z" stroke="none" /><path d="M74.3 55.8s47.9-3.3 57.8 9.3c.8 1 .3 5 .3 5-6.9-7.6-18.4-9.2-28.9-10.1a196.65 196.65 0 0 0-30.7 0 43.54 43.54 0 0 1 1.5-4.2zM24.1 85.1c0-2 9.2-5.1 9.2-5.1s11.4 1.9 15.3 2.3c5.2.5 18.2 1 18 1a2 2 0 0 1 1.6 1.2c.4 1 .9 2.6 1.4 4 .9 2.3 2.9 4.5 2.3 4.7-8.6 2.9-47.9-1.4-47.8-8.1z" fill="none" stroke-miterlimit="10" stroke-width="1.5"/><path d="M69.6 56.3a53.3 53.3 0 0 0-2.7 15.6 1 1 0 0 1-.9.7 86.7 86.7 0 0 0-23.6 1.6c-4.8 1-22.1 4.6-22.4 10.5-.1 1.4 1.7 4.9 9.7 8.7C24 92 19.8 91.1 17 87.6c0-5.3-.6-10.6 0-15.9.3-2.3 2.4-3.7 3.4-4.3C37.6 57 69.6 56.3 69.6 56.3zM114.9 100.8a2.38 2.38 0 0 1-.3-1.2c-.1-.7.1-3.2-1.4-3.6a5 5 0 0 0-2.7.7 25.34 25.34 0 0 1-2.7 1.8 10 10 0 0 1-3.6 1.2c-3 .2-24.2-2.7-27.6-8.6-6.1-10.8-3.7-23.3-2.9-26.8a1.17 1.17 0 0 1 1.1-.9c4.5-.1 25-.3 32.1.7 6.8 1 21.8 3.3 23.9 9.3 3 8.4-9.4 27.1-14.1 28.1a3.76 3.76 0 0 1-1.8-.7z" fill="none" stroke-miterlimit="10" stroke-width="1.5"/></symbol><symbol id="mobile_native" viewBox="-24 166 150 150"><path style="stroke:none;" d="M51 166.327c-41.24 0-74.671 33.432-74.671 74.671 0 18.148 6.857 31.82 9.38 36.262C-1.618 299.564 23.627 315.972 51 315.67c37.049-.41 74.671-31.396 74.671-74.671 0-41.241-33.431-74.672-74.671-74.672z"/><g fill="none" clip-path="url(#b)"><path d="M18.935 201.426c4.155-4.446 6.964-10.619 6.195-16.776-5.984.214-13.237 3.513-17.532 7.959-3.851 3.936-7.221 10.228-6.321 16.262 6.677.453 13.499-3.004 17.658-7.445zM31.679 243.94c-.128-13.801 10.928-20.429 11.416-20.75-6.214-9.372-15.892-10.655-19.34-10.799-8.242-.865-16.069 4.992-20.253 4.992-4.167 0-10.614-4.877-17.449-4.748-8.987.148-17.266 5.382-21.882 13.675-9.334 16.683-2.392 41.398 6.704 54.929 4.448 6.626 9.741 14.056 16.695 13.788 6.711-.268 9.24-4.463 17.338-4.463 8.101 0 10.368 4.463 17.456 4.328 7.211-.133 11.773-6.752 16.183-13.398 5.101-7.682 7.204-15.121 7.325-15.496-.157-.091-14.045-5.554-14.193-22.058z"/></g><g fill="none" clip-path="url(#b)"><path d="M116.55 295.471c3.678 0 6.886-3.208 6.886-6.886v-16.081h4.598c2.759 0 4.598-1.839 4.598-4.598v-45.93h-55.13v45.931c0 2.759 1.839 4.598 4.598 4.598h4.598v16.081c0 3.678 3.207 6.886 6.886 6.886 3.678 0 6.885-3.208 6.885-6.886v-16.081h9.196v16.081c-.001 3.677 3.207 6.885 6.885 6.885zM144.115 267.906c3.678 0 6.885-3.207 6.885-6.886v-32.162c0-3.659-3.207-6.883-6.885-6.883-3.679 0-6.886 3.224-6.886 6.883v32.162c0 3.679 3.207 6.886 6.886 6.886zM66.018 267.906c3.679 0 6.886-3.207 6.886-6.886v-32.162c0-3.659-3.207-6.883-6.886-6.883-3.678 0-6.885 3.224-6.885 6.883v32.162c0 3.679 3.207 6.886 6.885 6.886zM127.113 186.157c-.919-.925-2.288-.925-3.207 0l-6.167 6.146-.284.284c-3.657-1.831-7.756-2.745-12.322-2.754l-.067-.001h-.001l-.068.001c-4.565.009-8.665.923-12.321 2.754l-.285-.284-6.166-6.146c-.92-.925-2.288-.925-3.207 0-.92.92-.92 2.285 0 3.204l5.965 5.966a24.863 24.863 0 0 0-5.181 4.65c-3.629 4.301-5.943 9.899-6.261 15.964l-.012.189c-.019.413-.029.828-.029 1.245h55.129c0-.417-.01-.832-.029-1.245-.003-.063-.009-.126-.013-.189-.318-6.065-2.633-11.663-6.261-15.963a24.838 24.838 0 0 0-5.181-4.65l5.966-5.966c.922-.92.922-2.285.002-3.205zm-33.538 23.19a3.444 3.444 0 1 1 0-6.888 3.444 3.444 0 0 1 0 6.888zm22.983 0a3.444 3.444 0 1 1 0-6.888 3.444 3.444 0 0 1 0 6.888z"/></g></symbol><symbol id="sql" viewBox="0 0 150 150"><path style="stroke:none;" d="M75 .327C33.76.327.329 33.759.329 74.998c0 18.148 6.857 31.82 9.38 36.262C22.382 133.564 47.627 149.972 75 149.67c37.049-.41 74.671-31.396 74.671-74.671C149.671 33.758 116.24.327 75 .327z"/><g fill="none"><path d="M75.854 79.978c-14.526 0-26.705-4.261-30.024-10.024-.592 1.021-.929 2.066-.929 3.164v9.415c0 7.27 13.868 13.184 30.953 13.184 17.111 0 30.98-5.914 30.98-13.184v-9.415c0-1.098-.347-2.142-.942-3.164-3.32 5.763-15.482 10.024-30.038 10.024z"/><path d="M75.854 99.437c-14.526 0-26.705-4.275-30.024-10.02-.592 1.008-.929 2.066-.929 3.151v9.428c0 7.283 13.868 13.171 30.953 13.171 17.111 0 30.98-5.888 30.98-13.171v-9.428c0-1.084-.347-2.142-.942-3.151-3.32 5.745-15.482 10.02-30.038 10.02zM105.984 51.127c-.608 5.323-13.832 9.594-30.13 9.594-16.282 0-29.505-4.271-30.113-9.594-.529.969-.84 1.977-.84 3.008v9.429c0 7.27 13.868 13.171 30.953 13.171 17.111 0 30.98-5.888 30.98-13.171v-9.429c-.001-1.031-.321-2.039-.85-3.008z"/><path d="M75.854 57.726c16.672 0 30.18-4.453 30.18-9.967 0-5.501-13.508-9.971-30.18-9.971-16.658 0-30.166 4.47-30.166 9.971-.001 5.514 13.507 9.967 30.166 9.967z"/></g></symbol><symbol id="web_app" viewBox="0 0 150 150"><path style="stroke:none;" d="M75 .327C33.76.327.329 33.759.329 74.998c0 18.148 6.857 31.82 9.38 36.262C22.382 133.564 47.627 149.972 75 149.67c37.049-.41 74.671-31.396 74.671-74.671C149.671 33.758 116.24.327 75 .327z"/><path d="M49.849 44.612a2.083 2.083 0 0 1-2.076 2.076 2.085 2.085 0 0 1-2.083-2.076c0-1.148.935-2.083 2.083-2.083 1.141 0 2.076.935 2.076 2.083zM55.049 44.612c0-1.148.935-2.083 2.083-2.083a2.08 2.08 0 0 1 0 4.159 2.083 2.083 0 0 1-2.083-2.076zM64.408 44.612c0-1.148.935-2.083 2.083-2.083s2.083.935 2.083 2.083a2.083 2.083 0 1 1-4.166 0zM65.367 61.839h9.895a3.251 3.251 0 0 1 3.251 3.251v9.895a3.251 3.251 0 0 1-3.251 3.251h-9.895a3.251 3.251 0 0 1-3.251-3.251V65.09a3.25 3.25 0 0 1 3.251-3.251zM92.689 89.161h9.895a3.251 3.251 0 0 1 3.251 3.251v9.895a3.251 3.251 0 0 1-3.251 3.251h-9.895a3.251 3.251 0 0 1-3.251-3.251v-9.895a3.251 3.251 0 0 1 3.251-3.251zM65.367 89.161h9.895a3.251 3.251 0 0 1 3.251 3.251v9.895a3.251 3.251 0 0 1-3.251 3.251h-9.895a3.251 3.251 0 0 1-3.251-3.251v-9.895a3.251 3.251 0 0 1 3.251-3.251zM92.689 61.839h9.895a3.251 3.251 0 0 1 3.251 3.251v9.895a3.251 3.251 0 0 1-3.251 3.251h-9.895a3.251 3.251 0 0 1-3.251-3.251V65.09a3.25 3.25 0 0 1 3.251-3.251z" fill="none"/><path d="M34.794 34.517v79.415a2.552 2.552 0 0 0 2.552 2.552h11.293a2.552 2.552 0 0 0 2.552-2.552V53.465a2.552 2.552 0 0 0-2.552-2.552l-6.898-.153a2.552 2.552 0 0 1-2.552-2.552V39.65c0-1.409 1.142-1.179 2.552-1.179l67.634.153c1.409 0 2.552-.23 2.552 1.179v8.558a2.552 2.552 0 0 1-2.552 2.552H58.403a2.552 2.552 0 0 0-2.552 2.552v60.466a2.552 2.552 0 0 0 2.552 2.552h55.805a2.552 2.552 0 0 0 2.552-2.552V34.517a2.552 2.552 0 0 0-2.552-2.552H37.346a2.551 2.551 0 0 0-2.552 2.552z" fill="none"/><path d="M40.507 59.103h5.263c.727 0 1.318.642 1.318 1.428 0 .788-.591 1.428-1.318 1.428h-5.263c-.725 0-1.318-.64-1.318-1.428 0-.786.593-1.428 1.318-1.428zM40.507 71.686h5.263c.727 0 1.318.642 1.318 1.428 0 .788-.591 1.428-1.318 1.428h-5.263c-.725 0-1.318-.64-1.318-1.428 0-.786.593-1.428 1.318-1.428zM40.507 84.269h5.263c.727 0 1.318.642 1.318 1.428 0 .788-.591 1.428-1.318 1.428h-5.263c-.725 0-1.318-.64-1.318-1.428 0-.786.593-1.428 1.318-1.428z" fill="none"/></symbol><symbol id="windows" viewBox="0 0 150 150"><path style="stroke:none;" d="M75 .327C33.76.327.329 33.759.329 74.998c0 18.148 6.857 31.82 9.38 36.262C22.382 133.564 47.627 149.972 75 149.67c37.049-.41 74.671-31.396 74.671-74.671C149.671 33.758 116.24.327 75 .327z"/><g fill="none"><path d="M64.241 41.319c0-2.212-2.169-3.759-4.354-3.437l-27.665 3.984c-2.18.322-4.27 2.393-4.27 4.6v21.548c0 2.21 2.032 4.115 4.241 4.115h27.269c2.209 0 4.779-1.905 4.779-4.115V41.319zM32.192 77.754c-2.209 0-4.241 2.111-4.241 4.323v21.916c0 2.21 1.902 4.283 4.082 4.605l27.795 4.044c2.186.318 4.413-1.226 4.413-3.438V82.077c0-2.212-2.57-4.323-4.779-4.323h-27.27zM69.864 109.712c0 2.205 1.607 4.276 3.792 4.598l40.648 6c2.18.322 3.946-1.223 3.946-3.426V82.077c0-2.212-1.937-4.323-4.147-4.323H73.515c-2.203 0-3.651 2.111-3.651 4.323v27.635zM69.864 67.923c0 2.212 1.448 4.323 3.651 4.323h40.589c2.209 0 4.147-2.111 4.147-4.323V33.117c0-2.203-1.766-3.748-3.946-3.426l-40.648 6c-2.185.322-3.792 2.393-3.792 4.598v27.634z"/></g></symbol></svg>