<?xml version="1.0" encoding="iso-8859-1"?>
<!-- Generator: Adobe Illustrator 21.1.0, SVG Export Plug-In . SVG Version: 6.00 Build 0)  -->
<svg version="1.1" id="Layer_1" xmlns="http://www.w3.org/2000/svg" xmlns:xlink="http://www.w3.org/1999/xlink" x="0px" y="0px"
	 viewBox="-24 166 150 150" style="enable-background:new -24 166 150 150;" xml:space="preserve">
<path id="bg-svg"  fill="#F6F6F6" stroke="none" d="M51,166.327c-41.24,0-74.671,33.432-74.671,74.671c0,18.148,6.857,31.82,9.38,36.262
	c12.673,22.304,37.918,38.712,65.291,38.41c37.049-0.41,74.671-31.396,74.671-74.671C125.671,199.758,92.24,166.327,51,166.327z"/>
<g>
	<defs>
		<path id="SVGID_1_" d="M51,166.326c-41.24,0-74.671,33.432-74.671,74.671c0,18.148,6.857,31.82,9.38,36.262
			c12.673,22.304,37.918,38.712,65.291,38.41c37.049-0.41,74.671-31.396,74.671-74.671C125.671,199.757,92.24,166.326,51,166.326z"
			/>
	</defs>
	<clipPath id="SVGID_2_">
		<use xlink:href="#SVGID_1_"  style="overflow:visible;"/>
	</clipPath>
	<path id="icon-svg" style="clip-path:url(#SVGID_2_);" d="M74.449,242.953"/>
	<g id="icon-svg" style="clip-path:url(#SVGID_2_);">
		<g>
			<path id="icon-svg" style="fill:none;stroke-width:2;stroke-miterlimit:10;" d="M18.935,201.426
				c4.155-4.446,6.964-10.619,6.195-16.776c-5.984,0.214-13.237,3.513-17.532,7.959c-3.851,3.936-7.221,10.228-6.321,16.262
				C7.954,209.324,14.776,205.867,18.935,201.426L18.935,201.426z"/>
			<path id="icon-svg" style="fill:none;stroke-width:2;stroke-miterlimit:10;" d="M31.679,243.94
				c-0.128-13.801,10.928-20.429,11.416-20.75c-6.214-9.372-15.892-10.655-19.34-10.799c-8.242-0.865-16.069,4.992-20.253,4.992
				c-4.167,0-10.614-4.877-17.449-4.748c-8.987,0.148-17.266,5.382-21.882,13.675c-9.334,16.683-2.392,41.398,6.704,54.929
				c4.448,6.626,9.741,14.056,16.695,13.788c6.711-0.268,9.24-4.463,17.338-4.463c8.101,0,10.368,4.463,17.456,4.328
				c7.211-0.133,11.773-6.752,16.183-13.398c5.101-7.682,7.204-15.121,7.325-15.496C45.715,265.907,31.827,260.444,31.679,243.94
				L31.679,243.94z"/>
		</g>
	</g>
	<g id="icon-svg" style="clip-path:url(#SVGID_2_);">
		<g>
			<path id="icon-svg" style="fill:none;stroke-width:2;stroke-miterlimit:10;" d="M116.55,295.471
				c3.678,0,6.886-3.208,6.886-6.886v-16.081h4.598c2.759,0,4.598-1.839,4.598-4.598v-45.93H77.502v45.931
				c0,2.759,1.839,4.598,4.598,4.598h4.598v16.081c0,3.678,3.207,6.886,6.886,6.886c3.678,0,6.885-3.208,6.885-6.886v-16.081h9.196
				v16.081C109.664,292.263,112.872,295.471,116.55,295.471z"/>
			<path id="icon-svg" style="fill:none;stroke-width:2;stroke-miterlimit:10;" d="M144.115,267.906
				c3.678,0,6.885-3.207,6.885-6.886v-32.162c0-3.659-3.207-6.883-6.885-6.883c-3.679,0-6.886,3.224-6.886,6.883v32.162
				C137.229,264.699,140.436,267.906,144.115,267.906z"/>
			<path id="icon-svg" style="fill:none;stroke-width:2;stroke-miterlimit:10;" d="M66.018,267.906
				c3.679,0,6.886-3.207,6.886-6.886v-32.162c0-3.659-3.207-6.883-6.886-6.883c-3.678,0-6.885,3.224-6.885,6.883v32.162
				C59.133,264.699,62.34,267.906,66.018,267.906z"/>
			<path id="icon-svg" style="fill:none;stroke-width:2;stroke-miterlimit:10;" d="M127.113,186.157
				c-0.919-0.925-2.288-0.925-3.207,0l-6.167,6.146l-0.284,0.284c-3.657-1.831-7.756-2.745-12.322-2.754
				c-0.022,0-0.044-0.001-0.067-0.001h-0.001c-0.023,0-0.044,0.001-0.068,0.001c-4.565,0.009-8.665,0.923-12.321,2.754l-0.285-0.284
				l-6.166-6.146c-0.92-0.925-2.288-0.925-3.207,0c-0.92,0.92-0.92,2.285,0,3.204l5.965,5.966c-1.922,1.283-3.665,2.854-5.181,4.65
				c-3.629,4.301-5.943,9.899-6.261,15.964c-0.003,0.063-0.009,0.126-0.012,0.189c-0.019,0.413-0.029,0.828-0.029,1.245h55.129
				c0-0.417-0.01-0.832-0.029-1.245c-0.003-0.063-0.009-0.126-0.013-0.189c-0.318-6.065-2.633-11.663-6.261-15.963
				c-1.515-1.796-3.259-3.367-5.181-4.65l5.966-5.966C128.033,188.442,128.033,187.077,127.113,186.157z M93.575,209.347
				c-1.902,0-3.444-1.542-3.444-3.444s1.542-3.444,3.444-3.444c1.902,0,3.444,1.542,3.444,3.444S95.477,209.347,93.575,209.347z
				 M116.558,209.347c-1.902,0-3.444-1.542-3.444-3.444s1.542-3.444,3.444-3.444s3.444,1.542,3.444,3.444
				S118.46,209.347,116.558,209.347z"/>
		</g>
	</g>
</g>
</svg>
