<svg xmlns="http://www.w3.org/2000/svg"><symbol id="designer" viewBox="0 0 405.4 259.9"><title>designer</title><circle cx="317.4" cy="88" r="88" style="isolation:isolate" fill="#d36c20" opacity=".8"/><circle cx="317.3" cy="44.6" r="5.4" fill="#fff"/><circle cx="317.3" cy="130.8" r="6.1" fill="#fff"/><circle cx="317.3" cy="87.7" r="6.1" fill="#fff"/><circle cx="280.9" cy="66.1" r="6.1" fill="#fff"/><circle cx="280.9" cy="109.2" r="5.4" fill="#fff"/><circle cx="354" cy="66.1" r="6.1" fill="#fff"/><circle cx="354" cy="109.2" r="5.4" fill="#fff"/><path style="isolation:isolate" fill="none" stroke="#fff" stroke-linecap="round" stroke-linejoin="round" stroke-dasharray="2" opacity=".7" d="M317.2 130.8l36.2-21.6M354 66.1l-36.8-21.5M280.9 66.1v43.1"/><path style="isolation:isolate" fill="none" stroke="#fff" stroke-linecap="round" stroke-linejoin="round" stroke-width=".75" stroke-dasharray="1.5" opacity=".4" d="M280.9 109.2l36.3-21.5"/><path style="isolation:isolate" fill="none" stroke="#fff" stroke-linecap="round" stroke-linejoin="round" stroke-dasharray="2" opacity=".7" d="M354 66.1v43.1M280.9 66.7l36.3-21.6M317.7 131.3l-36.8-21.6"/><path fill="none" stroke="#fff" stroke-linecap="round" stroke-linejoin="round" stroke-dasharray="2" d="M317.2 87.7l36.2-21.6M317.2 87.7l-36.3-21.6"/><path style="isolation:isolate" fill="none" stroke="#fff" stroke-linecap="round" stroke-linejoin="round" stroke-width=".75" stroke-dasharray="1.5" opacity=".4" d="M354 109.2l-36.8-21.5"/><path style="isolation:isolate" fill="none" stroke="#fff" stroke-linecap="round" stroke-miterlimit="10" stroke-width=".75" stroke-dasharray="1.5" opacity=".4" d="M317.3 44.6v43.1"/><g fill="none" stroke="#fff" stroke-linecap="round" stroke-linejoin="round"><path d="M317.3 87.7v1"/><path stroke-dasharray="1.955899953842163,1.955899953842163" d="M317.3 90.6v38.2"/><path d="M317.3 129.8v1"/></g><g><circle cx="5" cy="254.9" r="5" style="isolation:isolate" fill="#3d3d3d" opacity=".4"/><path style="isolation:isolate" fill="none" stroke="#3d3d3d" stroke-miterlimit="10" opacity=".4" d="M11.5 254.9H163M163 254.9l92.5-90.5"/></g><g fill="#3d3d3d"><path d="M34.45 222.25l-4.09-14.4h-.12q.29 3.68.29 5.71v8.68h-4.79v-20h7.19l4.17 14.19h.11l4.09-14.19h7.21v20h-5v-8.76-1.52q0-.84.18-4.09h-.12l-4 14.37zM69.78 211.83q0 5-2.75 7.71t-7.75 2.71h-6.47v-20h6.92q4.81 0 7.43 2.46t2.62 7.12zm-5.61.19a6.35 6.35 0 0 0-1.09-4.07 4 4 0 0 0-3.3-1.33h-1.57v11.2h1.2a4.36 4.36 0 0 0 3.59-1.43 6.9 6.9 0 0 0 1.18-4.39zM82.4 206.49a7.8 7.8 0 0 1 1.33.11l.3.05-.48 5a7.87 7.87 0 0 0-1.82-.16 3.46 3.46 0 0 0-2.54.8 3.13 3.13 0 0 0-.79 2.3v7.62H73v-15.45h4l.83 2.47h.26a5.35 5.35 0 0 1 1.87-2 4.47 4.47 0 0 1 2.44-.74zM86.08 202.9a2.26 2.26 0 0 1 .67-1.79 4.25 4.25 0 0 1 4.33 0 2.24 2.24 0 0 1 .68 1.78q0 2.35-2.86 2.35t-2.82-2.34zm5.48 19.35h-5.35v-15.49h5.35zM99.35 222.25l-5.91-15.49H99l2.62 9.16.05.23q0 .16.08.39c0 .15.05.31.08.48a3.6 3.6 0 0 1 0 .47h.1a5.49 5.49 0 0 1 .25-1.54l2.75-9.19h5.56l-5.91 15.49zM119.87 222.52a8.31 8.31 0 0 1-6-2.06 7.75 7.75 0 0 1-2.14-5.86 8.44 8.44 0 0 1 2-6 7.41 7.41 0 0 1 5.66-2.1 7.51 7.51 0 0 1 5.41 1.83 6.94 6.94 0 0 1 1.91 5.26v2.38h-9.56a2.65 2.65 0 0 0 1 2 3.72 3.72 0 0 0 2.44.74 11.79 11.79 0 0 0 2.59-.27 12.83 12.83 0 0 0 2.56-.91v3.84a9.43 9.43 0 0 1-2.6.89 18 18 0 0 1-3.27.26zm-.31-12.4a2.22 2.22 0 0 0-1.58.59 2.79 2.79 0 0 0-.75 1.87h4.59a2.67 2.67 0 0 0-.64-1.79 2.1 2.1 0 0 0-1.62-.67zM139.48 222.25v-8.45a4.85 4.85 0 0 0-.44-2.33 1.52 1.52 0 0 0-1.43-.79 2.07 2.07 0 0 0-2 1.08 8.18 8.18 0 0 0-.6 3.71v6.78h-5.31v-15.49h4l.67 1.91h.31a4.24 4.24 0 0 1 1.89-1.64 6.7 6.7 0 0 1 2.78-.55 5.28 5.28 0 0 1 4 1.49 5.82 5.82 0 0 1 1.43 4.2v10.08zM40.19 234.83q0 5-2.75 7.71t-7.75 2.71h-6.46v-20h6.92q4.81 0 7.43 2.46t2.61 7.12zm-5.61.19a6.35 6.35 0 0 0-1.09-4.07 4 4 0 0 0-3.3-1.33h-1.56v11.2h1.2a4.36 4.36 0 0 0 3.61-1.43 6.9 6.9 0 0 0 1.15-4.39zM50.94 245.52a8.31 8.31 0 0 1-6-2.06 7.75 7.75 0 0 1-2.14-5.86 8.44 8.44 0 0 1 2-6 7.41 7.41 0 0 1 5.66-2.1 7.51 7.51 0 0 1 5.41 1.83 6.94 6.94 0 0 1 1.91 5.26v2.38h-9.59a2.65 2.65 0 0 0 1 2 3.72 3.72 0 0 0 2.44.74 11.79 11.79 0 0 0 2.59-.27 12.83 12.83 0 0 0 2.56-.91v3.84a9.43 9.43 0 0 1-2.6.89 18 18 0 0 1-3.24.26zm-.31-12.4a2.22 2.22 0 0 0-1.58.59 2.79 2.79 0 0 0-.75 1.87h4.6a2.67 2.67 0 0 0-.64-1.79 2.1 2.1 0 0 0-1.63-.67zM72.73 240.49a4.4 4.4 0 0 1-1.7 3.76 8 8 0 0 1-4.87 1.27 21.14 21.14 0 0 1-3-.18 12.71 12.71 0 0 1-2.6-.68v-4.28a16 16 0 0 0 2.73.9 11.47 11.47 0 0 0 2.65.36q1.74 0 1.74-.79a.9.9 0 0 0-.49-.73 22.27 22.27 0 0 0-2.82-1.25 7 7 0 0 1-3-2 4.53 4.53 0 0 1-.85-2.82 3.91 3.91 0 0 1 1.67-3.36 8 8 0 0 1 4.72-1.2 11.88 11.88 0 0 1 2.88.33 17.22 17.22 0 0 1 2.8 1l-1.45 3.45a16.41 16.41 0 0 0-2.26-.81 7.49 7.49 0 0 0-1.88-.36q-1.31 0-1.31.64a.8.8 0 0 0 .46.68 24.7 24.7 0 0 0 2.65 1.14 10.21 10.21 0 0 1 2.43 1.31 3.93 3.93 0 0 1 1.18 1.51 5.31 5.31 0 0 1 .32 2.11zM75.59 225.9a2.26 2.26 0 0 1 .67-1.79 4.25 4.25 0 0 1 4.33 0 2.24 2.24 0 0 1 .68 1.78q0 2.35-2.86 2.35t-2.82-2.34zm5.48 19.35h-5.34v-15.49h5.35zM99.42 229.76v2.58l-2.12.78a3.76 3.76 0 0 1 .44 1.85 4.66 4.66 0 0 1-1.74 3.88 8.38 8.38 0 0 1-5.24 1.38 6.73 6.73 0 0 1-1.37-.11 1.42 1.42 0 0 0-.19.67q0 .4.64.61a5.49 5.49 0 0 0 1.68.21h2.57q5.21 0 5.21 4.39a5 5 0 0 1-2.41 4.4 12.37 12.37 0 0 1-6.79 1.6 9.72 9.72 0 0 1-5.08-1.1 3.51 3.51 0 0 1-1.78-3.17q0-2.78 3.45-3.58a3.09 3.09 0 0 1-1.24-1 2.08 2.08 0 0 1-.13-2.6 5.86 5.86 0 0 1 1.68-1.32 4.12 4.12 0 0 1-1.89-1.67 5.21 5.21 0 0 1-.69-2.76 4.76 4.76 0 0 1 1.72-3.92 7.65 7.65 0 0 1 4.86-1.39q.42 0 1.46.1t1.53.18zm-11.67 17.42a1.2 1.2 0 0 0 .71 1.06 3.85 3.85 0 0 0 1.9.4 8.26 8.26 0 0 0 3.11-.49q1.17-.48 1.17-1.25a.9.9 0 0 0-.71-.87 6.35 6.35 0 0 0-2-.25H89.8a2.54 2.54 0 0 0-1.46.4 1.17 1.17 0 0 0-.59 1zm1.68-12.35q0 2.38 1.65 2.38a1.36 1.36 0 0 0 1.18-.59 3.05 3.05 0 0 0 .42-1.76q0-2.41-1.6-2.41t-1.65 2.38zM111.55 245.25v-8.45a4.85 4.85 0 0 0-.44-2.33 1.52 1.52 0 0 0-1.43-.79 2.07 2.07 0 0 0-2 1.08 8.18 8.18 0 0 0-.6 3.71v6.78h-5.35v-15.49h4l.67 1.91h.31a4.24 4.24 0 0 1 1.89-1.64 6.7 6.7 0 0 1 2.78-.55 5.28 5.28 0 0 1 4 1.49 5.82 5.82 0 0 1 1.43 4.2v10.08zM128 245.52a8.31 8.31 0 0 1-6-2.06 7.75 7.75 0 0 1-2.14-5.86 8.44 8.44 0 0 1 2-6 7.41 7.41 0 0 1 5.66-2.1 7.51 7.51 0 0 1 5.41 1.83 6.94 6.94 0 0 1 1.91 5.26v2.38h-9.56a2.65 2.65 0 0 0 1 2 3.72 3.72 0 0 0 2.44.74 11.79 11.79 0 0 0 2.59-.27 12.83 12.83 0 0 0 2.56-.91v3.84a9.43 9.43 0 0 1-2.6.89 18 18 0 0 1-3.27.26zm-.31-12.4a2.22 2.22 0 0 0-1.58.59 2.79 2.79 0 0 0-.75 1.87H130a2.67 2.67 0 0 0-.64-1.79 2.1 2.1 0 0 0-1.67-.67zM147.19 229.49a7.8 7.8 0 0 1 1.33.11l.3.05-.48 5a7.87 7.87 0 0 0-1.82-.16 3.46 3.46 0 0 0-2.54.8 3.13 3.13 0 0 0-.79 2.3v7.62h-5.35v-15.45h4l.83 2.47h.26a5.35 5.35 0 0 1 1.87-2 4.47 4.47 0 0 1 2.39-.74z"/></g></symbol><symbol id="server" viewBox="0 0 403.7 260.7"><title>server</title><circle cx="88" cy="88" r="88" style="isolation:isolate" fill="#e7832a" opacity=".7"/><circle cx="398.7" cy="255.7" r="5" style="isolation:isolate" fill="#3d3d3d" opacity=".4"/><path style="isolation:isolate" fill="none" stroke="#3d3d3d" stroke-miterlimit="10" opacity=".4" d="M392.7 255.7H241.2M241.2 255.7l-94-89.5"/><g fill="none" stroke="#fff" stroke-miterlimit="10"><path d="M72.5 117.8h-5.7a6.14 6.14 0 0 0-11.8 3.4 6.1 6.1 0 0 0 7.52 4.22h.08a6.31 6.31 0 0 0 4.2-4.2h5.7a6.79 6.79 0 0 0 6.9-6.6V104.4a1.7 1.7 0 0 0-3.4 0v10.2a3.42 3.42 0 0 1-3.5 3.2z" stroke-linecap="round" stroke-width=".75" stroke-dasharray="1.5"/><path d="M60.7 122.2a2.8 2.8 0 0 1-2.9-2.7v-.1a2.9 2.9 0 0 1 5.8-.1v.1a2.82 2.82 0 0 1-2.84 2.8z" stroke-linecap="round" stroke-width=".75" stroke-dasharray="1"/><path d="M98.3 102.6a1.69 1.69 0 0 0-1.7 1.68v10.2a6.72 6.72 0 0 0 6.84 6.6h5.76a6.14 6.14 0 1 0 4.2-7.6 6.31 6.31 0 0 0-4.2 4.2h-5.7a3.44 3.44 0 0 1-3.5-3.3V104.2a1.67 1.67 0 0 0-1.7-1.6z" stroke-linecap="round" stroke-width=".75" stroke-dasharray="1.5"/><path d="M115.3 116.6a2.8 2.8 0 0 1 2.9 2.7v.1a2.9 2.9 0 1 1-5.8.1v-.1a2.82 2.82 0 0 1 2.84-2.8z" stroke-linecap="round" stroke-width=".5" stroke-dasharray="1"/><path d="M90.2 38.4a22.35 22.35 0 0 0-19.4 11.3 10.55 10.55 0 0 0-2.5-.2 12.08 12.08 0 0 0-12.1 12.06 11.53 11.53 0 0 0 .3 2.6 16.65 16.65 0 0 0-7.1 13.7c0 9.1 7.3 17.2 16 17.7h43.3a19.42 19.42 0 0 0 17.8-19.5c0-8.9-6.1-16.9-14.4-19A22.14 22.14 0 0 0 90.2 38.4z" stroke-width="3.5"/><path d="M88 102.6a1.69 1.69 0 0 0-1.7 1.68v21.3a6 6 0 0 0-2.8 10.1 6.81 6.81 0 0 0 4.5 1.9h.2a6.36 6.36 0 0 0 6.4-5.9 6.2 6.2 0 0 0-1.8-4.4 6.57 6.57 0 0 0-2.9-1.7V104.3a1.86 1.86 0 0 0-1.9-1.7z" stroke-linecap="round" stroke-width=".75" stroke-dasharray="1.5"/><path d="M90.9 131.6a2.86 2.86 0 0 1-2.9 2.7h-.1a2.52 2.52 0 0 1-2-.9 2.72 2.72 0 0 1-.05-3.85l.05-.05a3.23 3.23 0 0 1 2.1-.8h.1a2.52 2.52 0 0 1 2 .9 3 3 0 0 1 .8 2z" stroke-linecap="round" stroke-width=".75" stroke-dasharray="1"/></g><g fill="#3d3d3d"><path d="M266.3 224.45l-4.09-14.4h-.12q.29 3.68.29 5.71v8.68h-4.79v-20h7.19l4.22 14.21h.11l4.09-14.19h7.21v20h-5v-8.76-1.52q0-.84.18-4.09h-.12l-4 14.37zM301.63 214q0 5-2.75 7.71t-7.75 2.71h-6.47v-20h6.92q4.81 0 7.43 2.46t2.62 7.12zm-5.61.19a6.35 6.35 0 0 0-1.09-4.07 4 4 0 0 0-3.3-1.33h-1.57V220h1.2a4.36 4.36 0 0 0 3.61-1.43 6.9 6.9 0 0 0 1.13-4.35zM314.25 208.69a7.71 7.71 0 0 1 1.33.11l.3.05-.48 5a7.87 7.87 0 0 0-1.82-.16 3.46 3.46 0 0 0-2.54.8 3.13 3.13 0 0 0-.79 2.3v7.62h-5.35V209h4l.83 2.47h.27a5.35 5.35 0 0 1 1.87-2 4.46 4.46 0 0 1 2.38-.78zM317.93 205.1a2.26 2.26 0 0 1 .67-1.79 4.25 4.25 0 0 1 4.33 0 2.24 2.24 0 0 1 .68 1.78q0 2.35-2.86 2.35t-2.82-2.34zm5.48 19.35h-5.35V209h5.35zM331.2 224.45L325.3 209h5.58l2.63 9.16.05.23q0 .16.08.39c0 .15.05.31.08.48a3.6 3.6 0 0 1 0 .47h.1a5.48 5.48 0 0 1 .25-1.54l2.75-9.19h5.56l-5.91 15.49zM351.72 224.72a8.31 8.31 0 0 1-6-2.06 7.75 7.75 0 0 1-2.14-5.86 8.44 8.44 0 0 1 2-6 7.41 7.41 0 0 1 5.66-2.1 7.51 7.51 0 0 1 5.41 1.83 6.94 6.94 0 0 1 1.91 5.26v2.38H349a2.65 2.65 0 0 0 1 2 3.72 3.72 0 0 0 2.44.74 11.79 11.79 0 0 0 2.59-.27 12.83 12.83 0 0 0 2.56-.91v3.84a9.43 9.43 0 0 1-2.6.89 18 18 0 0 1-3.27.26zm-.31-12.4a2.22 2.22 0 0 0-1.58.59 2.79 2.79 0 0 0-.75 1.87h4.59A2.67 2.67 0 0 0 353 213a2.1 2.1 0 0 0-1.59-.68zM371.33 224.45V216a4.85 4.85 0 0 0-.44-2.33 1.52 1.52 0 0 0-1.43-.79 2.07 2.07 0 0 0-2 1.08 8.18 8.18 0 0 0-.6 3.71v6.78h-5.35V209h4l.67 1.91h.31a4.23 4.23 0 0 1 1.89-1.64 6.69 6.69 0 0 1 2.78-.55 5.28 5.28 0 0 1 4 1.49 5.82 5.82 0 0 1 1.43 4.2v10.08zM285.1 241.38a5.9 5.9 0 0 1-.94 3.3 6.18 6.18 0 0 1-2.72 2.24 10.09 10.09 0 0 1-4.17.8 16.89 16.89 0 0 1-3.35-.28 12.41 12.41 0 0 1-2.82-1v-4.81a16.06 16.06 0 0 0 3.21 1.24 12 12 0 0 0 3.06.44 3 3 0 0 0 1.76-.42 1.28 1.28 0 0 0 .56-1.07 1.18 1.18 0 0 0-.23-.72 2.64 2.64 0 0 0-.72-.62q-.5-.31-2.66-1.29a12.77 12.77 0 0 1-2.93-1.72 5.28 5.28 0 0 1-1.45-1.91 6.35 6.35 0 0 1-.47-2.56 5.12 5.12 0 0 1 2-4.31 8.86 8.86 0 0 1 5.52-1.54 15.5 15.5 0 0 1 6.33 1.44l-1.65 4.17a12 12 0 0 0-4.84-1.29 2.52 2.52 0 0 0-1.53.37 1.12 1.12 0 0 0-.48.92 1.32 1.32 0 0 0 .61 1.05 23.19 23.19 0 0 0 3.3 1.7 9.13 9.13 0 0 1 3.59 2.5 5.42 5.42 0 0 1 1.02 3.37zM295.36 247.72a8.31 8.31 0 0 1-6-2.06 7.75 7.75 0 0 1-2.14-5.86 8.44 8.44 0 0 1 2-6 7.41 7.41 0 0 1 5.66-2.1 7.51 7.51 0 0 1 5.41 1.83 6.94 6.94 0 0 1 1.91 5.26v2.38h-9.56a2.65 2.65 0 0 0 1 2 3.72 3.72 0 0 0 2.44.74 11.79 11.79 0 0 0 2.59-.27 12.83 12.83 0 0 0 2.56-.91v3.84a9.43 9.43 0 0 1-2.6.89 18 18 0 0 1-3.27.26zm-.31-12.4a2.22 2.22 0 0 0-1.58.59 2.79 2.79 0 0 0-.75 1.87h4.59a2.67 2.67 0 0 0-.64-1.79 2.1 2.1 0 0 0-1.67-.67zM314.54 231.69a7.71 7.71 0 0 1 1.33.11l.3.05-.48 5a7.87 7.87 0 0 0-1.82-.16 3.46 3.46 0 0 0-2.54.8 3.13 3.13 0 0 0-.79 2.3v7.62h-5.35V232h4l.83 2.47h.26a5.35 5.35 0 0 1 1.87-2 4.46 4.46 0 0 1 2.39-.78zM322.38 247.45l-5.9-15.45h5.58l2.63 9.16.05.23q0 .16.08.39c0 .15.05.31.08.48a3.6 3.6 0 0 1 0 .47h.1a5.48 5.48 0 0 1 .25-1.54L328 232h5.56l-5.91 15.49zM342.91 247.72a8.31 8.31 0 0 1-6-2.06 7.75 7.75 0 0 1-2.14-5.86 8.44 8.44 0 0 1 2-6 7.41 7.41 0 0 1 5.66-2.1 7.51 7.51 0 0 1 5.41 1.83 6.94 6.94 0 0 1 1.91 5.26v2.38h-9.56a2.65 2.65 0 0 0 1 2 3.72 3.72 0 0 0 2.44.74 11.79 11.79 0 0 0 2.59-.27 12.83 12.83 0 0 0 2.56-.91v3.84a9.43 9.43 0 0 1-2.6.89 18 18 0 0 1-3.27.26zm-.31-12.4a2.22 2.22 0 0 0-1.58.59 2.79 2.79 0 0 0-.75 1.87h4.59a2.67 2.67 0 0 0-.64-1.79 2.1 2.1 0 0 0-1.63-.67zM362.09 231.69a7.71 7.71 0 0 1 1.33.11l.3.05-.48 5a7.87 7.87 0 0 0-1.82-.16 3.46 3.46 0 0 0-2.54.8 3.13 3.13 0 0 0-.79 2.3v7.62h-5.35V232h4l.83 2.47h.26a5.35 5.35 0 0 1 1.87-2 4.46 4.46 0 0 1 2.39-.78z"/></g></symbol><symbol id="turnkey" viewBox="0 0 404.5 257"><title>turnkey</title><g fill="#3d3d3d" stroke="#3d3d3d" stroke-miterlimit="10"><path d="M24.9 25.5L19.5 7.1h-.1q.3 5.55.3 7.5v10.9h-4.3V2h6.5l5.4 17.9h.1L33 2h6.5v23.5H35V12.6c0-.7.1-2.5.2-5.5h-.1l-5.8 18.4zM64 13.5c0 3.9-1.1 6.8-3.2 8.9s-5.2 3.1-9.2 3.1h-6.4V2h7.1c3.7 0 6.6 1 8.6 3S64 9.9 64 13.5zm-5 .1c0-5-2.1-7.6-6.4-7.6H50v15.3h2.1c4.6.1 6.9-2.5 6.9-7.7zM77.9 7.2a7.59 7.59 0 0 1 1.6.1l-.4 4.6a5.21 5.21 0 0 0-1.4-.2 4.79 4.79 0 0 0-3.5 1.2 4.59 4.59 0 0 0-1.3 3.4v9.2h-4.7v-18h3.6l.7 3h.2a6.36 6.36 0 0 1 2.2-2.4 5.79 5.79 0 0 1 3-.9zM82.5 2.9c0-1.6.8-2.4 2.5-2.4s2.6.8 2.6 2.4a2.44 2.44 0 0 1-.6 1.8 2.71 2.71 0 0 1-1.9.6c-1.8 0-2.6-.8-2.6-2.4zm4.9 22.6h-4.7v-18h4.7zM96.5 25.5l-6.6-18h4.9l3.3 10.2a17.15 17.15 0 0 1 .7 3.7h.1a21.32 21.32 0 0 1 .7-3.7L103 7.5h4.9l-6.6 18zM118.2 25.8a8.53 8.53 0 0 1-6.5-2.4 9.25 9.25 0 0 1-2.4-6.8c0-3 .7-5.3 2.2-7a7.75 7.75 0 0 1 6-2.5 7.39 7.39 0 0 1 5.7 2.2c1.4 1.4 2 3.4 2 6v2.4H114a4.9 4.9 0 0 0 1.2 3.3 4 4 0 0 0 3.1 1.2 15.26 15.26 0 0 0 3-.3 11.48 11.48 0 0 0 2.9-1.1v3.7a20 20 0 0 1-2.6 1 16.5 16.5 0 0 1-3.4.3zm-.7-15.1a3 3 0 0 0-2.4 1 4.71 4.71 0 0 0-1 2.8h6.6a4.1 4.1 0 0 0-.9-2.8 2.64 2.64 0 0 0-2.3-1zM145 25.5h-4.7V15a4.6 4.6 0 0 0-.7-2.9 2.39 2.39 0 0 0-2.1-1 3.3 3.3 0 0 0-2.9 1.4 8.6 8.6 0 0 0-.9 4.6v8.4H129v-18h3.6l.6 2.3h.3a4.78 4.78 0 0 1 2.2-2 7.83 7.83 0 0 1 3.1-.7 6.19 6.19 0 0 1 4.6 1.7 7.2 7.2 0 0 1 1.6 4.9v11.8zM26.2 54.2h-4.8V34.9h-6.1v-4.1h17.1v4.1h-6.1v19.3zM47.7 54.2l-.7-2.3h-.2a4.84 4.84 0 0 1-2.1 1.9 6.57 6.57 0 0 1-3.2.7 6 6 0 0 1-4.6-1.7 7.18 7.18 0 0 1-1.5-4.9V36.3H40v10.5a4.6 4.6 0 0 0 .7 2.9 2.39 2.39 0 0 0 2.1 1 3.3 3.3 0 0 0 2.9-1.4 8.6 8.6 0 0 0 .9-4.6v-8.4h4.7v17.9zM65.9 36a7.59 7.59 0 0 1 1.6.1l-.4 4.6a5.21 5.21 0 0 0-1.4-.2 4.79 4.79 0 0 0-3.5 1.2 4.59 4.59 0 0 0-1.3 3.4v9.1h-4.7V36.3h3.6l.7 3h.2a6.36 6.36 0 0 1 2.2-2.4 5.29 5.29 0 0 1 3-.9zM86.6 54.2h-4.7V43.8a4.6 4.6 0 0 0-.7-2.9 2.39 2.39 0 0 0-2.1-1 3.3 3.3 0 0 0-2.9 1.4 8.6 8.6 0 0 0-.9 4.6v8.4h-4.7v-18h3.6l.6 2.3h.3a4.78 4.78 0 0 1 2.2-2 7.83 7.83 0 0 1 3.1-.7 6.19 6.19 0 0 1 4.6 1.7 7.2 7.2 0 0 1 1.6 4.9zM96 44.5l2.1-2.7 4.8-5.5h5.3l-6.9 7.8 7.3 10.2h-5.4l-5-7.3-2 1.7v5.6h-4.7v-25h4.7v11.1l-.2 4.1zM118.9 54.6a8.53 8.53 0 0 1-6.5-2.4 9.25 9.25 0 0 1-2.4-6.8c0-3 .7-5.3 2.2-7a7.75 7.75 0 0 1 6-2.5 7.39 7.39 0 0 1 5.7 2.2c1.4 1.4 2 3.4 2 6v2.4h-11.2a4.9 4.9 0 0 0 1.2 3.3A4 4 0 0 0 119 51a15.26 15.26 0 0 0 3-.3 11.48 11.48 0 0 0 2.9-1.1v3.8a20 20 0 0 1-2.6 1 31.14 31.14 0 0 1-3.4.2zm-.7-15.2a3 3 0 0 0-2.4 1 4.71 4.71 0 0 0-1 2.8h6.6a4.1 4.1 0 0 0-.9-2.8 2.93 2.93 0 0 0-2.3-1zM127.3 36.3h5.2l3.3 10.1a13.12 13.12 0 0 1 .6 3.1h.1a10.76 10.76 0 0 1 .7-3.1l3.2-10.1h5.1L138 56.5a8.34 8.34 0 0 1-2.9 4.2 7.22 7.22 0 0 1-4.4 1.4 9.86 9.86 0 0 1-2.4-.3v-3.9a11.08 11.08 0 0 0 1.9.2 3.49 3.49 0 0 0 2.2-.8 5.51 5.51 0 0 0 1.5-2.4l.3-.9z"/></g><circle cx="316.5" cy="169" r="88" style="isolation:isolate" fill="#e57512" opacity=".8"/><circle cx="5" cy="62.5" r="5" style="isolation:isolate" fill="#3d3d3d" opacity=".4"/><path style="isolation:isolate" fill="none" stroke="#3d3d3d" stroke-miterlimit="10" opacity=".4" d="M11.5 63H158M158 63l81.5 47"/><path d="M307.2 166.4zM311.4 161.3c-1.2-5.4-.8-7.3 0-7.7s1.8.5 2.6 0c1-.7.3-3.5 0-4.4-3-10.8-2.4-14.6-4.4-14.9-1.6-.3-3.7 1.7-3.7 3.3s2.4 2.6 4.1 3.3a17.45 17.45 0 0 0 12.7 0c1.7-.7 3.7-1.5 4-3s-1.7-3.8-3.1-3.6c-2.1.3-1.3 5.7-4 15.2-.2.8-1 3.4 0 4.2.8.6 1.9-.4 2.6.1 1.3 1-2.3 5.9-.8 7.6a2.58 2.58 0 0 0 3.4 0c.9-1.1-.7-3.1.4-4.5.5-.7 1.4-.8 1.6-1 5.3-3.5 10.6-10.2 11.1-17.3.8-10.3-8.5-23.4-22-23.1-11.8.3-20.8 10.7-20.8 21.5s9 17.3 10 18M305 154.9c.7.4 1.4.9 2.2 1.3" fill="none" stroke="#fff" stroke-linecap="round" stroke-linejoin="round" stroke-width="1.5" stroke-dasharray="2.5"/><path d="M313.5 209.9l-3.1 3.6a2 2 0 0 0 .1 2.8l6 6.2v-45.2a1.22 1.22 0 0 1 1.2-1.2h4.6a2.48 2.48 0 0 1 2.5 2.5l-.2 38.1a.91.91 0 0 1-.3.7l-4.5 4.9v-39.6" fill="none" stroke="#fff" stroke-linecap="round" stroke-linejoin="round" stroke-width="2"/><path d="M307.2 166.3h18v3.8a1.32 1.32 0 0 1-1.3 1.3h-15.6a1.32 1.32 0 0 0-1.3 1.3v2.1a1.32 1.32 0 0 0 1.3 1.3 1.32 1.32 0 0 1 1.3 1.3v2.1a5.42 5.42 0 0 0 .6 2.5l1.5 2.9a1.48 1.48 0 0 1 0 1.3l-3.1 4.6a1.57 1.57 0 0 0 .2 1.6l2.9 4.3a1.39 1.39 0 0 1 0 1.9l-2.9 3.8a1.39 1.39 0 0 0 0 1.9l4.6 5.4" fill="none" stroke="#fff" stroke-linecap="round" stroke-linejoin="round" stroke-width="2"/></symbol></svg>