<svg xmlns="http://www.w3.org/2000/svg"><symbol id="designer" viewBox="0 0 405.4 259.9"><title>designer</title><circle cx="317.4" cy="88" r="88" style="isolation:isolate" fill="#d36c20" opacity=".8"/><circle cx="317.3" cy="44.6" r="5.4" fill="#fff"/><circle cx="317.3" cy="130.8" r="6.1" fill="#fff"/><circle cx="317.3" cy="87.7" r="6.1" fill="#fff"/><circle cx="280.9" cy="66.1" r="6.1" fill="#fff"/><circle cx="280.9" cy="109.2" r="5.4" fill="#fff"/><circle cx="354" cy="66.1" r="6.1" fill="#fff"/><circle cx="354" cy="109.2" r="5.4" fill="#fff"/><path style="isolation:isolate" fill="none" stroke="#fff" stroke-linecap="round" stroke-linejoin="round" stroke-dasharray="2" opacity=".7" d="M317.2 130.8l36.2-21.6M354 66.1l-36.8-21.5M280.9 66.1v43.1"/><path style="isolation:isolate" fill="none" stroke="#fff" stroke-linecap="round" stroke-linejoin="round" stroke-width=".75" stroke-dasharray="1.5" opacity=".4" d="M280.9 109.2l36.3-21.5"/><path style="isolation:isolate" fill="none" stroke="#fff" stroke-linecap="round" stroke-linejoin="round" stroke-dasharray="2" opacity=".7" d="M354 66.1v43.1M280.9 66.7l36.3-21.6M317.7 131.3l-36.8-21.6"/><path fill="none" stroke="#fff" stroke-linecap="round" stroke-linejoin="round" stroke-dasharray="2" d="M317.2 87.7l36.2-21.6M317.2 87.7l-36.3-21.6"/><path style="isolation:isolate" fill="none" stroke="#fff" stroke-linecap="round" stroke-linejoin="round" stroke-width=".75" stroke-dasharray="1.5" opacity=".4" d="M354 109.2l-36.8-21.5"/><path style="isolation:isolate" fill="none" stroke="#fff" stroke-linecap="round" stroke-miterlimit="10" stroke-width=".75" stroke-dasharray="1.5" opacity=".4" d="M317.3 44.6v43.1"/><g fill="none" stroke="#fff" stroke-linecap="round" stroke-linejoin="round"><path d="M317.3 87.7v1"/><path stroke-dasharray="1.955899953842163,1.955899953842163" d="M317.3 90.6v38.2"/><path d="M317.3 129.8v1"/></g><g><circle cx="5" cy="254.9" r="5" style="isolation:isolate" fill="#3d3d3d" opacity=".4"/><path style="isolation:isolate" fill="none" stroke="#3d3d3d" stroke-miterlimit="10" opacity=".4" d="M11.5 254.9H163M163 254.9l92.5-90.5"/></g><g fill="#3d3d3d"><path d="M34.45 222.25l-4.09-14.4h-.12q.29 3.68.29 5.71v8.68h-4.79v-20h7.19l4.17 14.19h.11l4.09-14.19h7.21v20h-5v-8.76-1.52q0-.84.18-4.09h-.12l-4 14.37zM69.78 211.83q0 5-2.75 7.71t-7.75 2.71h-6.47v-20h6.92q4.81 0 7.43 2.46t2.62 7.12zm-5.61.19a6.35 6.35 0 0 0-1.09-4.07 4 4 0 0 0-3.3-1.33h-1.57v11.2h1.2a4.36 4.36 0 0 0 3.59-1.43 6.9 6.9 0 0 0 1.18-4.39zM82.4 206.49a7.8 7.8 0 0 1 1.33.11l.3.05-.48 5a7.87 7.87 0 0 0-1.82-.16 3.46 3.46 0 0 0-2.54.8 3.13 3.13 0 0 0-.79 2.3v7.62H73v-15.45h4l.83 2.47h.26a5.35 5.35 0 0 1 1.87-2 4.47 4.47 0 0 1 2.44-.74zM86.08 202.9a2.26 2.26 0 0 1 .67-1.79 4.25 4.25 0 0 1 4.33 0 2.24 2.24 0 0 1 .68 1.78q0 2.35-2.86 2.35t-2.82-2.34zm5.48 19.35h-5.35v-15.49h5.35zM99.35 222.25l-5.91-15.49H99l2.62 9.16.05.23q0 .16.08.39c0 .15.05.31.08.48a3.6 3.6 0 0 1 0 .47h.1a5.49 5.49 0 0 1 .25-1.54l2.75-9.19h5.56l-5.91 15.49zM119.87 222.52a8.31 8.31 0 0 1-6-2.06 7.75 7.75 0 0 1-2.14-5.86 8.44 8.44 0 0 1 2-6 7.41 7.41 0 0 1 5.66-2.1 7.51 7.51 0 0 1 5.41 1.83 6.94 6.94 0 0 1 1.91 5.26v2.38h-9.56a2.65 2.65 0 0 0 1 2 3.72 3.72 0 0 0 2.44.74 11.79 11.79 0 0 0 2.59-.27 12.83 12.83 0 0 0 2.56-.91v3.84a9.43 9.43 0 0 1-2.6.89 18 18 0 0 1-3.27.26zm-.31-12.4a2.22 2.22 0 0 0-1.58.59 2.79 2.79 0 0 0-.75 1.87h4.59a2.67 2.67 0 0 0-.64-1.79 2.1 2.1 0 0 0-1.62-.67zM139.48 222.25v-8.45a4.85 4.85 0 0 0-.44-2.33 1.52 1.52 0 0 0-1.43-.79 2.07 2.07 0 0 0-2 1.08 8.18 8.18 0 0 0-.6 3.71v6.78h-5.31v-15.49h4l.67 1.91h.31a4.24 4.24 0 0 1 1.89-1.64 6.7 6.7 0 0 1 2.78-.55 5.28 5.28 0 0 1 4 1.49 5.82 5.82 0 0 1 1.43 4.2v10.08zM40.19 234.83q0 5-2.75 7.71t-7.75 2.71h-6.46v-20h6.92q4.81 0 7.43 2.46t2.61 7.12zm-5.61.19a6.35 6.35 0 0 0-1.09-4.07 4 4 0 0 0-3.3-1.33h-1.56v11.2h1.2a4.36 4.36 0 0 0 3.61-1.43 6.9 6.9 0 0 0 1.15-4.39zM50.94 245.52a8.31 8.31 0 0 1-6-2.06 7.75 7.75 0 0 1-2.14-5.86 8.44 8.44 0 0 1 2-6 7.41 7.41 0 0 1 5.66-2.1 7.51 7.51 0 0 1 5.41 1.83 6.94 6.94 0 0 1 1.91 5.26v2.38h-9.59a2.65 2.65 0 0 0 1 2 3.72 3.72 0 0 0 2.44.74 11.79 11.79 0 0 0 2.59-.27 12.83 12.83 0 0 0 2.56-.91v3.84a9.43 9.43 0 0 1-2.6.89 18 18 0 0 1-3.24.26zm-.31-12.4a2.22 2.22 0 0 0-1.58.59 2.79 2.79 0 0 0-.75 1.87h4.6a2.67 2.67 0 0 0-.64-1.79 2.1 2.1 0 0 0-1.63-.67zM72.73 240.49a4.4 4.4 0 0 1-1.7 3.76 8 8 0 0 1-4.87 1.27 21.14 21.14 0 0 1-3-.18 12.71 12.71 0 0 1-2.6-.68v-4.28a16 16 0 0 0 2.73.9 11.47 11.47 0 0 0 2.65.36q1.74 0 1.74-.79a.9.9 0 0 0-.49-.73 22.27 22.27 0 0 0-2.82-1.25 7 7 0 0 1-3-2 4.53 4.53 0 0 1-.85-2.82 3.91 3.91 0 0 1 1.67-3.36 8 8 0 0 1 4.72-1.2 11.88 11.88 0 0 1 2.88.33 17.22 17.22 0 0 1 2.8 1l-1.45 3.45a16.41 16.41 0 0 0-2.26-.81 7.49 7.49 0 0 0-1.88-.36q-1.31 0-1.31.64a.8.8 0 0 0 .46.68 24.7 24.7 0 0 0 2.65 1.14 10.21 10.21 0 0 1 2.43 1.31 3.93 3.93 0 0 1 1.18 1.51 5.31 5.31 0 0 1 .32 2.11zM75.59 225.9a2.26 2.26 0 0 1 .67-1.79 4.25 4.25 0 0 1 4.33 0 2.24 2.24 0 0 1 .68 1.78q0 2.35-2.86 2.35t-2.82-2.34zm5.48 19.35h-5.34v-15.49h5.35zM99.42 229.76v2.58l-2.12.78a3.76 3.76 0 0 1 .44 1.85 4.66 4.66 0 0 1-1.74 3.88 8.38 8.38 0 0 1-5.24 1.38 6.73 6.73 0 0 1-1.37-.11 1.42 1.42 0 0 0-.19.67q0 .4.64.61a5.49 5.49 0 0 0 1.68.21h2.57q5.21 0 5.21 4.39a5 5 0 0 1-2.41 4.4 12.37 12.37 0 0 1-6.79 1.6 9.72 9.72 0 0 1-5.08-1.1 3.51 3.51 0 0 1-1.78-3.17q0-2.78 3.45-3.58a3.09 3.09 0 0 1-1.24-1 2.08 2.08 0 0 1-.13-2.6 5.86 5.86 0 0 1 1.68-1.32 4.12 4.12 0 0 1-1.89-1.67 5.21 5.21 0 0 1-.69-2.76 4.76 4.76 0 0 1 1.72-3.92 7.65 7.65 0 0 1 4.86-1.39q.42 0 1.46.1t1.53.18zm-11.67 17.42a1.2 1.2 0 0 0 .71 1.06 3.85 3.85 0 0 0 1.9.4 8.26 8.26 0 0 0 3.11-.49q1.17-.48 1.17-1.25a.9.9 0 0 0-.71-.87 6.35 6.35 0 0 0-2-.25H89.8a2.54 2.54 0 0 0-1.46.4 1.17 1.17 0 0 0-.59 1zm1.68-12.35q0 2.38 1.65 2.38a1.36 1.36 0 0 0 1.18-.59 3.05 3.05 0 0 0 .42-1.76q0-2.41-1.6-2.41t-1.65 2.38zM111.55 245.25v-8.45a4.85 4.85 0 0 0-.44-2.33 1.52 1.52 0 0 0-1.43-.79 2.07 2.07 0 0 0-2 1.08 8.18 8.18 0 0 0-.6 3.71v6.78h-5.35v-15.49h4l.67 1.91h.31a4.24 4.24 0 0 1 1.89-1.64 6.7 6.7 0 0 1 2.78-.55 5.28 5.28 0 0 1 4 1.49 5.82 5.82 0 0 1 1.43 4.2v10.08zM128 245.52a8.31 8.31 0 0 1-6-2.06 7.75 7.75 0 0 1-2.14-5.86 8.44 8.44 0 0 1 2-6 7.41 7.41 0 0 1 5.66-2.1 7.51 7.51 0 0 1 5.41 1.83 6.94 6.94 0 0 1 1.91 5.26v2.38h-9.56a2.65 2.65 0 0 0 1 2 3.72 3.72 0 0 0 2.44.74 11.79 11.79 0 0 0 2.59-.27 12.83 12.83 0 0 0 2.56-.91v3.84a9.43 9.43 0 0 1-2.6.89 18 18 0 0 1-3.27.26zm-.31-12.4a2.22 2.22 0 0 0-1.58.59 2.79 2.79 0 0 0-.75 1.87H130a2.67 2.67 0 0 0-.64-1.79 2.1 2.1 0 0 0-1.67-.67zM147.19 229.49a7.8 7.8 0 0 1 1.33.11l.3.05-.48 5a7.87 7.87 0 0 0-1.82-.16 3.46 3.46 0 0 0-2.54.8 3.13 3.13 0 0 0-.79 2.3v7.62h-5.35v-15.45h4l.83 2.47h.26a5.35 5.35 0 0 1 1.87-2 4.47 4.47 0 0 1 2.39-.74z"/></g></symbol><symbol id="server" viewBox="0 0 403.7 260.7"><title>server</title><circle cx="88" cy="88" r="88" style="isolation:isolate" fill="#e7832a" opacity=".7"/><circle cx="398.7" cy="255.7" r="5" style="isolation:isolate" fill="#3d3d3d" opacity=".4"/><path style="isolation:isolate" fill="none" stroke="#3d3d3d" stroke-miterlimit="10" opacity=".4" d="M392.7 255.7H241.2M241.2 255.7l-94-89.5"/><g fill="none" stroke="#fff" stroke-miterlimit="10"><path d="M72.5 117.8h-5.7a6.14 6.14 0 0 0-11.8 3.4 6.1 6.1 0 0 0 7.52 4.22h.08a6.31 6.31 0 0 0 4.2-4.2h5.7a6.79 6.79 0 0 0 6.9-6.6V104.4a1.7 1.7 0 0 0-3.4 0v10.2a3.42 3.42 0 0 1-3.5 3.2z" stroke-linecap="round" stroke-width=".75" stroke-dasharray="1.5"/><path d="M60.7 122.2a2.8 2.8 0 0 1-2.9-2.7v-.1a2.9 2.9 0 0 1 5.8-.1v.1a2.82 2.82 0 0 1-2.84 2.8z" stroke-linecap="round" stroke-width=".75" stroke-dasharray="1"/><path d="M98.3 102.6a1.69 1.69 0 0 0-1.7 1.68v10.2a6.72 6.72 0 0 0 6.84 6.6h5.76a6.14 6.14 0 1 0 4.2-7.6 6.31 6.31 0 0 0-4.2 4.2h-5.7a3.44 3.44 0 0 1-3.5-3.3V104.2a1.67 1.67 0 0 0-1.7-1.6z" stroke-linecap="round" stroke-width=".75" stroke-dasharray="1.5"/><path d="M115.3 116.6a2.8 2.8 0 0 1 2.9 2.7v.1a2.9 2.9 0 1 1-5.8.1v-.1a2.82 2.82 0 0 1 2.84-2.8z" stroke-linecap="round" stroke-width=".5" stroke-dasharray="1"/><path d="M90.2 38.4a22.35 22.35 0 0 0-19.4 11.3 10.55 10.55 0 0 0-2.5-.2 12.08 12.08 0 0 0-12.1 12.06 11.53 11.53 0 0 0 .3 2.6 16.65 16.65 0 0 0-7.1 13.7c0 9.1 7.3 17.2 16 17.7h43.3a19.42 19.42 0 0 0 17.8-19.5c0-8.9-6.1-16.9-14.4-19A22.14 22.14 0 0 0 90.2 38.4z" stroke-width="3.5"/><path d="M88 102.6a1.69 1.69 0 0 0-1.7 1.68v21.3a6 6 0 0 0-2.8 10.1 6.81 6.81 0 0 0 4.5 1.9h.2a6.36 6.36 0 0 0 6.4-5.9 6.2 6.2 0 0 0-1.8-4.4 6.57 6.57 0 0 0-2.9-1.7V104.3a1.86 1.86 0 0 0-1.9-1.7z" stroke-linecap="round" stroke-width=".75" stroke-dasharray="1.5"/><path d="M90.9 131.6a2.86 2.86 0 0 1-2.9 2.7h-.1a2.52 2.52 0 0 1-2-.9 2.72 2.72 0 0 1-.05-3.85l.05-.05a3.23 3.23 0 0 1 2.1-.8h.1a2.52 2.52 0 0 1 2 .9 3 3 0 0 1 .8 2z" stroke-linecap="round" stroke-width=".75" stroke-dasharray="1"/></g><g fill="#3d3d3d"><path d="M266.3 224.45l-4.09-14.4h-.12q.29 3.68.29 5.71v8.68h-4.79v-20h7.19l4.22 14.21h.11l4.09-14.19h7.21v20h-5v-8.76-1.52q0-.84.18-4.09h-.12l-4 14.37zM301.63 214q0 5-2.75 7.71t-7.75 2.71h-6.47v-20h6.92q4.81 0 7.43 2.46t2.62 7.12zm-5.61.19a6.35 6.35 0 0 0-1.09-4.07 4 4 0 0 0-3.3-1.33h-1.57V220h1.2a4.36 4.36 0 0 0 3.61-1.43 6.9 6.9 0 0 0 1.13-4.35zM314.25 208.69a7.71 7.71 0 0 1 1.33.11l.3.05-.48 5a7.87 7.87 0 0 0-1.82-.16 3.46 3.46 0 0 0-2.54.8 3.13 3.13 0 0 0-.79 2.3v7.62h-5.35V209h4l.83 2.47h.27a5.35 5.35 0 0 1 1.87-2 4.46 4.46 0 0 1 2.38-.78zM317.93 205.1a2.26 2.26 0 0 1 .67-1.79 4.25 4.25 0 0 1 4.33 0 2.24 2.24 0 0 1 .68 1.78q0 2.35-2.86 2.35t-2.82-2.34zm5.48 19.35h-5.35V209h5.35zM331.2 224.45L325.3 209h5.58l2.63 9.16.05.23q0 .16.08.39c0 .15.05.31.08.48a3.6 3.6 0 0 1 0 .47h.1a5.48 5.48 0 0 1 .25-1.54l2.75-9.19h5.56l-5.91 15.49zM351.72 224.72a8.31 8.31 0 0 1-6-2.06 7.75 7.75 0 0 1-2.14-5.86 8.44 8.44 0 0 1 2-6 7.41 7.41 0 0 1 5.66-2.1 7.51 7.51 0 0 1 5.41 1.83 6.94 6.94 0 0 1 1.91 5.26v2.38H349a2.65 2.65 0 0 0 1 2 3.72 3.72 0 0 0 2.44.74 11.79 11.79 0 0 0 2.59-.27 12.83 12.83 0 0 0 2.56-.91v3.84a9.43 9.43 0 0 1-2.6.89 18 18 0 0 1-3.27.26zm-.31-12.4a2.22 2.22 0 0 0-1.58.59 2.79 2.79 0 0 0-.75 1.87h4.59A2.67 2.67 0 0 0 353 213a2.1 2.1 0 0 0-1.59-.68zM371.33 224.45V216a4.85 4.85 0 0 0-.44-2.33 1.52 1.52 0 0 0-1.43-.79 2.07 2.07 0 0 0-2 1.08 8.18 8.18 0 0 0-.6 3.71v6.78h-5.35V209h4l.67 1.91h.31a4.23 4.23 0 0 1 1.89-1.64 6.69 6.69 0 0 1 2.78-.55 5.28 5.28 0 0 1 4 1.49 5.82 5.82 0 0 1 1.43 4.2v10.08zM285.1 241.38a5.9 5.9 0 0 1-.94 3.3 6.18 6.18 0 0 1-2.72 2.24 10.09 10.09 0 0 1-4.17.8 16.89 16.89 0 0 1-3.35-.28 12.41 12.41 0 0 1-2.82-1v-4.81a16.06 16.06 0 0 0 3.21 1.24 12 12 0 0 0 3.06.44 3 3 0 0 0 1.76-.42 1.28 1.28 0 0 0 .56-1.07 1.18 1.18 0 0 0-.23-.72 2.64 2.64 0 0 0-.72-.62q-.5-.31-2.66-1.29a12.77 12.77 0 0 1-2.93-1.72 5.28 5.28 0 0 1-1.45-1.91 6.35 6.35 0 0 1-.47-2.56 5.12 5.12 0 0 1 2-4.31 8.86 8.86 0 0 1 5.52-1.54 15.5 15.5 0 0 1 6.33 1.44l-1.65 4.17a12 12 0 0 0-4.84-1.29 2.52 2.52 0 0 0-1.53.37 1.12 1.12 0 0 0-.48.92 1.32 1.32 0 0 0 .61 1.05 23.19 23.19 0 0 0 3.3 1.7 9.13 9.13 0 0 1 3.59 2.5 5.42 5.42 0 0 1 1.02 3.37zM295.36 247.72a8.31 8.31 0 0 1-6-2.06 7.75 7.75 0 0 1-2.14-5.86 8.44 8.44 0 0 1 2-6 7.41 7.41 0 0 1 5.66-2.1 7.51 7.51 0 0 1 5.41 1.83 6.94 6.94 0 0 1 1.91 5.26v2.38h-9.56a2.65 2.65 0 0 0 1 2 3.72 3.72 0 0 0 2.44.74 11.79 11.79 0 0 0 2.59-.27 12.83 12.83 0 0 0 2.56-.91v3.84a9.43 9.43 0 0 1-2.6.89 18 18 0 0 1-3.27.26zm-.31-12.4a2.22 2.22 0 0 0-1.58.59 2.79 2.79 0 0 0-.75 1.87h4.59a2.67 2.67 0 0 0-.64-1.79 2.1 2.1 0 0 0-1.67-.67zM314.54 231.69a7.71 7.71 0 0 1 1.33.11l.3.05-.48 5a7.87 7.87 0 0 0-1.82-.16 3.46 3.46 0 0 0-2.54.8 3.13 3.13 0 0 0-.79 2.3v7.62h-5.35V232h4l.83 2.47h.26a5.35 5.35 0 0 1 1.87-2 4.46 4.46 0 0 1 2.39-.78zM322.38 247.45l-5.9-15.45h5.58l2.63 9.16.05.23q0 .16.08.39c0 .15.05.31.08.48a3.6 3.6 0 0 1 0 .47h.1a5.48 5.48 0 0 1 .25-1.54L328 232h5.56l-5.91 15.49zM342.91 247.72a8.31 8.31 0 0 1-6-2.06 7.75 7.75 0 0 1-2.14-5.86 8.44 8.44 0 0 1 2-6 7.41 7.41 0 0 1 5.66-2.1 7.51 7.51 0 0 1 5.41 1.83 6.94 6.94 0 0 1 1.91 5.26v2.38h-9.56a2.65 2.65 0 0 0 1 2 3.72 3.72 0 0 0 2.44.74 11.79 11.79 0 0 0 2.59-.27 12.83 12.83 0 0 0 2.56-.91v3.84a9.43 9.43 0 0 1-2.6.89 18 18 0 0 1-3.27.26zm-.31-12.4a2.22 2.22 0 0 0-1.58.59 2.79 2.79 0 0 0-.75 1.87h4.59a2.67 2.67 0 0 0-.64-1.79 2.1 2.1 0 0 0-1.63-.67zM362.09 231.69a7.71 7.71 0 0 1 1.33.11l.3.05-.48 5a7.87 7.87 0 0 0-1.82-.16 3.46 3.46 0 0 0-2.54.8 3.13 3.13 0 0 0-.79 2.3v7.62h-5.35V232h4l.83 2.47h.26a5.35 5.35 0 0 1 1.87-2 4.46 4.46 0 0 1 2.39-.78z"/></g></symbol><symbol id="turnkey" viewBox="0 0 404.5 247.72"><title>turnkey</title><circle cx="316.5" cy="159.72" r="88" style="isolation:isolate" fill="#e57512" opacity=".7"/><circle cx="5" cy="53.22" r="5" style="isolation:isolate" fill="#3d3d3d" opacity=".4"/><path style="isolation:isolate" fill="none" stroke="#3d3d3d" stroke-miterlimit="10" opacity=".4" d="M11.5 53.72H158M158 53.72l81.5 47"/><g fill="none" stroke="#fff" stroke-linecap="round" stroke-linejoin="round" stroke-width="1.5" stroke-dasharray="2.5"><path d="M311.44 152c-1.22-5.41-.84-7.27 0-7.7s1.83.52 2.57 0c1-.73.26-3.5 0-4.45-3-10.75-2.38-14.56-4.45-14.93-1.61-.29-3.74 1.69-3.66 3.26s2.42 2.58 4 3.26a17.11 17.11 0 0 0 12.65 0c1.73-.67 3.74-1.46 4-3s-1.67-3.76-3.06-3.56c-2.1.3-1.31 5.65-4 15.22-.22.79-1 3.41 0 4.15.77.57 1.93-.44 2.57.07 1.27 1-2.31 5.92-.79 7.63a2.62 2.62 0 0 0 3.39 0c.91-1.05-.67-3.05.4-4.54.52-.72 1.4-.82 1.65-1 5.31-3.5 10.6-10.22 11.14-17.27.79-10.33-8.47-23.44-22-23.07-11.8.33-20.81 10.72-20.82 21.48s9 17.33 10 18"/><path d="M306.11 146.28l.34.2a1.49 1.49 0 0 1 .72 1.27v9.29"/></g><g fill="none" stroke="#fff" stroke-linecap="round" stroke-linejoin="round" stroke-width="2"><path d="M313.51 200.65l-3.1 3.59a2.1 2.1 0 0 0 .08 2.83l6 6.23v-45.2a1.16 1.16 0 0 1 1.16-1.16h4.64a2.55 2.55 0 0 1 2.55 2.55l-.19 38.13a1.2 1.2 0 0 1-.25.74l-4.46 4.95v-39.58"/><path d="M307.18 157.05h18v3.76a1.34 1.34 0 0 1-1.34 1.34h-15.58a1.34 1.34 0 0 0-1.34 1.34v2.06a1.34 1.34 0 0 0 1.34 1.34 1.34 1.34 0 0 1 1.34 1.33v2.06a5.46 5.46 0 0 0 .62 2.53l1.53 2.94a1.34 1.34 0 0 1 0 1.29l-3.11 4.64a1.48 1.48 0 0 0 .21 1.62l3 4.28a1.34 1.34 0 0 1 0 1.9l-2.89 3.79a1.34 1.34 0 0 0 0 1.9l4.62 5.41"/></g><g fill="#3d3d3d"><path d="M30.87 21.72l-4.09-14.4h-.12q.29 3.68.29 5.71v8.69h-4.79v-20h7.19l4.17 14.2h.11l4.09-14.19h7.21v20H40v-8.77-1.52q0-.84.18-4.09H40l-4 14.37zM66.2 11.3q0 5-2.75 7.71t-7.75 2.71h-6.47v-20h6.92q4.81 0 7.43 2.46t2.62 7.12zm-5.61.19a6.35 6.35 0 0 0-1.09-4.07 4 4 0 0 0-3.3-1.33h-1.57v11.2h1.2a4.36 4.36 0 0 0 3.61-1.43 6.9 6.9 0 0 0 1.15-4.37zM78.82 5.96a7.75 7.75 0 0 1 1.33.11l.3.05-.48 5a7.87 7.87 0 0 0-1.82-.16 3.46 3.46 0 0 0-2.54.8 3.13 3.13 0 0 0-.79 2.3v7.66h-5.36V6.22h4l.83 2.47h.26a5.35 5.35 0 0 1 1.87-2 4.47 4.47 0 0 1 2.4-.73zM82.49 2.37a2.26 2.26 0 0 1 .67-1.79 4.25 4.25 0 0 1 4.33 0 2.24 2.24 0 0 1 .68 1.78q0 2.35-2.86 2.35t-2.82-2.34zM88 21.72h-5.37V6.22H88zM95.77 21.72l-5.91-15.5h5.58l2.63 9.16.05.23q0 .16.08.39t.08.48a3.6 3.6 0 0 1 0 .47h.1a5.49 5.49 0 0 1 .25-1.54l2.77-9.19h5.6l-5.94 15.5zM116.29 21.99a8.31 8.31 0 0 1-6-2.06 7.75 7.75 0 0 1-2.14-5.86 8.44 8.44 0 0 1 2-6 7.41 7.41 0 0 1 5.66-2.1 7.51 7.51 0 0 1 5.41 1.83 6.94 6.94 0 0 1 1.91 5.26v2.36h-9.56a2.65 2.65 0 0 0 1 2 3.72 3.72 0 0 0 2.44.74 11.79 11.79 0 0 0 2.59-.27 12.83 12.83 0 0 0 2.56-.91v3.84a9.43 9.43 0 0 1-2.6.89 18 18 0 0 1-3.27.28zM116 9.59a2.22 2.22 0 0 0-1.58.59 2.79 2.79 0 0 0-.75 1.87h4.59a2.67 2.67 0 0 0-.64-1.79 2.1 2.1 0 0 0-1.62-.67zM135.9 21.72v-8.45a4.85 4.85 0 0 0-.44-2.33 1.52 1.52 0 0 0-1.43-.79 2.07 2.07 0 0 0-2 1.08 8.18 8.18 0 0 0-.6 3.71v6.78h-5.35V6.22h4l.67 1.91h.31A4.24 4.24 0 0 1 133 6.5a6.7 6.7 0 0 1 2.78-.55 5.28 5.28 0 0 1 4 1.49 5.82 5.82 0 0 1 1.43 4.2v10.08zM31 44.72h-5.4V29.15h-4.9v-4.42h15.15v4.42H31zM49.42 44.72l-.67-1.93h-.31a4.35 4.35 0 0 1-1.87 1.63 6.5 6.5 0 0 1-2.81.57 5.25 5.25 0 0 1-4-1.48 5.81 5.81 0 0 1-1.42-4.19v-10.1h5.35v8.46a4.86 4.86 0 0 0 .43 2.3 1.49 1.49 0 0 0 1.42.78 2.06 2.06 0 0 0 2-1.09 8.28 8.28 0 0 0 .59-3.67v-6.78h5.35v15.5zM66.5 28.96a7.75 7.75 0 0 1 1.33.11l.3.05-.48 5a7.87 7.87 0 0 0-1.82-.16 3.46 3.46 0 0 0-2.54.8 3.13 3.13 0 0 0-.79 2.3v7.66h-5.35v-15.5h4L62 31.7h.26a5.35 5.35 0 0 1 1.87-2 4.47 4.47 0 0 1 2.37-.74zM80.06 44.72v-8.45a4.85 4.85 0 0 0-.44-2.33 1.52 1.52 0 0 0-1.43-.79 2.07 2.07 0 0 0-2 1.08 8.18 8.18 0 0 0-.6 3.71v6.78h-5.3v-15.5h4l.71 1.92h.31a4.24 4.24 0 0 1 1.89-1.64 6.7 6.7 0 0 1 2.8-.54 5.28 5.28 0 0 1 4 1.49 5.82 5.82 0 0 1 1.43 4.2v10.07zM94.22 36.01a27.79 27.79 0 0 1 1.65-2.41l3.48-4.38h6l-5.41 6.6 5.71 8.9h-6.11l-3.39-5.55-1.74 1.33v4.22H89V23.45h5.37v8.37a28.93 28.93 0 0 1-.3 4.2zM115 44.99a8.31 8.31 0 0 1-6-2.06 7.75 7.75 0 0 1-2.14-5.86 8.44 8.44 0 0 1 2-6 7.41 7.41 0 0 1 5.66-2.1 7.51 7.51 0 0 1 5.41 1.83 6.94 6.94 0 0 1 1.91 5.26v2.36h-9.56a2.65 2.65 0 0 0 1 2 3.72 3.72 0 0 0 2.44.74 11.79 11.79 0 0 0 2.59-.27 12.83 12.83 0 0 0 2.56-.91v3.84a9.43 9.43 0 0 1-2.6.89 18 18 0 0 1-3.27.28zm-.31-12.4a2.22 2.22 0 0 0-1.58.59 2.79 2.79 0 0 0-.75 1.87h4.59a2.67 2.67 0 0 0-.65-1.83 2.1 2.1 0 0 0-1.64-.63zM122.94 29.22h5.63l2.63 8.89a8.76 8.76 0 0 1 .26 1.68h.11a9.28 9.28 0 0 1 .33-1.65l2.68-8.92H140l-6.12 16.47a9.69 9.69 0 0 1-2.88 4.46 7.23 7.23 0 0 1-4.48 1.3 10.77 10.77 0 0 1-2.19-.23v-4.2a7.53 7.53 0 0 0 1.67.2 2.69 2.69 0 0 0 1.24-.27 2.84 2.84 0 0 0 .93-.77 6.81 6.81 0 0 0 .85-1.63z"/></g></symbol></svg>