<svg xmlns="http://www.w3.org/2000/svg" style="display:none"><symbol id="designer" viewBox="0 0 405.4 259.9"><title>designer</title><circle cx="317.4" cy="88" r="88" style="isolation:isolate" fill="#d36c20" opacity=".8"/><circle cx="317.3" cy="44.6" r="5.4" fill="#fff"/><circle cx="317.3" cy="130.8" r="6.1" fill="#fff"/><circle cx="317.3" cy="87.7" r="6.1" fill="#fff"/><circle cx="280.9" cy="66.1" r="6.1" fill="#fff"/><circle cx="280.9" cy="109.2" r="5.4" fill="#fff"/><circle cx="354" cy="66.1" r="6.1" fill="#fff"/><circle cx="354" cy="109.2" r="5.4" fill="#fff"/><path style="isolation:isolate" fill="none" stroke="#fff" stroke-linecap="round" stroke-linejoin="round" stroke-dasharray="2" opacity=".7" d="M317.2 130.8l36.2-21.6M354 66.1l-36.8-21.5M280.9 66.1v43.1"/><path style="isolation:isolate" fill="none" stroke="#fff" stroke-linecap="round" stroke-linejoin="round" stroke-width=".75" stroke-dasharray="1.5" opacity=".4" d="M280.9 109.2l36.3-21.5"/><path style="isolation:isolate" fill="none" stroke="#fff" stroke-linecap="round" stroke-linejoin="round" stroke-dasharray="2" opacity=".7" d="M354 66.1v43.1M280.9 66.7l36.3-21.6M317.7 131.3l-36.8-21.6"/><path fill="none" stroke="#fff" stroke-linecap="round" stroke-linejoin="round" stroke-dasharray="2" d="M317.2 87.7l36.2-21.6M317.2 87.7l-36.3-21.6"/><path style="isolation:isolate" fill="none" stroke="#fff" stroke-linecap="round" stroke-linejoin="round" stroke-width=".75" stroke-dasharray="1.5" opacity=".4" d="M354 109.2l-36.8-21.5"/><path style="isolation:isolate" fill="none" stroke="#fff" stroke-linecap="round" stroke-miterlimit="10" stroke-width=".75" stroke-dasharray="1.5" opacity=".4" d="M317.3 44.6v43.1"/><g fill="none" stroke="#fff" stroke-linecap="round" stroke-linejoin="round"><path d="M317.3 87.7v1"/><path stroke-dasharray="1.955899953842163,1.955899953842163" d="M317.3 90.6v38.2"/><path d="M317.3 129.8v1"/></g><g><circle cx="5" cy="254.9" r="5" style="isolation:isolate" fill="#3d3d3d" opacity=".4"/><path style="isolation:isolate" fill="none" stroke="#3d3d3d" stroke-miterlimit="10" opacity=".4" d="M11.5 254.9H163M163 254.9l92.5-90.5"/></g><g fill="#3d3d3d"><path d="M34.45 222.25l-4.09-14.4h-.12q.29 3.68.29 5.71v8.68h-4.79v-20h7.19l4.17 14.19h.11l4.09-14.19h7.21v20h-5v-8.76-1.52q0-.84.18-4.09h-.12l-4 14.37zM69.78 211.83q0 5-2.75 7.71t-7.75 2.71h-6.47v-20h6.92q4.81 0 7.43 2.46t2.62 7.12zm-5.61.19a6.35 6.35 0 0 0-1.09-4.07 4 4 0 0 0-3.3-1.33h-1.57v11.2h1.2a4.36 4.36 0 0 0 3.59-1.43 6.9 6.9 0 0 0 1.18-4.39zM82.4 206.49a7.8 7.8 0 0 1 1.33.11l.3.05-.48 5a7.87 7.87 0 0 0-1.82-.16 3.46 3.46 0 0 0-2.54.8 3.13 3.13 0 0 0-.79 2.3v7.62H73v-15.45h4l.83 2.47h.26a5.35 5.35 0 0 1 1.87-2 4.47 4.47 0 0 1 2.44-.74zM86.08 202.9a2.26 2.26 0 0 1 .67-1.79 4.25 4.25 0 0 1 4.33 0 2.24 2.24 0 0 1 .68 1.78q0 2.35-2.86 2.35t-2.82-2.34zm5.48 19.35h-5.35v-15.49h5.35zM99.35 222.25l-5.91-15.49H99l2.62 9.16.05.23q0 .16.08.39c0 .15.05.31.08.48a3.6 3.6 0 0 1 0 .47h.1a5.49 5.49 0 0 1 .25-1.54l2.75-9.19h5.56l-5.91 15.49zM119.87 222.52a8.31 8.31 0 0 1-6-2.06 7.75 7.75 0 0 1-2.14-5.86 8.44 8.44 0 0 1 2-6 7.41 7.41 0 0 1 5.66-2.1 7.51 7.51 0 0 1 5.41 1.83 6.94 6.94 0 0 1 1.91 5.26v2.38h-9.56a2.65 2.65 0 0 0 1 2 3.72 3.72 0 0 0 2.44.74 11.79 11.79 0 0 0 2.59-.27 12.83 12.83 0 0 0 2.56-.91v3.84a9.43 9.43 0 0 1-2.6.89 18 18 0 0 1-3.27.26zm-.31-12.4a2.22 2.22 0 0 0-1.58.59 2.79 2.79 0 0 0-.75 1.87h4.59a2.67 2.67 0 0 0-.64-1.79 2.1 2.1 0 0 0-1.62-.67zM139.48 222.25v-8.45a4.85 4.85 0 0 0-.44-2.33 1.52 1.52 0 0 0-1.43-.79 2.07 2.07 0 0 0-2 1.08 8.18 8.18 0 0 0-.6 3.71v6.78h-5.31v-15.49h4l.67 1.91h.31a4.24 4.24 0 0 1 1.89-1.64 6.7 6.7 0 0 1 2.78-.55 5.28 5.28 0 0 1 4 1.49 5.82 5.82 0 0 1 1.43 4.2v10.08zM40.19 234.83q0 5-2.75 7.71t-7.75 2.71h-6.46v-20h6.92q4.81 0 7.43 2.46t2.61 7.12zm-5.61.19a6.35 6.35 0 0 0-1.09-4.07 4 4 0 0 0-3.3-1.33h-1.56v11.2h1.2a4.36 4.36 0 0 0 3.61-1.43 6.9 6.9 0 0 0 1.15-4.39zM50.94 245.52a8.31 8.31 0 0 1-6-2.06 7.75 7.75 0 0 1-2.14-5.86 8.44 8.44 0 0 1 2-6 7.41 7.41 0 0 1 5.66-2.1 7.51 7.51 0 0 1 5.41 1.83 6.94 6.94 0 0 1 1.91 5.26v2.38h-9.59a2.65 2.65 0 0 0 1 2 3.72 3.72 0 0 0 2.44.74 11.79 11.79 0 0 0 2.59-.27 12.83 12.83 0 0 0 2.56-.91v3.84a9.43 9.43 0 0 1-2.6.89 18 18 0 0 1-3.24.26zm-.31-12.4a2.22 2.22 0 0 0-1.58.59 2.79 2.79 0 0 0-.75 1.87h4.6a2.67 2.67 0 0 0-.64-1.79 2.1 2.1 0 0 0-1.63-.67zM72.73 240.49a4.4 4.4 0 0 1-1.7 3.76 8 8 0 0 1-4.87 1.27 21.14 21.14 0 0 1-3-.18 12.71 12.71 0 0 1-2.6-.68v-4.28a16 16 0 0 0 2.73.9 11.47 11.47 0 0 0 2.65.36q1.74 0 1.74-.79a.9.9 0 0 0-.49-.73 22.27 22.27 0 0 0-2.82-1.25 7 7 0 0 1-3-2 4.53 4.53 0 0 1-.85-2.82 3.91 3.91 0 0 1 1.67-3.36 8 8 0 0 1 4.72-1.2 11.88 11.88 0 0 1 2.88.33 17.22 17.22 0 0 1 2.8 1l-1.45 3.45a16.41 16.41 0 0 0-2.26-.81 7.49 7.49 0 0 0-1.88-.36q-1.31 0-1.31.64a.8.8 0 0 0 .46.68 24.7 24.7 0 0 0 2.65 1.14 10.21 10.21 0 0 1 2.43 1.31 3.93 3.93 0 0 1 1.18 1.51 5.31 5.31 0 0 1 .32 2.11zM75.59 225.9a2.26 2.26 0 0 1 .67-1.79 4.25 4.25 0 0 1 4.33 0 2.24 2.24 0 0 1 .68 1.78q0 2.35-2.86 2.35t-2.82-2.34zm5.48 19.35h-5.34v-15.49h5.35zM99.42 229.76v2.58l-2.12.78a3.76 3.76 0 0 1 .44 1.85 4.66 4.66 0 0 1-1.74 3.88 8.38 8.38 0 0 1-5.24 1.38 6.73 6.73 0 0 1-1.37-.11 1.42 1.42 0 0 0-.19.67q0 .4.64.61a5.49 5.49 0 0 0 1.68.21h2.57q5.21 0 5.21 4.39a5 5 0 0 1-2.41 4.4 12.37 12.37 0 0 1-6.79 1.6 9.72 9.72 0 0 1-5.08-1.1 3.51 3.51 0 0 1-1.78-3.17q0-2.78 3.45-3.58a3.09 3.09 0 0 1-1.24-1 2.08 2.08 0 0 1-.13-2.6 5.86 5.86 0 0 1 1.68-1.32 4.12 4.12 0 0 1-1.89-1.67 5.21 5.21 0 0 1-.69-2.76 4.76 4.76 0 0 1 1.72-3.92 7.65 7.65 0 0 1 4.86-1.39q.42 0 1.46.1t1.53.18zm-11.67 17.42a1.2 1.2 0 0 0 .71 1.06 3.85 3.85 0 0 0 1.9.4 8.26 8.26 0 0 0 3.11-.49q1.17-.48 1.17-1.25a.9.9 0 0 0-.71-.87 6.35 6.35 0 0 0-2-.25H89.8a2.54 2.54 0 0 0-1.46.4 1.17 1.17 0 0 0-.59 1zm1.68-12.35q0 2.38 1.65 2.38a1.36 1.36 0 0 0 1.18-.59 3.05 3.05 0 0 0 .42-1.76q0-2.41-1.6-2.41t-1.65 2.38zM111.55 245.25v-8.45a4.85 4.85 0 0 0-.44-2.33 1.52 1.52 0 0 0-1.43-.79 2.07 2.07 0 0 0-2 1.08 8.18 8.18 0 0 0-.6 3.71v6.78h-5.35v-15.49h4l.67 1.91h.31a4.24 4.24 0 0 1 1.89-1.64 6.7 6.7 0 0 1 2.78-.55 5.28 5.28 0 0 1 4 1.49 5.82 5.82 0 0 1 1.43 4.2v10.08zM128 245.52a8.31 8.31 0 0 1-6-2.06 7.75 7.75 0 0 1-2.14-5.86 8.44 8.44 0 0 1 2-6 7.41 7.41 0 0 1 5.66-2.1 7.51 7.51 0 0 1 5.41 1.83 6.94 6.94 0 0 1 1.91 5.26v2.38h-9.56a2.65 2.65 0 0 0 1 2 3.72 3.72 0 0 0 2.44.74 11.79 11.79 0 0 0 2.59-.27 12.83 12.83 0 0 0 2.56-.91v3.84a9.43 9.43 0 0 1-2.6.89 18 18 0 0 1-3.27.26zm-.31-12.4a2.22 2.22 0 0 0-1.58.59 2.79 2.79 0 0 0-.75 1.87H130a2.67 2.67 0 0 0-.64-1.79 2.1 2.1 0 0 0-1.67-.67zM147.19 229.49a7.8 7.8 0 0 1 1.33.11l.3.05-.48 5a7.87 7.87 0 0 0-1.82-.16 3.46 3.46 0 0 0-2.54.8 3.13 3.13 0 0 0-.79 2.3v7.62h-5.35v-15.45h4l.83 2.47h.26a5.35 5.35 0 0 1 1.87-2 4.47 4.47 0 0 1 2.39-.74z"/></g></symbol><symbol id="server" viewBox="0 0 403.7 260.7"><title>server</title><circle cx="88" cy="88" r="88" style="isolation:isolate" fill="#e7832a" opacity=".7"/><circle cx="398.7" cy="255.7" r="5" style="isolation:isolate" fill="#3d3d3d" opacity=".4"/><path style="isolation:isolate" fill="none" stroke="#3d3d3d" stroke-miterlimit="10" opacity=".4" d="M392.7 255.7H241.2M241.2 255.7l-94-89.5"/><g fill="none" stroke="#fff" stroke-miterlimit="10"><path d="M72.5 117.8h-5.7a6.14 6.14 0 0 0-11.8 3.4 6.1 6.1 0 0 0 7.52 4.22h.08a6.31 6.31 0 0 0 4.2-4.2h5.7a6.79 6.79 0 0 0 6.9-6.6V104.4a1.7 1.7 0 0 0-3.4 0v10.2a3.42 3.42 0 0 1-3.5 3.2z" stroke-linecap="round" stroke-width=".75" stroke-dasharray="1.5"/><path d="M60.7 122.2a2.8 2.8 0 0 1-2.9-2.7v-.1a2.9 2.9 0 0 1 5.8-.1v.1a2.82 2.82 0 0 1-2.84 2.8z" stroke-linecap="round" stroke-width=".75" stroke-dasharray="1"/><path d="M98.3 102.6a1.69 1.69 0 0 0-1.7 1.68v10.2a6.72 6.72 0 0 0 6.84 6.6h5.76a6.14 6.14 0 1 0 4.2-7.6 6.31 6.31 0 0 0-4.2 4.2h-5.7a3.44 3.44 0 0 1-3.5-3.3V104.2a1.67 1.67 0 0 0-1.7-1.6z" stroke-linecap="round" stroke-width=".75" stroke-dasharray="1.5"/><path d="M115.3 116.6a2.8 2.8 0 0 1 2.9 2.7v.1a2.9 2.9 0 1 1-5.8.1v-.1a2.82 2.82 0 0 1 2.84-2.8z" stroke-linecap="round" stroke-width=".5" stroke-dasharray="1"/><path d="M90.2 38.4a22.35 22.35 0 0 0-19.4 11.3 10.55 10.55 0 0 0-2.5-.2 12.08 12.08 0 0 0-12.1 12.06 11.53 11.53 0 0 0 .3 2.6 16.65 16.65 0 0 0-7.1 13.7c0 9.1 7.3 17.2 16 17.7h43.3a19.42 19.42 0 0 0 17.8-19.5c0-8.9-6.1-16.9-14.4-19A22.14 22.14 0 0 0 90.2 38.4z" stroke-width="3.5"/><path d="M88 102.6a1.69 1.69 0 0 0-1.7 1.68v21.3a6 6 0 0 0-2.8 10.1 6.81 6.81 0 0 0 4.5 1.9h.2a6.36 6.36 0 0 0 6.4-5.9 6.2 6.2 0 0 0-1.8-4.4 6.57 6.57 0 0 0-2.9-1.7V104.3a1.86 1.86 0 0 0-1.9-1.7z" stroke-linecap="round" stroke-width=".75" stroke-dasharray="1.5"/><path d="M90.9 131.6a2.86 2.86 0 0 1-2.9 2.7h-.1a2.52 2.52 0 0 1-2-.9 2.72 2.72 0 0 1-.05-3.85l.05-.05a3.23 3.23 0 0 1 2.1-.8h.1a2.52 2.52 0 0 1 2 .9 3 3 0 0 1 .8 2z" stroke-linecap="round" stroke-width=".75" stroke-dasharray="1"/></g><g fill="#3d3d3d"><path d="M266.3 224.45l-4.09-14.4h-.12q.29 3.68.29 5.71v8.68h-4.79v-20h7.19l4.22 14.21h.11l4.09-14.19h7.21v20h-5v-8.76-1.52q0-.84.18-4.09h-.12l-4 14.37zM301.63 214q0 5-2.75 7.71t-7.75 2.71h-6.47v-20h6.92q4.81 0 7.43 2.46t2.62 7.12zm-5.61.19a6.35 6.35 0 0 0-1.09-4.07 4 4 0 0 0-3.3-1.33h-1.57V220h1.2a4.36 4.36 0 0 0 3.61-1.43 6.9 6.9 0 0 0 1.13-4.35zM314.25 208.69a7.71 7.71 0 0 1 1.33.11l.3.05-.48 5a7.87 7.87 0 0 0-1.82-.16 3.46 3.46 0 0 0-2.54.8 3.13 3.13 0 0 0-.79 2.3v7.62h-5.35V209h4l.83 2.47h.27a5.35 5.35 0 0 1 1.87-2 4.46 4.46 0 0 1 2.38-.78zM317.93 205.1a2.26 2.26 0 0 1 .67-1.79 4.25 4.25 0 0 1 4.33 0 2.24 2.24 0 0 1 .68 1.78q0 2.35-2.86 2.35t-2.82-2.34zm5.48 19.35h-5.35V209h5.35zM331.2 224.45L325.3 209h5.58l2.63 9.16.05.23q0 .16.08.39c0 .15.05.31.08.48a3.6 3.6 0 0 1 0 .47h.1a5.48 5.48 0 0 1 .25-1.54l2.75-9.19h5.56l-5.91 15.49zM351.72 224.72a8.31 8.31 0 0 1-6-2.06 7.75 7.75 0 0 1-2.14-5.86 8.44 8.44 0 0 1 2-6 7.41 7.41 0 0 1 5.66-2.1 7.51 7.51 0 0 1 5.41 1.83 6.94 6.94 0 0 1 1.91 5.26v2.38H349a2.65 2.65 0 0 0 1 2 3.72 3.72 0 0 0 2.44.74 11.79 11.79 0 0 0 2.59-.27 12.83 12.83 0 0 0 2.56-.91v3.84a9.43 9.43 0 0 1-2.6.89 18 18 0 0 1-3.27.26zm-.31-12.4a2.22 2.22 0 0 0-1.58.59 2.79 2.79 0 0 0-.75 1.87h4.59A2.67 2.67 0 0 0 353 213a2.1 2.1 0 0 0-1.59-.68zM371.33 224.45V216a4.85 4.85 0 0 0-.44-2.33 1.52 1.52 0 0 0-1.43-.79 2.07 2.07 0 0 0-2 1.08 8.18 8.18 0 0 0-.6 3.71v6.78h-5.35V209h4l.67 1.91h.31a4.23 4.23 0 0 1 1.89-1.64 6.69 6.69 0 0 1 2.78-.55 5.28 5.28 0 0 1 4 1.49 5.82 5.82 0 0 1 1.43 4.2v10.08zM285.1 241.38a5.9 5.9 0 0 1-.94 3.3 6.18 6.18 0 0 1-2.72 2.24 10.09 10.09 0 0 1-4.17.8 16.89 16.89 0 0 1-3.35-.28 12.41 12.41 0 0 1-2.82-1v-4.81a16.06 16.06 0 0 0 3.21 1.24 12 12 0 0 0 3.06.44 3 3 0 0 0 1.76-.42 1.28 1.28 0 0 0 .56-1.07 1.18 1.18 0 0 0-.23-.72 2.64 2.64 0 0 0-.72-.62q-.5-.31-2.66-1.29a12.77 12.77 0 0 1-2.93-1.72 5.28 5.28 0 0 1-1.45-1.91 6.35 6.35 0 0 1-.47-2.56 5.12 5.12 0 0 1 2-4.31 8.86 8.86 0 0 1 5.52-1.54 15.5 15.5 0 0 1 6.33 1.44l-1.65 4.17a12 12 0 0 0-4.84-1.29 2.52 2.52 0 0 0-1.53.37 1.12 1.12 0 0 0-.48.92 1.32 1.32 0 0 0 .61 1.05 23.19 23.19 0 0 0 3.3 1.7 9.13 9.13 0 0 1 3.59 2.5 5.42 5.42 0 0 1 1.02 3.37zM295.36 247.72a8.31 8.31 0 0 1-6-2.06 7.75 7.75 0 0 1-2.14-5.86 8.44 8.44 0 0 1 2-6 7.41 7.41 0 0 1 5.66-2.1 7.51 7.51 0 0 1 5.41 1.83 6.94 6.94 0 0 1 1.91 5.26v2.38h-9.56a2.65 2.65 0 0 0 1 2 3.72 3.72 0 0 0 2.44.74 11.79 11.79 0 0 0 2.59-.27 12.83 12.83 0 0 0 2.56-.91v3.84a9.43 9.43 0 0 1-2.6.89 18 18 0 0 1-3.27.26zm-.31-12.4a2.22 2.22 0 0 0-1.58.59 2.79 2.79 0 0 0-.75 1.87h4.59a2.67 2.67 0 0 0-.64-1.79 2.1 2.1 0 0 0-1.67-.67zM314.54 231.69a7.71 7.71 0 0 1 1.33.11l.3.05-.48 5a7.87 7.87 0 0 0-1.82-.16 3.46 3.46 0 0 0-2.54.8 3.13 3.13 0 0 0-.79 2.3v7.62h-5.35V232h4l.83 2.47h.26a5.35 5.35 0 0 1 1.87-2 4.46 4.46 0 0 1 2.39-.78zM322.38 247.45l-5.9-15.45h5.58l2.63 9.16.05.23q0 .16.08.39c0 .15.05.31.08.48a3.6 3.6 0 0 1 0 .47h.1a5.48 5.48 0 0 1 .25-1.54L328 232h5.56l-5.91 15.49zM342.91 247.72a8.31 8.31 0 0 1-6-2.06 7.75 7.75 0 0 1-2.14-5.86 8.44 8.44 0 0 1 2-6 7.41 7.41 0 0 1 5.66-2.1 7.51 7.51 0 0 1 5.41 1.83 6.94 6.94 0 0 1 1.91 5.26v2.38h-9.56a2.65 2.65 0 0 0 1 2 3.72 3.72 0 0 0 2.44.74 11.79 11.79 0 0 0 2.59-.27 12.83 12.83 0 0 0 2.56-.91v3.84a9.43 9.43 0 0 1-2.6.89 18 18 0 0 1-3.27.26zm-.31-12.4a2.22 2.22 0 0 0-1.58.59 2.79 2.79 0 0 0-.75 1.87h4.59a2.67 2.67 0 0 0-.64-1.79 2.1 2.1 0 0 0-1.63-.67zM362.09 231.69a7.71 7.71 0 0 1 1.33.11l.3.05-.48 5a7.87 7.87 0 0 0-1.82-.16 3.46 3.46 0 0 0-2.54.8 3.13 3.13 0 0 0-.79 2.3v7.62h-5.35V232h4l.83 2.47h.26a5.35 5.35 0 0 1 1.87-2 4.46 4.46 0 0 1 2.39-.78z"/></g></symbol><symbol id="turnkey" viewBox="0 0 404.5 257"><title>turnkey</title><g fill="#3d3d3d" stroke="#3d3d3d" stroke-miterlimit="10"><path d="M24.9 25.5L19.5 7.1h-.1q.3 5.55.3 7.5v10.9h-4.3V2h6.5l5.4 17.9h.1L33 2h6.5v23.5H35V12.6c0-.7.1-2.5.2-5.5h-.1l-5.8 18.4zM64 13.5c0 3.9-1.1 6.8-3.2 8.9s-5.2 3.1-9.2 3.1h-6.4V2h7.1c3.7 0 6.6 1 8.6 3S64 9.9 64 13.5zm-5 .1c0-5-2.1-7.6-6.4-7.6H50v15.3h2.1c4.6.1 6.9-2.5 6.9-7.7zM77.9 7.2a7.59 7.59 0 0 1 1.6.1l-.4 4.6a5.21 5.21 0 0 0-1.4-.2 4.79 4.79 0 0 0-3.5 1.2 4.59 4.59 0 0 0-1.3 3.4v9.2h-4.7v-18h3.6l.7 3h.2a6.36 6.36 0 0 1 2.2-2.4 5.79 5.79 0 0 1 3-.9zM82.5 2.9c0-1.6.8-2.4 2.5-2.4s2.6.8 2.6 2.4a2.44 2.44 0 0 1-.6 1.8 2.71 2.71 0 0 1-1.9.6c-1.8 0-2.6-.8-2.6-2.4zm4.9 22.6h-4.7v-18h4.7zM96.5 25.5l-6.6-18h4.9l3.3 10.2a17.15 17.15 0 0 1 .7 3.7h.1a21.32 21.32 0 0 1 .7-3.7L103 7.5h4.9l-6.6 18zM118.2 25.8a8.53 8.53 0 0 1-6.5-2.4 9.25 9.25 0 0 1-2.4-6.8c0-3 .7-5.3 2.2-7a7.75 7.75 0 0 1 6-2.5 7.39 7.39 0 0 1 5.7 2.2c1.4 1.4 2 3.4 2 6v2.4H114a4.9 4.9 0 0 0 1.2 3.3 4 4 0 0 0 3.1 1.2 15.26 15.26 0 0 0 3-.3 11.48 11.48 0 0 0 2.9-1.1v3.7a20 20 0 0 1-2.6 1 16.5 16.5 0 0 1-3.4.3zm-.7-15.1a3 3 0 0 0-2.4 1 4.71 4.71 0 0 0-1 2.8h6.6a4.1 4.1 0 0 0-.9-2.8 2.64 2.64 0 0 0-2.3-1zM145 25.5h-4.7V15a4.6 4.6 0 0 0-.7-2.9 2.39 2.39 0 0 0-2.1-1 3.3 3.3 0 0 0-2.9 1.4 8.6 8.6 0 0 0-.9 4.6v8.4H129v-18h3.6l.6 2.3h.3a4.78 4.78 0 0 1 2.2-2 7.83 7.83 0 0 1 3.1-.7 6.19 6.19 0 0 1 4.6 1.7 7.2 7.2 0 0 1 1.6 4.9v11.8zM26.2 54.2h-4.8V34.9h-6.1v-4.1h17.1v4.1h-6.1v19.3zM47.7 54.2l-.7-2.3h-.2a4.84 4.84 0 0 1-2.1 1.9 6.57 6.57 0 0 1-3.2.7 6 6 0 0 1-4.6-1.7 7.18 7.18 0 0 1-1.5-4.9V36.3H40v10.5a4.6 4.6 0 0 0 .7 2.9 2.39 2.39 0 0 0 2.1 1 3.3 3.3 0 0 0 2.9-1.4 8.6 8.6 0 0 0 .9-4.6v-8.4h4.7v17.9zM65.9 36a7.59 7.59 0 0 1 1.6.1l-.4 4.6a5.21 5.21 0 0 0-1.4-.2 4.79 4.79 0 0 0-3.5 1.2 4.59 4.59 0 0 0-1.3 3.4v9.1h-4.7V36.3h3.6l.7 3h.2a6.36 6.36 0 0 1 2.2-2.4 5.29 5.29 0 0 1 3-.9zM86.6 54.2h-4.7V43.8a4.6 4.6 0 0 0-.7-2.9 2.39 2.39 0 0 0-2.1-1 3.3 3.3 0 0 0-2.9 1.4 8.6 8.6 0 0 0-.9 4.6v8.4h-4.7v-18h3.6l.6 2.3h.3a4.78 4.78 0 0 1 2.2-2 7.83 7.83 0 0 1 3.1-.7 6.19 6.19 0 0 1 4.6 1.7 7.2 7.2 0 0 1 1.6 4.9zM96 44.5l2.1-2.7 4.8-5.5h5.3l-6.9 7.8 7.3 10.2h-5.4l-5-7.3-2 1.7v5.6h-4.7v-25h4.7v11.1l-.2 4.1zM118.9 54.6a8.53 8.53 0 0 1-6.5-2.4 9.25 9.25 0 0 1-2.4-6.8c0-3 .7-5.3 2.2-7a7.75 7.75 0 0 1 6-2.5 7.39 7.39 0 0 1 5.7 2.2c1.4 1.4 2 3.4 2 6v2.4h-11.2a4.9 4.9 0 0 0 1.2 3.3A4 4 0 0 0 119 51a15.26 15.26 0 0 0 3-.3 11.48 11.48 0 0 0 2.9-1.1v3.8a20 20 0 0 1-2.6 1 31.14 31.14 0 0 1-3.4.2zm-.7-15.2a3 3 0 0 0-2.4 1 4.71 4.71 0 0 0-1 2.8h6.6a4.1 4.1 0 0 0-.9-2.8 2.93 2.93 0 0 0-2.3-1zM127.3 36.3h5.2l3.3 10.1a13.12 13.12 0 0 1 .6 3.1h.1a10.76 10.76 0 0 1 .7-3.1l3.2-10.1h5.1L138 56.5a8.34 8.34 0 0 1-2.9 4.2 7.22 7.22 0 0 1-4.4 1.4 9.86 9.86 0 0 1-2.4-.3v-3.9a11.08 11.08 0 0 0 1.9.2 3.49 3.49 0 0 0 2.2-.8 5.51 5.51 0 0 0 1.5-2.4l.3-.9z"/></g><circle cx="316.5" cy="169" r="88" style="isolation:isolate" fill="#e57512" opacity=".8"/><circle cx="5" cy="62.5" r="5" style="isolation:isolate" fill="#3d3d3d" opacity=".4"/><path style="isolation:isolate" fill="none" stroke="#3d3d3d" stroke-miterlimit="10" opacity=".4" d="M11.5 63H158M158 63l81.5 47"/><path d="M307.2 166.4zM311.4 161.3c-1.2-5.4-.8-7.3 0-7.7s1.8.5 2.6 0c1-.7.3-3.5 0-4.4-3-10.8-2.4-14.6-4.4-14.9-1.6-.3-3.7 1.7-3.7 3.3s2.4 2.6 4.1 3.3a17.45 17.45 0 0 0 12.7 0c1.7-.7 3.7-1.5 4-3s-1.7-3.8-3.1-3.6c-2.1.3-1.3 5.7-4 15.2-.2.8-1 3.4 0 4.2.8.6 1.9-.4 2.6.1 1.3 1-2.3 5.9-.8 7.6a2.58 2.58 0 0 0 3.4 0c.9-1.1-.7-3.1.4-4.5.5-.7 1.4-.8 1.6-1 5.3-3.5 10.6-10.2 11.1-17.3.8-10.3-8.5-23.4-22-23.1-11.8.3-20.8 10.7-20.8 21.5s9 17.3 10 18M305 154.9c.7.4 1.4.9 2.2 1.3" fill="none" stroke="#fff" stroke-linecap="round" stroke-linejoin="round" stroke-width="1.5" stroke-dasharray="2.5"/><path d="M313.5 209.9l-3.1 3.6a2 2 0 0 0 .1 2.8l6 6.2v-45.2a1.22 1.22 0 0 1 1.2-1.2h4.6a2.48 2.48 0 0 1 2.5 2.5l-.2 38.1a.91.91 0 0 1-.3.7l-4.5 4.9v-39.6" fill="none" stroke="#fff" stroke-linecap="round" stroke-linejoin="round" stroke-width="2"/><path d="M307.2 166.3h18v3.8a1.32 1.32 0 0 1-1.3 1.3h-15.6a1.32 1.32 0 0 0-1.3 1.3v2.1a1.32 1.32 0 0 0 1.3 1.3 1.32 1.32 0 0 1 1.3 1.3v2.1a5.42 5.42 0 0 0 .6 2.5l1.5 2.9a1.48 1.48 0 0 1 0 1.3l-3.1 4.6a1.57 1.57 0 0 0 .2 1.6l2.9 4.3a1.39 1.39 0 0 1 0 1.9l-2.9 3.8a1.39 1.39 0 0 0 0 1.9l4.6 5.4" fill="none" stroke="#fff" stroke-linecap="round" stroke-linejoin="round" stroke-width="2"/></symbol><path id="a" d="M51 166.326c-41.24 0-74.671 33.432-74.671 74.671 0 18.148 6.857 31.82 9.38 36.262 12.673 22.304 37.918 38.712 65.291 38.41 37.049-.41 74.671-31.396 74.671-74.671 0-41.241-33.431-74.672-74.671-74.672z"/><symbol id="hololense" viewBox="0 0 149.4 149.4"><path d="M74.7 0A74.64 74.64 0 0 0 0 74.7 75.79 75.79 0 0 0 9.4 111c12.6 22.3 37.9 38.7 65.3 38.4 37-.4 74.7-31.4 74.7-74.7A74.77 74.77 0 0 0 74.7 0z" stroke="none" /><path d="M74.3 55.8s47.9-3.3 57.8 9.3c.8 1 .3 5 .3 5-6.9-7.6-18.4-9.2-28.9-10.1a196.65 196.65 0 0 0-30.7 0 43.54 43.54 0 0 1 1.5-4.2zM24.1 85.1c0-2 9.2-5.1 9.2-5.1s11.4 1.9 15.3 2.3c5.2.5 18.2 1 18 1a2 2 0 0 1 1.6 1.2c.4 1 .9 2.6 1.4 4 .9 2.3 2.9 4.5 2.3 4.7-8.6 2.9-47.9-1.4-47.8-8.1z" fill="none" stroke-miterlimit="10" stroke-width="1.5"/><path d="M69.6 56.3a53.3 53.3 0 0 0-2.7 15.6 1 1 0 0 1-.9.7 86.7 86.7 0 0 0-23.6 1.6c-4.8 1-22.1 4.6-22.4 10.5-.1 1.4 1.7 4.9 9.7 8.7C24 92 19.8 91.1 17 87.6c0-5.3-.6-10.6 0-15.9.3-2.3 2.4-3.7 3.4-4.3C37.6 57 69.6 56.3 69.6 56.3zM114.9 100.8a2.38 2.38 0 0 1-.3-1.2c-.1-.7.1-3.2-1.4-3.6a5 5 0 0 0-2.7.7 25.34 25.34 0 0 1-2.7 1.8 10 10 0 0 1-3.6 1.2c-3 .2-24.2-2.7-27.6-8.6-6.1-10.8-3.7-23.3-2.9-26.8a1.17 1.17 0 0 1 1.1-.9c4.5-.1 25-.3 32.1.7 6.8 1 21.8 3.3 23.9 9.3 3 8.4-9.4 27.1-14.1 28.1a3.76 3.76 0 0 1-1.8-.7z" fill="none" stroke-miterlimit="10" stroke-width="1.5"/></symbol><symbol id="mobile_native" viewBox="-24 166 150 150"><path style="stroke:none;" d="M51 166.327c-41.24 0-74.671 33.432-74.671 74.671 0 18.148 6.857 31.82 9.38 36.262C-1.618 299.564 23.627 315.972 51 315.67c37.049-.41 74.671-31.396 74.671-74.671 0-41.241-33.431-74.672-74.671-74.672z"/><clipPath id="b"><use xlink:href="#a" overflow="visible"/></clipPath><g fill="none" clip-path="url(#b)"><path d="M18.935 201.426c4.155-4.446 6.964-10.619 6.195-16.776-5.984.214-13.237 3.513-17.532 7.959-3.851 3.936-7.221 10.228-6.321 16.262 6.677.453 13.499-3.004 17.658-7.445zM31.679 243.94c-.128-13.801 10.928-20.429 11.416-20.75-6.214-9.372-15.892-10.655-19.34-10.799-8.242-.865-16.069 4.992-20.253 4.992-4.167 0-10.614-4.877-17.449-4.748-8.987.148-17.266 5.382-21.882 13.675-9.334 16.683-2.392 41.398 6.704 54.929 4.448 6.626 9.741 14.056 16.695 13.788 6.711-.268 9.24-4.463 17.338-4.463 8.101 0 10.368 4.463 17.456 4.328 7.211-.133 11.773-6.752 16.183-13.398 5.101-7.682 7.204-15.121 7.325-15.496-.157-.091-14.045-5.554-14.193-22.058z"/></g><g fill="none" clip-path="url(#b)"><path d="M116.55 295.471c3.678 0 6.886-3.208 6.886-6.886v-16.081h4.598c2.759 0 4.598-1.839 4.598-4.598v-45.93h-55.13v45.931c0 2.759 1.839 4.598 4.598 4.598h4.598v16.081c0 3.678 3.207 6.886 6.886 6.886 3.678 0 6.885-3.208 6.885-6.886v-16.081h9.196v16.081c-.001 3.677 3.207 6.885 6.885 6.885zM144.115 267.906c3.678 0 6.885-3.207 6.885-6.886v-32.162c0-3.659-3.207-6.883-6.885-6.883-3.679 0-6.886 3.224-6.886 6.883v32.162c0 3.679 3.207 6.886 6.886 6.886zM66.018 267.906c3.679 0 6.886-3.207 6.886-6.886v-32.162c0-3.659-3.207-6.883-6.886-6.883-3.678 0-6.885 3.224-6.885 6.883v32.162c0 3.679 3.207 6.886 6.885 6.886zM127.113 186.157c-.919-.925-2.288-.925-3.207 0l-6.167 6.146-.284.284c-3.657-1.831-7.756-2.745-12.322-2.754l-.067-.001h-.001l-.068.001c-4.565.009-8.665.923-12.321 2.754l-.285-.284-6.166-6.146c-.92-.925-2.288-.925-3.207 0-.92.92-.92 2.285 0 3.204l5.965 5.966a24.863 24.863 0 0 0-5.181 4.65c-3.629 4.301-5.943 9.899-6.261 15.964l-.012.189c-.019.413-.029.828-.029 1.245h55.129c0-.417-.01-.832-.029-1.245-.003-.063-.009-.126-.013-.189-.318-6.065-2.633-11.663-6.261-15.963a24.838 24.838 0 0 0-5.181-4.65l5.966-5.966c.922-.92.922-2.285.002-3.205zm-33.538 23.19a3.444 3.444 0 1 1 0-6.888 3.444 3.444 0 0 1 0 6.888zm22.983 0a3.444 3.444 0 1 1 0-6.888 3.444 3.444 0 0 1 0 6.888z"/></g></symbol><symbol id="sql" viewBox="0 0 150 150"><path style="stroke:none;" d="M75 .327C33.76.327.329 33.759.329 74.998c0 18.148 6.857 31.82 9.38 36.262C22.382 133.564 47.627 149.972 75 149.67c37.049-.41 74.671-31.396 74.671-74.671C149.671 33.758 116.24.327 75 .327z"/><g fill="none"><path d="M75.854 79.978c-14.526 0-26.705-4.261-30.024-10.024-.592 1.021-.929 2.066-.929 3.164v9.415c0 7.27 13.868 13.184 30.953 13.184 17.111 0 30.98-5.914 30.98-13.184v-9.415c0-1.098-.347-2.142-.942-3.164-3.32 5.763-15.482 10.024-30.038 10.024z"/><path d="M75.854 99.437c-14.526 0-26.705-4.275-30.024-10.02-.592 1.008-.929 2.066-.929 3.151v9.428c0 7.283 13.868 13.171 30.953 13.171 17.111 0 30.98-5.888 30.98-13.171v-9.428c0-1.084-.347-2.142-.942-3.151-3.32 5.745-15.482 10.02-30.038 10.02zM105.984 51.127c-.608 5.323-13.832 9.594-30.13 9.594-16.282 0-29.505-4.271-30.113-9.594-.529.969-.84 1.977-.84 3.008v9.429c0 7.27 13.868 13.171 30.953 13.171 17.111 0 30.98-5.888 30.98-13.171v-9.429c-.001-1.031-.321-2.039-.85-3.008z"/><path d="M75.854 57.726c16.672 0 30.18-4.453 30.18-9.967 0-5.501-13.508-9.971-30.18-9.971-16.658 0-30.166 4.47-30.166 9.971-.001 5.514 13.507 9.967 30.166 9.967z"/></g></symbol><symbol id="web_app" viewBox="0 0 150 150"><path style="stroke:none;" d="M75 .327C33.76.327.329 33.759.329 74.998c0 18.148 6.857 31.82 9.38 36.262C22.382 133.564 47.627 149.972 75 149.67c37.049-.41 74.671-31.396 74.671-74.671C149.671 33.758 116.24.327 75 .327z"/><path d="M49.849 44.612a2.083 2.083 0 0 1-2.076 2.076 2.085 2.085 0 0 1-2.083-2.076c0-1.148.935-2.083 2.083-2.083 1.141 0 2.076.935 2.076 2.083zM55.049 44.612c0-1.148.935-2.083 2.083-2.083a2.08 2.08 0 0 1 0 4.159 2.083 2.083 0 0 1-2.083-2.076zM64.408 44.612c0-1.148.935-2.083 2.083-2.083s2.083.935 2.083 2.083a2.083 2.083 0 1 1-4.166 0zM65.367 61.839h9.895a3.251 3.251 0 0 1 3.251 3.251v9.895a3.251 3.251 0 0 1-3.251 3.251h-9.895a3.251 3.251 0 0 1-3.251-3.251V65.09a3.25 3.25 0 0 1 3.251-3.251zM92.689 89.161h9.895a3.251 3.251 0 0 1 3.251 3.251v9.895a3.251 3.251 0 0 1-3.251 3.251h-9.895a3.251 3.251 0 0 1-3.251-3.251v-9.895a3.251 3.251 0 0 1 3.251-3.251zM65.367 89.161h9.895a3.251 3.251 0 0 1 3.251 3.251v9.895a3.251 3.251 0 0 1-3.251 3.251h-9.895a3.251 3.251 0 0 1-3.251-3.251v-9.895a3.251 3.251 0 0 1 3.251-3.251zM92.689 61.839h9.895a3.251 3.251 0 0 1 3.251 3.251v9.895a3.251 3.251 0 0 1-3.251 3.251h-9.895a3.251 3.251 0 0 1-3.251-3.251V65.09a3.25 3.25 0 0 1 3.251-3.251z" fill="none"/><path d="M34.794 34.517v79.415a2.552 2.552 0 0 0 2.552 2.552h11.293a2.552 2.552 0 0 0 2.552-2.552V53.465a2.552 2.552 0 0 0-2.552-2.552l-6.898-.153a2.552 2.552 0 0 1-2.552-2.552V39.65c0-1.409 1.142-1.179 2.552-1.179l67.634.153c1.409 0 2.552-.23 2.552 1.179v8.558a2.552 2.552 0 0 1-2.552 2.552H58.403a2.552 2.552 0 0 0-2.552 2.552v60.466a2.552 2.552 0 0 0 2.552 2.552h55.805a2.552 2.552 0 0 0 2.552-2.552V34.517a2.552 2.552 0 0 0-2.552-2.552H37.346a2.551 2.551 0 0 0-2.552 2.552z" fill="none"/><path d="M40.507 59.103h5.263c.727 0 1.318.642 1.318 1.428 0 .788-.591 1.428-1.318 1.428h-5.263c-.725 0-1.318-.64-1.318-1.428 0-.786.593-1.428 1.318-1.428zM40.507 71.686h5.263c.727 0 1.318.642 1.318 1.428 0 .788-.591 1.428-1.318 1.428h-5.263c-.725 0-1.318-.64-1.318-1.428 0-.786.593-1.428 1.318-1.428zM40.507 84.269h5.263c.727 0 1.318.642 1.318 1.428 0 .788-.591 1.428-1.318 1.428h-5.263c-.725 0-1.318-.64-1.318-1.428 0-.786.593-1.428 1.318-1.428z" fill="none"/></symbol><symbol id="windows" viewBox="0 0 150 150"><path style="stroke:none;" d="M75 .327C33.76.327.329 33.759.329 74.998c0 18.148 6.857 31.82 9.38 36.262C22.382 133.564 47.627 149.972 75 149.67c37.049-.41 74.671-31.396 74.671-74.671C149.671 33.758 116.24.327 75 .327z"/><g fill="none"><path d="M64.241 41.319c0-2.212-2.169-3.759-4.354-3.437l-27.665 3.984c-2.18.322-4.27 2.393-4.27 4.6v21.548c0 2.21 2.032 4.115 4.241 4.115h27.269c2.209 0 4.779-1.905 4.779-4.115V41.319zM32.192 77.754c-2.209 0-4.241 2.111-4.241 4.323v21.916c0 2.21 1.902 4.283 4.082 4.605l27.795 4.044c2.186.318 4.413-1.226 4.413-3.438V82.077c0-2.212-2.57-4.323-4.779-4.323h-27.27zM69.864 109.712c0 2.205 1.607 4.276 3.792 4.598l40.648 6c2.18.322 3.946-1.223 3.946-3.426V82.077c0-2.212-1.937-4.323-4.147-4.323H73.515c-2.203 0-3.651 2.111-3.651 4.323v27.635zM69.864 67.923c0 2.212 1.448 4.323 3.651 4.323h40.589c2.209 0 4.147-2.111 4.147-4.323V33.117c0-2.203-1.766-3.748-3.946-3.426l-40.648 6c-2.185.322-3.792 2.393-3.792 4.598v27.634z"/></g></symbol></svg>