<?xml version="1.0" encoding="iso-8859-1"?>
<!-- Generator: Adobe Illustrator 21.1.0, SVG Export Plug-In . SVG Version: 6.00 Build 0)  -->
<svg version="1.1" id="Layer_1" xmlns="http://www.w3.org/2000/svg" xmlns:xlink="http://www.w3.org/1999/xlink" x="0px" y="0px"
	 viewBox="0 0 150 150" style="enable-background:new 0 0 150 150;" xml:space="preserve">
<path style="fill:#F6F6F6;" d="M75,0.327c-41.24,0-74.671,33.432-74.671,74.671c0,18.148,6.857,31.82,9.38,36.262
	C22.382,133.564,47.627,149.972,75,149.67c37.049-0.41,74.671-31.396,74.671-74.671C149.671,33.758,116.24,0.327,75,0.327z"/>
<path style="fill:none;stroke:#F59C1A;stroke-width:2;stroke-miterlimit:10;" d="M70.869,45.609"/>
<path style="fill:none;stroke:#F59C1A;stroke-width:2;stroke-miterlimit:10;" d="M42.902,77.403"/>
<path style="fill:none;stroke:#F59C1A;stroke-width:2;stroke-miterlimit:10;" d="M75.777,105.291"/>
<path style="fill:none;stroke:#F59C1A;stroke-width:2;stroke-miterlimit:10;" d="M75.777,44.709"/>
<path style="fill:none;" d="M75,0.326c-41.24,0-74.671,33.432-74.671,74.671c0,18.148,6.857,31.82,9.38,36.262
	c12.673,22.304,37.918,38.712,65.291,38.41c37.049-0.41,74.671-31.396,74.671-74.671C149.671,33.757,116.24,0.326,75,0.326z"/>
<g>
	
		<image style="overflow:visible;opacity:0.75;" width="226" height="156" xlink:href="2BDCD1ED.png"  transform="matrix(1 0 0 1 -38 0)">
	</image>
	<g>
		<g>
			<g>
				<g>
					<path style="fill:#F59C1A;" d="M16.351,72.422c0,3.279,0,6.559,0,9.838c0,1.385-0.054,2.782,0,4.166
						c0.062,1.572,1.157,2.63,2.433,3.418c3.123,1.929,7.064,2.626,10.624,3.21c0.945,0.155,1.321-1.118,0.399-1.446
						c-2.903-1.033-8.486-3.025-8.38-6.934c0.061-2.262,2.238-3.82,4.011-4.832c3.079-1.758,6.591-2.756,10.02-3.569
						c4.577-1.085,9.247-1.763,13.923-2.238c5.894-0.598,11.821-0.855,17.744-0.863c0.408-0.001,0.747-0.343,0.75-0.75
						c0.048-5.719,1.068-11.336,3.01-16.714c0.158-0.439-0.26-0.984-0.723-0.949c-10.743,0.81-21.53,2.112-32.014,4.653
						c-3.822,0.926-7.625,2.021-11.27,3.508c-2.62,1.069-5.229,2.317-7.426,4.126C17.811,68.394,16.384,70.21,16.351,72.422
						c-0.014,0.966,1.486,0.966,1.5,0c0.025-1.712,1.218-3.087,2.455-4.145c2.018-1.726,4.53-2.915,6.97-3.911
						c7.682-3.136,16.013-4.756,24.18-6.018c6.203-0.958,12.448-1.618,18.705-2.089c-0.241-0.316-0.482-0.633-0.723-0.949
						c-1.986,5.497-3.015,11.269-3.064,17.113c0.25-0.25,0.5-0.5,0.75-0.75c-10.983,0.014-22.245,0.687-32.936,3.366
						c-3.575,0.896-7.316,2.021-10.423,4.068c-1.942,1.28-3.842,3.16-3.841,5.649c0.001,4.708,5.845,7.004,9.483,8.299
						c0.133-0.482,0.266-0.964,0.399-1.446c-3.145-0.516-6.46-1.128-9.342-2.553c-1.144-0.566-2.552-1.329-2.614-2.739
						c-0.148-3.387,0-6.813,0-10.202c0-1.231,0-2.461,0-3.692C17.851,71.456,16.351,71.455,16.351,72.422z"/>
				</g>
			</g>
			<g>
				<g>
					<path style="fill:#F59C1A;" d="M23.497,84.754c0.035,1.202,1.074,2.062,1.987,2.687c1.697,1.162,3.714,1.899,5.653,2.539
						c7.444,2.454,15.442,3.376,23.225,3.923c6.017,0.423,12.111-0.005,18.12-0.47c0.656-0.051,0.979-0.779,0.53-1.28
						c-2.423-2.706-3.463-5.828-4.095-9.359c-0.057-0.32-0.416-0.551-0.723-0.551c-9.23,0-18.426-0.687-27.527-2.256
						c-1.189-0.205-2.376-0.424-3.56-0.656c-1.012-0.199-2.209-0.66-3.236-0.584c-0.967,0.072-2.103,0.61-3.027,0.928
						c-0.901,0.31-1.791,0.652-2.664,1.034C26.574,81.411,23.62,82.644,23.497,84.754c-0.056,0.964,1.444,0.961,1.5,0
						c0.037-0.646,1.097-1.235,1.561-1.527c1.335-0.841,2.817-1.445,4.299-1.972c0.926-0.329,1.973-0.786,2.95-0.934
						c1.039-0.157,2.344,0.347,3.377,0.547c2.211,0.427,4.431,0.806,6.659,1.138c8.07,1.201,16.196,1.736,24.353,1.736
						c-0.241-0.184-0.482-0.367-0.723-0.551c0.682,3.81,1.877,7.112,4.481,10.021c0.177-0.427,0.354-0.854,0.53-1.28
						c-2.463,0.191-4.929,0.328-7.397,0.44c-2.544,0.115-5.138,0.35-7.682,0.217c-4.539-0.237-9.075-0.639-13.572-1.31
						c-5.453-0.814-11.398-1.797-16.34-4.392c-0.675-0.355-1.366-0.744-1.923-1.273c-0.183-0.173-0.323-0.314-0.437-0.503
						c-0.093-0.154-0.135-0.323-0.136-0.358C24.969,83.791,23.469,83.787,23.497,84.754z"/>
				</g>
			</g>
			<g>
				<g>
					<path style="fill:#F59C1A;" d="M93.567,58.269c-6.653,0.001-13.32-0.003-19.964,0.389c0.241,0.316,0.482,0.633,0.723,0.949
						c0.433-1.321,0.543-2.741,1.006-4.052c-0.241,0.184-0.482,0.367-0.723,0.551c5.809-0.344,11.633-0.236,17.448-0.223
						c5.611,0.012,11.206,0.242,16.778,0.937c4.639,0.579,9.283,1.435,13.747,2.845c2.823,0.891,5.986,1.992,8.194,4.054
						c1.781,1.664,1.373,3.663,1.373,5.923c0.491-0.066,0.982-0.133,1.473-0.199c-1.173-3.303-5.347-5.021-8.325-6.197
						c-5.803-2.293-12.063-3.452-18.236-4.188C102.583,58.522,98.076,58.278,93.567,58.269c-0.965-0.002-0.967,1.498,0,1.5
						c8.729,0.018,17.571,0.853,26.009,3.171c2.927,0.804,5.86,1.777,8.533,3.236c1.497,0.817,3.46,1.952,4.067,3.664
						c0.273,0.77,1.473,0.686,1.473-0.199c0-2.037,0.365-4.238-0.913-5.978c-1.634-2.225-4.467-3.478-6.954-4.46
						c-4.254-1.678-8.789-2.654-13.293-3.37c-5.577-0.886-11.223-1.33-16.868-1.429c-6.987-0.123-14.034-0.213-21.012,0.201
						c-0.352,0.021-0.607,0.222-0.723,0.551c-0.462,1.312-0.572,2.732-1.006,4.053c-0.146,0.446,0.25,0.977,0.723,0.949
						c6.644-0.391,13.31-0.388,19.964-0.389C94.532,59.769,94.533,58.269,93.567,58.269z"/>
				</g>
			</g>
			<g>
				<g>
					<path style="fill:#F59C1A;" d="M73.755,73.516c0.024-3.423,0.438-6.799,1.244-10.127c-0.241,0.184-0.482,0.367-0.723,0.551
						c13.02-0.601,26.25-0.763,39.113,1.634c4.369,0.814,8.887,1.849,12.882,3.857c1.236,0.621,2.478,1.346,3.438,2.358
						c0.29,0.306,0.758,0.788,0.851,1.216c0.134,0.616-0.205,1.622-0.318,2.248c-0.147,0.818-0.314,1.633-0.502,2.443
						c-1.326,5.711-3.687,11.16-6.968,16.02c-0.772,1.143-1.591,2.254-2.462,3.322c-0.843,1.034-2.044,2.998-3.522,2.987
						c-2.055-0.015-0.769-3.393-1.89-4.517c-1.548-1.552-4.663-0.073-5.995,1.064c-1.409,1.204-2.595,1.757-4.48,1.75
						c-1.827-0.007-3.658-0.156-5.461-0.454c-3.292-0.544-6.402-1.672-9.554-2.724c-2.805-0.936-5.696-1.745-8.448-2.831
						c-3.082-1.216-4.98-3.778-5.729-6.93C74.304,81.489,73.777,77.52,73.755,73.516c-0.005-0.965-1.505-0.967-1.5,0
						c0.02,3.675,0.457,7.334,1.226,10.926c0.599,2.799,1.471,5.338,3.687,7.275c2.424,2.118,5.817,2.863,8.808,3.861
						c2.657,0.887,5.301,1.833,7.979,2.654c3.451,1.059,7.094,1.607,10.705,1.589c1.401-0.007,2.76-0.3,3.95-1.073
						c1.437-0.934,2.448-2.279,4.332-2.325c1.364-0.033,1.099,1.137,1.099,2.136c0,0.952,0.153,1.753,0.958,2.372
						c2.426,1.866,4.699-0.815,6.123-2.53c3.912-4.712,6.913-10.145,8.842-15.957c0.965-2.907,1.798-6.004,2.079-9.062
						c0.124-1.349-1.058-2.55-2.035-3.356c-2.959-2.441-6.936-3.668-10.578-4.639c-14.605-3.892-30.179-3.639-45.152-2.948
						c-0.323,0.015-0.643,0.222-0.723,0.551c-0.837,3.453-1.272,6.972-1.297,10.525C72.248,74.481,73.748,74.482,73.755,73.516z"/>
				</g>
			</g>
		</g>
	</g>
</g>
</svg>
