<svg xmlns="http://www.w3.org/2000/svg" xmlns:xlink="http://www.w3.org/1999/xlink"><defs><path id="a" d="M51 166.326c-41.24 0-74.671 33.432-74.671 74.671 0 18.148 6.857 31.82 9.38 36.262 12.673 22.304 37.918 38.712 65.291 38.41 37.049-.41 74.671-31.396 74.671-74.671 0-41.241-33.431-74.672-74.671-74.672z"/></defs><symbol id="hololense" viewBox="0 0 150 150"><path d="M75 .327C33.76.327.329 33.759.329 74.998c0 18.148 6.857 31.82 9.38 36.262C22.382 133.564 47.627 149.972 75 149.67c37.049-.41 74.671-31.396 74.671-74.671C149.671 33.758 116.24.327 75 .327z" fill="#f6f6f6"/><path d="M75 .326C33.76.326.329 33.758.329 74.997c0 18.148 6.857 31.82 9.38 36.262 12.673 22.304 37.918 38.712 65.291 38.41 37.049-.41 74.671-31.396 74.671-74.671C149.671 33.757 116.24.326 75 .326z" fill="none"/><path d="M16.351 72.422v9.838c0 1.385-.054 2.782 0 4.166.062 1.572 1.157 2.63 2.433 3.418 3.123 1.929 7.064 2.626 10.624 3.21.945.155 1.321-1.118.399-1.446-2.903-1.033-8.486-3.025-8.38-6.934.061-2.262 2.238-3.82 4.011-4.832 3.079-1.758 6.591-2.756 10.02-3.569 4.577-1.085 9.247-1.763 13.923-2.238 5.894-.598 11.821-.855 17.744-.863a.761.761 0 0 0 .75-.75 50.318 50.318 0 0 1 3.01-16.714c.158-.439-.26-.984-.723-.949-10.743.81-21.53 2.112-32.014 4.653-3.822.926-7.625 2.021-11.27 3.508-2.62 1.069-5.229 2.317-7.426 4.126-1.641 1.348-3.068 3.164-3.101 5.376-.014.966 1.486.966 1.5 0 .025-1.712 1.218-3.087 2.455-4.145 2.018-1.726 4.53-2.915 6.97-3.911 7.682-3.136 16.013-4.756 24.18-6.018 6.203-.958 12.448-1.618 18.705-2.089l-.723-.949a51.566 51.566 0 0 0-3.064 17.113l.75-.75c-10.983.014-22.245.687-32.936 3.366-3.575.896-7.316 2.021-10.423 4.068-1.942 1.28-3.842 3.16-3.841 5.649.001 4.708 5.845 7.004 9.483 8.299l.399-1.446c-3.145-.516-6.46-1.128-9.342-2.553-1.144-.566-2.552-1.329-2.614-2.739-.148-3.387 0-6.813 0-10.202v-3.692c.001-.967-1.499-.968-1.499-.001z" fill="#f59c1a"/><path d="M23.497 84.754c.035 1.202 1.074 2.062 1.987 2.687 1.697 1.162 3.714 1.899 5.653 2.539 7.444 2.454 15.442 3.376 23.225 3.923 6.017.423 12.111-.005 18.12-.47.656-.051.979-.779.53-1.28-2.423-2.706-3.463-5.828-4.095-9.359-.057-.32-.416-.551-.723-.551-9.23 0-18.426-.687-27.527-2.256a159.078 159.078 0 0 1-3.56-.656c-1.012-.199-2.209-.66-3.236-.584-.967.072-2.103.61-3.027.928a35.25 35.25 0 0 0-2.664 1.034c-1.606.702-4.56 1.935-4.683 4.045-.056.964 1.444.961 1.5 0 .037-.646 1.097-1.235 1.561-1.527 1.335-.841 2.817-1.445 4.299-1.972.926-.329 1.973-.786 2.95-.934 1.039-.157 2.344.347 3.377.547 2.211.427 4.431.806 6.659 1.138 8.07 1.201 16.196 1.736 24.353 1.736l-.723-.551c.682 3.81 1.877 7.112 4.481 10.021l.53-1.28c-2.463.191-4.929.328-7.397.44-2.544.115-5.138.35-7.682.217-4.539-.237-9.075-.639-13.572-1.31-5.453-.814-11.398-1.797-16.34-4.392-.675-.355-1.366-.744-1.923-1.273-.183-.173-.323-.314-.437-.503a1.038 1.038 0 0 1-.136-.358c-.028-.962-1.528-.966-1.5.001zM93.567 58.269c-6.653.001-13.32-.003-19.964.389l.723.949c.433-1.321.543-2.741 1.006-4.052l-.723.551c5.809-.344 11.633-.236 17.448-.223 5.611.012 11.206.242 16.778.937 4.639.579 9.283 1.435 13.747 2.845 2.823.891 5.986 1.992 8.194 4.054 1.781 1.664 1.373 3.663 1.373 5.923l1.473-.199c-1.173-3.303-5.347-5.021-8.325-6.197-5.803-2.293-12.063-3.452-18.236-4.188-4.478-.536-8.985-.78-13.494-.789-.965-.002-.967 1.498 0 1.5 8.729.018 17.571.853 26.009 3.171 2.927.804 5.86 1.777 8.533 3.236 1.497.817 3.46 1.952 4.067 3.664.273.77 1.473.686 1.473-.199 0-2.037.365-4.238-.913-5.978-1.634-2.225-4.467-3.478-6.954-4.46-4.254-1.678-8.789-2.654-13.293-3.37-5.577-.886-11.223-1.33-16.868-1.429-6.987-.123-14.034-.213-21.012.201a.783.783 0 0 0-.723.551c-.462 1.312-.572 2.732-1.006 4.053-.146.446.25.977.723.949 6.644-.391 13.31-.388 19.964-.389.965 0 .966-1.5 0-1.5z" fill="#f59c1a"/><path d="M73.755 73.516a44.199 44.199 0 0 1 1.244-10.127l-.723.551c13.02-.601 26.25-.763 39.113 1.634 4.369.814 8.887 1.849 12.882 3.857 1.236.621 2.478 1.346 3.438 2.358.29.306.758.788.851 1.216.134.616-.205 1.622-.318 2.248a48.112 48.112 0 0 1-7.47 18.463 45.911 45.911 0 0 1-2.462 3.322c-.843 1.034-2.044 2.998-3.522 2.987-2.055-.015-.769-3.393-1.89-4.517-1.548-1.552-4.663-.073-5.995 1.064-1.409 1.204-2.595 1.757-4.48 1.75a34.335 34.335 0 0 1-5.461-.454c-3.292-.544-6.402-1.672-9.554-2.724-2.805-.936-5.696-1.745-8.448-2.831-3.082-1.216-4.98-3.778-5.729-6.93-.927-3.894-1.454-7.863-1.476-11.867-.005-.965-1.505-.967-1.5 0 .02 3.675.457 7.334 1.226 10.926.599 2.799 1.471 5.338 3.687 7.275 2.424 2.118 5.817 2.863 8.808 3.861 2.657.887 5.301 1.833 7.979 2.654a36.06 36.06 0 0 0 10.705 1.589c1.401-.007 2.76-.3 3.95-1.073 1.437-.934 2.448-2.279 4.332-2.325 1.364-.033 1.099 1.137 1.099 2.136 0 .952.153 1.753.958 2.372 2.426 1.866 4.699-.815 6.123-2.53a49.346 49.346 0 0 0 8.842-15.957c.965-2.907 1.798-6.004 2.079-9.062.124-1.349-1.058-2.55-2.035-3.356-2.959-2.441-6.936-3.668-10.578-4.639-14.605-3.892-30.179-3.639-45.152-2.948-.323.015-.643.222-.723.551a45.972 45.972 0 0 0-1.297 10.525c-.01.966 1.49.967 1.497.001z" fill="#f59c1a"/></symbol><symbol id="mobile_native" viewBox="-24 166 150 150"><path d="M51 166.327c-41.24 0-74.671 33.432-74.671 74.671 0 18.148 6.857 31.82 9.38 36.262C-1.618 299.564 23.627 315.972 51 315.67c37.049-.41 74.671-31.396 74.671-74.671 0-41.241-33.431-74.672-74.671-74.672z" fill="#f6f6f6"/><clipPath id="b"><use xlink:href="#a" overflow="visible"/></clipPath><g fill="none" stroke="#f59c1a" stroke-width="2" stroke-miterlimit="10" clip-path="url(#b)"><path d="M18.935 201.426c4.155-4.446 6.964-10.619 6.195-16.776-5.984.214-13.237 3.513-17.532 7.959-3.851 3.936-7.221 10.228-6.321 16.262 6.677.453 13.499-3.004 17.658-7.445zM31.679 243.94c-.128-13.801 10.928-20.429 11.416-20.75-6.214-9.372-15.892-10.655-19.34-10.799-8.242-.865-16.069 4.992-20.253 4.992-4.167 0-10.614-4.877-17.449-4.748-8.987.148-17.266 5.382-21.882 13.675-9.334 16.683-2.392 41.398 6.704 54.929 4.448 6.626 9.741 14.056 16.695 13.788 6.711-.268 9.24-4.463 17.338-4.463 8.101 0 10.368 4.463 17.456 4.328 7.211-.133 11.773-6.752 16.183-13.398 5.101-7.682 7.204-15.121 7.325-15.496-.157-.091-14.045-5.554-14.193-22.058z"/></g><g fill="none" stroke="#f59c1a" stroke-width="2" stroke-miterlimit="10" clip-path="url(#b)"><path d="M116.55 295.471c3.678 0 6.886-3.208 6.886-6.886v-16.081h4.598c2.759 0 4.598-1.839 4.598-4.598v-45.93h-55.13v45.931c0 2.759 1.839 4.598 4.598 4.598h4.598v16.081c0 3.678 3.207 6.886 6.886 6.886 3.678 0 6.885-3.208 6.885-6.886v-16.081h9.196v16.081c-.001 3.677 3.207 6.885 6.885 6.885zM144.115 267.906c3.678 0 6.885-3.207 6.885-6.886v-32.162c0-3.659-3.207-6.883-6.885-6.883-3.679 0-6.886 3.224-6.886 6.883v32.162c0 3.679 3.207 6.886 6.886 6.886zM66.018 267.906c3.679 0 6.886-3.207 6.886-6.886v-32.162c0-3.659-3.207-6.883-6.886-6.883-3.678 0-6.885 3.224-6.885 6.883v32.162c0 3.679 3.207 6.886 6.885 6.886zM127.113 186.157c-.919-.925-2.288-.925-3.207 0l-6.167 6.146-.284.284c-3.657-1.831-7.756-2.745-12.322-2.754l-.067-.001h-.001l-.068.001c-4.565.009-8.665.923-12.321 2.754l-.285-.284-6.166-6.146c-.92-.925-2.288-.925-3.207 0-.92.92-.92 2.285 0 3.204l5.965 5.966a24.863 24.863 0 0 0-5.181 4.65c-3.629 4.301-5.943 9.899-6.261 15.964l-.012.189c-.019.413-.029.828-.029 1.245h55.129c0-.417-.01-.832-.029-1.245-.003-.063-.009-.126-.013-.189-.318-6.065-2.633-11.663-6.261-15.963a24.838 24.838 0 0 0-5.181-4.65l5.966-5.966c.922-.92.922-2.285.002-3.205zm-33.538 23.19a3.444 3.444 0 1 1 0-6.888 3.444 3.444 0 0 1 0 6.888zm22.983 0a3.444 3.444 0 1 1 0-6.888 3.444 3.444 0 0 1 0 6.888z"/></g></symbol><symbol id="sql" viewBox="0 0 150 150"><path d="M75 .327C33.76.327.329 33.759.329 74.998c0 18.148 6.857 31.82 9.38 36.262C22.382 133.564 47.627 149.972 75 149.67c37.049-.41 74.671-31.396 74.671-74.671C149.671 33.758 116.24.327 75 .327z" fill="#f6f6f6"/><g fill="none" stroke="#f59c1a" stroke-width="1.75" stroke-miterlimit="10"><path d="M75.854 79.978c-14.526 0-26.705-4.261-30.024-10.024-.592 1.021-.929 2.066-.929 3.164v9.415c0 7.27 13.868 13.184 30.953 13.184 17.111 0 30.98-5.914 30.98-13.184v-9.415c0-1.098-.347-2.142-.942-3.164-3.32 5.763-15.482 10.024-30.038 10.024z"/><path d="M75.854 99.437c-14.526 0-26.705-4.275-30.024-10.02-.592 1.008-.929 2.066-.929 3.151v9.428c0 7.283 13.868 13.171 30.953 13.171 17.111 0 30.98-5.888 30.98-13.171v-9.428c0-1.084-.347-2.142-.942-3.151-3.32 5.745-15.482 10.02-30.038 10.02zM105.984 51.127c-.608 5.323-13.832 9.594-30.13 9.594-16.282 0-29.505-4.271-30.113-9.594-.529.969-.84 1.977-.84 3.008v9.429c0 7.27 13.868 13.171 30.953 13.171 17.111 0 30.98-5.888 30.98-13.171v-9.429c-.001-1.031-.321-2.039-.85-3.008z"/><path d="M75.854 57.726c16.672 0 30.18-4.453 30.18-9.967 0-5.501-13.508-9.971-30.18-9.971-16.658 0-30.166 4.47-30.166 9.971-.001 5.514 13.507 9.967 30.166 9.967z"/></g></symbol><symbol id="web_app" viewBox="0 0 150 150"><path d="M75 .327C33.76.327.329 33.759.329 74.998c0 18.148 6.857 31.82 9.38 36.262C22.382 133.564 47.627 149.972 75 149.67c37.049-.41 74.671-31.396 74.671-74.671C149.671 33.758 116.24.327 75 .327z" fill="#f6f6f6"/><path d="M49.849 44.612a2.083 2.083 0 0 1-2.076 2.076 2.085 2.085 0 0 1-2.083-2.076c0-1.148.935-2.083 2.083-2.083 1.141 0 2.076.935 2.076 2.083zM55.049 44.612c0-1.148.935-2.083 2.083-2.083a2.08 2.08 0 0 1 0 4.159 2.083 2.083 0 0 1-2.083-2.076zM64.408 44.612c0-1.148.935-2.083 2.083-2.083s2.083.935 2.083 2.083a2.083 2.083 0 1 1-4.166 0z" fill="none" stroke="#e59b44" stroke-width="1.75" stroke-miterlimit="10"/><path d="M65.367 61.839h9.895a3.251 3.251 0 0 1 3.251 3.251v9.895a3.251 3.251 0 0 1-3.251 3.251h-9.895a3.251 3.251 0 0 1-3.251-3.251V65.09a3.25 3.25 0 0 1 3.251-3.251zM92.689 89.161h9.895a3.251 3.251 0 0 1 3.251 3.251v9.895a3.251 3.251 0 0 1-3.251 3.251h-9.895a3.251 3.251 0 0 1-3.251-3.251v-9.895a3.251 3.251 0 0 1 3.251-3.251zM65.367 89.161h9.895a3.251 3.251 0 0 1 3.251 3.251v9.895a3.251 3.251 0 0 1-3.251 3.251h-9.895a3.251 3.251 0 0 1-3.251-3.251v-9.895a3.251 3.251 0 0 1 3.251-3.251zM92.689 61.839h9.895a3.251 3.251 0 0 1 3.251 3.251v9.895a3.251 3.251 0 0 1-3.251 3.251h-9.895a3.251 3.251 0 0 1-3.251-3.251V65.09a3.25 3.25 0 0 1 3.251-3.251z" fill="none" stroke="#e59b44" stroke-width="2" stroke-miterlimit="10"/><path d="M34.794 34.517v79.415a2.552 2.552 0 0 0 2.552 2.552h11.293a2.552 2.552 0 0 0 2.552-2.552V53.465a2.552 2.552 0 0 0-2.552-2.552l-6.898-.153a2.552 2.552 0 0 1-2.552-2.552V39.65c0-1.409 1.142-1.179 2.552-1.179l67.634.153c1.409 0 2.552-.23 2.552 1.179v8.558a2.552 2.552 0 0 1-2.552 2.552H58.403a2.552 2.552 0 0 0-2.552 2.552v60.466a2.552 2.552 0 0 0 2.552 2.552h55.805a2.552 2.552 0 0 0 2.552-2.552V34.517a2.552 2.552 0 0 0-2.552-2.552H37.346a2.551 2.551 0 0 0-2.552 2.552z" fill="none" stroke="#e59b44" stroke-width="1.75" stroke-miterlimit="10"/><path d="M40.507 59.103h5.263c.727 0 1.318.642 1.318 1.428 0 .788-.591 1.428-1.318 1.428h-5.263c-.725 0-1.318-.64-1.318-1.428 0-.786.593-1.428 1.318-1.428zM40.507 71.686h5.263c.727 0 1.318.642 1.318 1.428 0 .788-.591 1.428-1.318 1.428h-5.263c-.725 0-1.318-.64-1.318-1.428 0-.786.593-1.428 1.318-1.428zM40.507 84.269h5.263c.727 0 1.318.642 1.318 1.428 0 .788-.591 1.428-1.318 1.428h-5.263c-.725 0-1.318-.64-1.318-1.428 0-.786.593-1.428 1.318-1.428z" fill="none" stroke="#e59b44" stroke-width="1.75" stroke-miterlimit="10"/></symbol><symbol id="windows" viewBox="0 0 150 150"><path d="M75 .327C33.76.327.329 33.759.329 74.998c0 18.148 6.857 31.82 9.38 36.262C22.382 133.564 47.627 149.972 75 149.67c37.049-.41 74.671-31.396 74.671-74.671C149.671 33.758 116.24.327 75 .327z" fill="#f6f6f6"/><g fill="none" stroke="#f59c1a" stroke-width="2" stroke-miterlimit="10"><path d="M64.241 41.319c0-2.212-2.169-3.759-4.354-3.437l-27.665 3.984c-2.18.322-4.27 2.393-4.27 4.6v21.548c0 2.21 2.032 4.115 4.241 4.115h27.269c2.209 0 4.779-1.905 4.779-4.115V41.319zM32.192 77.754c-2.209 0-4.241 2.111-4.241 4.323v21.916c0 2.21 1.902 4.283 4.082 4.605l27.795 4.044c2.186.318 4.413-1.226 4.413-3.438V82.077c0-2.212-2.57-4.323-4.779-4.323h-27.27zM69.864 109.712c0 2.205 1.607 4.276 3.792 4.598l40.648 6c2.18.322 3.946-1.223 3.946-3.426V82.077c0-2.212-1.937-4.323-4.147-4.323H73.515c-2.203 0-3.651 2.111-3.651 4.323v27.635zM69.864 67.923c0 2.212 1.448 4.323 3.651 4.323h40.589c2.209 0 4.147-2.111 4.147-4.323V33.117c0-2.203-1.766-3.748-3.946-3.426l-40.648 6c-2.185.322-3.792 2.393-3.792 4.598v27.634z"/></g><path d="M75 .326C33.76.326.329 33.758.329 74.997c0 18.148 6.857 31.82 9.38 36.262 12.673 22.304 37.918 38.712 65.291 38.41 37.049-.41 74.671-31.396 74.671-74.671C149.671 33.757 116.24.326 75 .326z" fill="none"/></symbol></svg>