<svg xmlns="http://www.w3.org/2000/svg" xmlns:xlink="http://www.w3.org/1999/xlink"><defs><path id="a" d="M51 166.326c-41.24 0-74.671 33.432-74.671 74.671 0 18.148 6.857 31.82 9.38 36.262 12.673 22.304 37.918 38.712 65.291 38.41 37.049-.41 74.671-31.396 74.671-74.671 0-41.241-33.431-74.672-74.671-74.672z"/></defs><symbol id="hololense" viewBox="0 0 149.34 149.34"><path d="M74.67 0A74.67 74.67 0 0 0 0 74.67a75.75 75.75 0 0 0 9.38 36.26c12.62 22.3 37.92 38.74 65.29 38.41 37-.41 74.67-31.4 74.67-74.67A74.67 74.67 0 0 0 74.67 0z" stroke="none"/><g fill="#f59c1a" stroke-width="1"><path d="M16 72.91v14.01a4.33 4.33 0 0 0 2.43 3.42c3.12 1.93 7.06 2.63 10.62 3.21a.752.752 0 1 0 .4-1.45c-2.9-1-8.49-3-8.38-6.93.06-2.26 2.24-3.82 4-4.83a37.62 37.62 0 0 1 10-3.57 107.38 107.38 0 0 1 14-2.28 175.14 175.14 0 0 1 17.74-.86.76.76 0 0 0 .75-.75 50.32 50.32 0 0 1 3-16.71.75.75 0 0 0-.52-.92h-.2a199.64 199.64 0 0 0-32 4.65 79.05 79.05 0 0 0-11.27 3.51 28.38 28.38 0 0 0-7.43 4.11A7.38 7.38 0 0 0 16 72.87a.75.75 0 0 0 1.5 0c0-1.71 1.22-3.09 2.45-4.14a25.41 25.41 0 0 1 7-3.91c7.68-3.14 16-4.76 24.18-6 6.2-1 12.45-1.62 18.71-2.09l-.72-1a51.57 51.57 0 0 0-3.06 17.11l.75-.75c-11 0-22.25.69-32.94 3.37a33.82 33.82 0 0 0-10.42 4.07c-1.94 1.28-3.84 3.16-3.84 5.65 0 4.71 5.84 7 9.48 8.3l.4-1.45a33.22 33.22 0 0 1-9.34-2.55C19 89 17.63 88.2 17.57 86.79c-.15-3.39 0-6.81 0-10.2v-3.68a.77.77 0 1 0-1.54 0z"/><path d="M23.18 85.24c0 1.2 1.07 2.06 2 2.69a22.36 22.36 0 0 0 5.64 2.56c7.44 2.45 15.44 3.38 23.23 3.92a123.51 123.51 0 0 0 18.12-.47.76.76 0 0 0 .51-1.3c-2.42-2.71-3.46-5.83-4.1-9.36a.75.75 0 0 0-.72-.55 161.81 161.81 0 0 1-27.51-2.24q-1.78-.31-3.56-.66a13.24 13.24 0 0 0-3.24-.58 13.53 13.53 0 0 0-3 .93c-.9.31-1.79.65-2.66 1-1.61.7-4.56 1.94-4.68 4-.06 1 1.44 1 1.5 0 0-.65 1.1-1.24 1.56-1.53a21.57 21.57 0 0 1 4.3-2 17 17 0 0 1 3-.93 11.1 11.1 0 0 1 3.38.55q3.32.64 6.66 1.14a165.23 165.23 0 0 0 24.32 1.82l-.72-.55a19.32 19.32 0 0 0 4.48 10l.53-1.28c-2.46.19-4.93.33-7.4.44s-5.14.35-7.68.22c-4.54-.24-9.08-.64-13.57-1.31-5.45-.81-11.4-1.8-16.34-4.39a8.47 8.47 0 0 1-1.92-1.27 2.37 2.37 0 0 1-.44-.5 1 1 0 0 1-.14-.36.775.775 0 0 0-1.55.01zM93.25 58.76c-6.65 0-13.32 0-20 .39l.72 1c.43-1.32.54-2.74 1-4l-.72.55c5.81-.34 11.63-.24 17.45-.22a137.72 137.72 0 0 1 16.78.94 77.51 77.51 0 0 1 13.75 2.85c2.82.89 6 2 8.19 4 1.78 1.66 1.37 3.66 1.37 5.92l1.47-.2c-1.17-3.3-5.35-5-8.32-6.2a73.22 73.22 0 0 0-18.24-4.19 115.47 115.47 0 0 0-13.49-.79.75.75 0 1 0 0 1.5 99.14 99.14 0 0 1 26 3.17 39.65 39.65 0 0 1 8.53 3.24c1.5.82 3.46 2 4.07 3.66a.75.75 0 0 0 1.47-.2c0-2 .37-4.24-.91-6-1.63-2.22-4.47-3.48-7-4.46a63.26 63.26 0 0 0-13.29-3.37 121.07 121.07 0 0 0-16.78-1.46c-7-.12-14-.21-21 .2a.78.78 0 0 0-.72.55c-.46 1.31-.57 2.73-1 4a.75.75 0 0 0 .52.92h.2c6.64-.39 13.31-.39 20-.39a.75.75 0 0 0-.05-1.49z"/><path d="M73.43 74a44.2 44.2 0 0 1 1.25-10.13l-.72.55c13-.6 26.25-.76 39.11 1.63A48.41 48.41 0 0 1 126 69.92a12.2 12.2 0 0 1 3.44 2.36 3.22 3.22 0 0 1 .85 1.22 7.11 7.11 0 0 1-.32 2.25q-.22 1.23-.5 2.44a48.11 48.11 0 0 1-7 16 28.09 28.09 0 0 1-2.43 3.3c-.87 1-2 3-3.52 3-2.06 0-.77-3.39-1.89-4.52-1.55-1.55-4.66-.07-6 1.06a6.17 6.17 0 0 1-4.48 1.75 34.34 34.34 0 0 1-5.42-.42 62.54 62.54 0 0 1-9.55-2.72c-2.81-.94-5.7-1.75-8.45-2.83A9.46 9.46 0 0 1 75 85.88 52.46 52.46 0 0 1 73.47 74 .75.75 0 0 0 72 74a53.61 53.61 0 0 0 1.2 10.94c.6 2.8 1.47 5.34 3.69 7.28 2.38 2.11 5.79 2.85 8.79 3.85 2.66.89 5.3 1.83 8 2.65a36.06 36.06 0 0 0 10.71 1.59 7.18 7.18 0 0 0 3.95-1.07c1.44-.93 2.45-2.28 4.33-2.32 1.36 0 1.1 1.14 1.1 2.14a2.67 2.67 0 0 0 1 2.37c2.43 1.87 4.7-.82 6.12-2.53a49.35 49.35 0 0 0 8.84-16 41.27 41.27 0 0 0 1.95-9c.12-1.35-1.06-2.55-2-3.36-3-2.44-6.94-3.67-10.58-4.64-14.6-3.9-30.18-3.67-45.1-2.98a.77.77 0 0 0-.72.55A46 46 0 0 0 71.93 74a.75.75 0 0 0 1.5 0z"/></g></symbol><symbol id="mobile_native" viewBox="-24 166 150 150"><path style="stroke:none;" d="M51 166.327c-41.24 0-74.671 33.432-74.671 74.671 0 18.148 6.857 31.82 9.38 36.262C-1.618 299.564 23.627 315.972 51 315.67c37.049-.41 74.671-31.396 74.671-74.671 0-41.241-33.431-74.672-74.671-74.672z"/><clipPath id="b"><use xlink:href="#a" overflow="visible"/></clipPath><g fill="none" clip-path="url(#b)"><path d="M18.935 201.426c4.155-4.446 6.964-10.619 6.195-16.776-5.984.214-13.237 3.513-17.532 7.959-3.851 3.936-7.221 10.228-6.321 16.262 6.677.453 13.499-3.004 17.658-7.445zM31.679 243.94c-.128-13.801 10.928-20.429 11.416-20.75-6.214-9.372-15.892-10.655-19.34-10.799-8.242-.865-16.069 4.992-20.253 4.992-4.167 0-10.614-4.877-17.449-4.748-8.987.148-17.266 5.382-21.882 13.675-9.334 16.683-2.392 41.398 6.704 54.929 4.448 6.626 9.741 14.056 16.695 13.788 6.711-.268 9.24-4.463 17.338-4.463 8.101 0 10.368 4.463 17.456 4.328 7.211-.133 11.773-6.752 16.183-13.398 5.101-7.682 7.204-15.121 7.325-15.496-.157-.091-14.045-5.554-14.193-22.058z"/></g><g fill="none" clip-path="url(#b)"><path d="M116.55 295.471c3.678 0 6.886-3.208 6.886-6.886v-16.081h4.598c2.759 0 4.598-1.839 4.598-4.598v-45.93h-55.13v45.931c0 2.759 1.839 4.598 4.598 4.598h4.598v16.081c0 3.678 3.207 6.886 6.886 6.886 3.678 0 6.885-3.208 6.885-6.886v-16.081h9.196v16.081c-.001 3.677 3.207 6.885 6.885 6.885zM144.115 267.906c3.678 0 6.885-3.207 6.885-6.886v-32.162c0-3.659-3.207-6.883-6.885-6.883-3.679 0-6.886 3.224-6.886 6.883v32.162c0 3.679 3.207 6.886 6.886 6.886zM66.018 267.906c3.679 0 6.886-3.207 6.886-6.886v-32.162c0-3.659-3.207-6.883-6.886-6.883-3.678 0-6.885 3.224-6.885 6.883v32.162c0 3.679 3.207 6.886 6.885 6.886zM127.113 186.157c-.919-.925-2.288-.925-3.207 0l-6.167 6.146-.284.284c-3.657-1.831-7.756-2.745-12.322-2.754l-.067-.001h-.001l-.068.001c-4.565.009-8.665.923-12.321 2.754l-.285-.284-6.166-6.146c-.92-.925-2.288-.925-3.207 0-.92.92-.92 2.285 0 3.204l5.965 5.966a24.863 24.863 0 0 0-5.181 4.65c-3.629 4.301-5.943 9.899-6.261 15.964l-.012.189c-.019.413-.029.828-.029 1.245h55.129c0-.417-.01-.832-.029-1.245-.003-.063-.009-.126-.013-.189-.318-6.065-2.633-11.663-6.261-15.963a24.838 24.838 0 0 0-5.181-4.65l5.966-5.966c.922-.92.922-2.285.002-3.205zm-33.538 23.19a3.444 3.444 0 1 1 0-6.888 3.444 3.444 0 0 1 0 6.888zm22.983 0a3.444 3.444 0 1 1 0-6.888 3.444 3.444 0 0 1 0 6.888z"/></g></symbol><symbol id="sql" viewBox="0 0 150 150"><path style="stroke:none;" d="M75 .327C33.76.327.329 33.759.329 74.998c0 18.148 6.857 31.82 9.38 36.262C22.382 133.564 47.627 149.972 75 149.67c37.049-.41 74.671-31.396 74.671-74.671C149.671 33.758 116.24.327 75 .327z"/><g fill="none"><path d="M75.854 79.978c-14.526 0-26.705-4.261-30.024-10.024-.592 1.021-.929 2.066-.929 3.164v9.415c0 7.27 13.868 13.184 30.953 13.184 17.111 0 30.98-5.914 30.98-13.184v-9.415c0-1.098-.347-2.142-.942-3.164-3.32 5.763-15.482 10.024-30.038 10.024z"/><path d="M75.854 99.437c-14.526 0-26.705-4.275-30.024-10.02-.592 1.008-.929 2.066-.929 3.151v9.428c0 7.283 13.868 13.171 30.953 13.171 17.111 0 30.98-5.888 30.98-13.171v-9.428c0-1.084-.347-2.142-.942-3.151-3.32 5.745-15.482 10.02-30.038 10.02zM105.984 51.127c-.608 5.323-13.832 9.594-30.13 9.594-16.282 0-29.505-4.271-30.113-9.594-.529.969-.84 1.977-.84 3.008v9.429c0 7.27 13.868 13.171 30.953 13.171 17.111 0 30.98-5.888 30.98-13.171v-9.429c-.001-1.031-.321-2.039-.85-3.008z"/><path d="M75.854 57.726c16.672 0 30.18-4.453 30.18-9.967 0-5.501-13.508-9.971-30.18-9.971-16.658 0-30.166 4.47-30.166 9.971-.001 5.514 13.507 9.967 30.166 9.967z"/></g></symbol><symbol id="web_app" viewBox="0 0 150 150"><path style="stroke:none;" d="M75 .327C33.76.327.329 33.759.329 74.998c0 18.148 6.857 31.82 9.38 36.262C22.382 133.564 47.627 149.972 75 149.67c37.049-.41 74.671-31.396 74.671-74.671C149.671 33.758 116.24.327 75 .327z"/><path d="M49.849 44.612a2.083 2.083 0 0 1-2.076 2.076 2.085 2.085 0 0 1-2.083-2.076c0-1.148.935-2.083 2.083-2.083 1.141 0 2.076.935 2.076 2.083zM55.049 44.612c0-1.148.935-2.083 2.083-2.083a2.08 2.08 0 0 1 0 4.159 2.083 2.083 0 0 1-2.083-2.076zM64.408 44.612c0-1.148.935-2.083 2.083-2.083s2.083.935 2.083 2.083a2.083 2.083 0 1 1-4.166 0zM65.367 61.839h9.895a3.251 3.251 0 0 1 3.251 3.251v9.895a3.251 3.251 0 0 1-3.251 3.251h-9.895a3.251 3.251 0 0 1-3.251-3.251V65.09a3.25 3.25 0 0 1 3.251-3.251zM92.689 89.161h9.895a3.251 3.251 0 0 1 3.251 3.251v9.895a3.251 3.251 0 0 1-3.251 3.251h-9.895a3.251 3.251 0 0 1-3.251-3.251v-9.895a3.251 3.251 0 0 1 3.251-3.251zM65.367 89.161h9.895a3.251 3.251 0 0 1 3.251 3.251v9.895a3.251 3.251 0 0 1-3.251 3.251h-9.895a3.251 3.251 0 0 1-3.251-3.251v-9.895a3.251 3.251 0 0 1 3.251-3.251zM92.689 61.839h9.895a3.251 3.251 0 0 1 3.251 3.251v9.895a3.251 3.251 0 0 1-3.251 3.251h-9.895a3.251 3.251 0 0 1-3.251-3.251V65.09a3.25 3.25 0 0 1 3.251-3.251z" fill="none"/><path d="M34.794 34.517v79.415a2.552 2.552 0 0 0 2.552 2.552h11.293a2.552 2.552 0 0 0 2.552-2.552V53.465a2.552 2.552 0 0 0-2.552-2.552l-6.898-.153a2.552 2.552 0 0 1-2.552-2.552V39.65c0-1.409 1.142-1.179 2.552-1.179l67.634.153c1.409 0 2.552-.23 2.552 1.179v8.558a2.552 2.552 0 0 1-2.552 2.552H58.403a2.552 2.552 0 0 0-2.552 2.552v60.466a2.552 2.552 0 0 0 2.552 2.552h55.805a2.552 2.552 0 0 0 2.552-2.552V34.517a2.552 2.552 0 0 0-2.552-2.552H37.346a2.551 2.551 0 0 0-2.552 2.552z" fill="none"/><path d="M40.507 59.103h5.263c.727 0 1.318.642 1.318 1.428 0 .788-.591 1.428-1.318 1.428h-5.263c-.725 0-1.318-.64-1.318-1.428 0-.786.593-1.428 1.318-1.428zM40.507 71.686h5.263c.727 0 1.318.642 1.318 1.428 0 .788-.591 1.428-1.318 1.428h-5.263c-.725 0-1.318-.64-1.318-1.428 0-.786.593-1.428 1.318-1.428zM40.507 84.269h5.263c.727 0 1.318.642 1.318 1.428 0 .788-.591 1.428-1.318 1.428h-5.263c-.725 0-1.318-.64-1.318-1.428 0-.786.593-1.428 1.318-1.428z" fill="none"/></symbol><symbol id="windows" viewBox="0 0 150 150"><path style="stroke:none;" d="M75 .327C33.76.327.329 33.759.329 74.998c0 18.148 6.857 31.82 9.38 36.262C22.382 133.564 47.627 149.972 75 149.67c37.049-.41 74.671-31.396 74.671-74.671C149.671 33.758 116.24.327 75 .327z"/><g fill="none"><path d="M64.241 41.319c0-2.212-2.169-3.759-4.354-3.437l-27.665 3.984c-2.18.322-4.27 2.393-4.27 4.6v21.548c0 2.21 2.032 4.115 4.241 4.115h27.269c2.209 0 4.779-1.905 4.779-4.115V41.319zM32.192 77.754c-2.209 0-4.241 2.111-4.241 4.323v21.916c0 2.21 1.902 4.283 4.082 4.605l27.795 4.044c2.186.318 4.413-1.226 4.413-3.438V82.077c0-2.212-2.57-4.323-4.779-4.323h-27.27zM69.864 109.712c0 2.205 1.607 4.276 3.792 4.598l40.648 6c2.18.322 3.946-1.223 3.946-3.426V82.077c0-2.212-1.937-4.323-4.147-4.323H73.515c-2.203 0-3.651 2.111-3.651 4.323v27.635zM69.864 67.923c0 2.212 1.448 4.323 3.651 4.323h40.589c2.209 0 4.147-2.111 4.147-4.323V33.117c0-2.203-1.766-3.748-3.946-3.426l-40.648 6c-2.185.322-3.792 2.393-3.792 4.598v27.634z"/></g></symbol></svg>