<svg xmlns="http://www.w3.org/2000/svg"><symbol id="designer" viewBox="0 0 405.4 259.9"><title>designer</title><g data-name="&#x421;&#x43B;&#x43E;&#x439; 2"><g data-name="MDriven _Designer"><g fill="#3d3d3d" stroke="#3d3d3d" stroke-miterlimit="10"><path d="M27.8 215.9l-5.5-18h-.1c.2 3.6.3 6.1.3 7.3v10.7h-4.3v-22.8h6.6l5.4 17.5h.1l5.7-17.5h6.6v22.8h-4.5v-12.6c0-.7.1-2.4.2-5.3h-.1l-5.9 17.9zM67.3 204.2c0 3.8-1.1 6.6-3.2 8.6s-5.2 3-9.3 3h-6.5V193h7.2q5.55 0 8.7 3c2.1 2 3.1 4.7 3.1 8.2zm-5 .1c0-4.9-2.2-7.4-6.5-7.4h-2.6v15h2.1c4.6 0 7-2.6 7-7.6zM81.4 198.1a7.59 7.59 0 0 1 1.6.1l-.4 4.5a5.9 5.9 0 0 0-1.4-.2 5.22 5.22 0 0 0-3.6 1.2 4.52 4.52 0 0 0-1.3 3.3v8.9h-4.8v-17.5h3.6l.7 2.9h.2a6.36 6.36 0 0 1 2.2-2.4 5.87 5.87 0 0 1 3.2-.8zM86 193.9c0-1.6.9-2.3 2.6-2.3s2.6.8 2.6 2.3a2.35 2.35 0 0 1-.6 1.7 2.71 2.71 0 0 1-1.9.6c-1.9 0-2.7-.8-2.7-2.3zm5 22h-4.8v-17.5H91zM100.1 215.9l-6.7-17.5h5l3.4 10a17.49 17.49 0 0 1 .7 3.6h.1a20.42 20.42 0 0 1 .7-3.6l3.4-10h5l-6.7 17.5zM122.1 216.2a9.29 9.29 0 0 1-6.6-2.3 8.92 8.92 0 0 1-2.4-6.6c0-2.9.7-5.2 2.2-6.8a7.91 7.91 0 0 1 6.1-2.4 7.27 7.27 0 0 1 7.9 7.9v2.3H118a5.16 5.16 0 0 0 1.2 3.2 4 4 0 0 0 3.2 1.1 14.53 14.53 0 0 0 3-.3 16.62 16.62 0 0 0 2.9-1v3.7a10.71 10.71 0 0 1-2.7.9 18.27 18.27 0 0 1-3.5.3zm-.7-14.8a3 3 0 0 0-2.4 1 4.17 4.17 0 0 0-1 2.7h6.7a3.67 3.67 0 0 0-.9-2.7 3.31 3.31 0 0 0-2.4-1zM149.2 215.9h-4.8v-10.2a4.28 4.28 0 0 0-.7-2.8 2.45 2.45 0 0 0-2.1-.9 3.24 3.24 0 0 0-2.9 1.3 8.27 8.27 0 0 0-.9 4.4v8.2H133v-17.5h3.6l.6 2.2h.3a5.1 5.1 0 0 1 2.2-1.9 7.94 7.94 0 0 1 3.2-.6 6 6 0 0 1 4.6 1.6 6.48 6.48 0 0 1 1.6 4.8v11.4zM37.1 232.2c0 3.8-1.1 6.6-3.2 8.6s-5.2 3-9.3 3h-6.5V221h7.2q5.55 0 8.7 3c2.1 2 3.1 4.7 3.1 8.2zm-5 .1c0-4.9-2.2-7.4-6.5-7.4H23v15h2.1c4.7 0 7-2.6 7-7.6zM49.4 244.2a9.29 9.29 0 0 1-6.6-2.3 8.92 8.92 0 0 1-2.4-6.6c0-2.9.7-5.2 2.2-6.8a7.91 7.91 0 0 1 6.1-2.4 7.27 7.27 0 0 1 7.9 7.9v2.3H45.2a5.16 5.16 0 0 0 1.2 3.2 4 4 0 0 0 3.2 1.1 14.53 14.53 0 0 0 3-.3 16.62 16.62 0 0 0 2.9-1v3.7a10.71 10.71 0 0 1-2.7.9 15.84 15.84 0 0 1-3.4.3zm-.7-14.8a3 3 0 0 0-2.4 1 4.17 4.17 0 0 0-1 2.7H52a3.67 3.67 0 0 0-.9-2.7 3.31 3.31 0 0 0-2.4-1zM72.6 238.7a4.65 4.65 0 0 1-1.9 4.1 9.41 9.41 0 0 1-5.6 1.4 15.48 15.48 0 0 1-3.3-.3 10.43 10.43 0 0 1-2.5-.8v-3.9a13.21 13.21 0 0 0 3 1 18.08 18.08 0 0 0 2.9.4c1.7 0 2.6-.5 2.6-1.5a1.22 1.22 0 0 0-.3-.9 4.82 4.82 0 0 0-1.2-.8c-.6-.3-1.3-.6-2.3-1a19.57 19.57 0 0 1-3-1.6 5.21 5.21 0 0 1-1.4-1.6 5.27 5.27 0 0 1-.4-2.3 4 4 0 0 1 1.8-3.6 9.12 9.12 0 0 1 5.1-1.3 14.34 14.34 0 0 1 6.1 1.4l-1.2 3.5a15.25 15.25 0 0 0-2.5-.9 9.26 9.26 0 0 0-2.3-.4c-1.4 0-2.1.4-2.1 1.1a1.27 1.27 0 0 0 .7 1.1 17.71 17.71 0 0 0 3 1.4 20.32 20.32 0 0 1 3 1.5 4.57 4.57 0 0 1 1.4 1.7 7.88 7.88 0 0 1 .4 2.3zM76.1 221.9c0-1.6.9-2.3 2.6-2.3s2.6.8 2.6 2.3a2.35 2.35 0 0 1-.6 1.7 2.71 2.71 0 0 1-1.9.6c-1.8 0-2.7-.8-2.7-2.3zm5 22h-4.8v-17.5h4.8zM101.3 226.4v2.4l-2.7.7a5 5 0 0 1 .8 2.6 5.42 5.42 0 0 1-2 4.4 8.68 8.68 0 0 1-5.4 1.6h-.9l-.7-.1a1.57 1.57 0 0 0-.7 1.3c0 .7.9 1 2.6 1h3a7 7 0 0 1 4.4 1.2 4.33 4.33 0 0 1 1.5 3.6 5.65 5.65 0 0 1-2.6 4.8c-1.7 1.2-4.1 1.7-7.3 1.7a9.88 9.88 0 0 1-5.6-1.3 3.91 3.91 0 0 1-1.9-3.6 3.39 3.39 0 0 1 1-2.6 5.72 5.72 0 0 1 2.9-1.5 3.05 3.05 0 0 1-1.3-1 2.26 2.26 0 0 1-.5-1.5 2.52 2.52 0 0 1 .6-1.7 6.25 6.25 0 0 1 1.7-1.3 5 5 0 0 1-2.2-1.9 6.21 6.21 0 0 1-.8-3.1 5.22 5.22 0 0 1 1.9-4.4 8.17 8.17 0 0 1 5.3-1.6 10.28 10.28 0 0 1 1.7.1c.6.1 1.1.2 1.3.2h5.9zm-13.5 19.9a1.55 1.55 0 0 0 .9 1.5 4.76 4.76 0 0 0 2.6.6 9 9 0 0 0 4-.7c1-.5 1.5-1.1 1.5-1.9a1.42 1.42 0 0 0-.9-1.4 6.38 6.38 0 0 0-2.7-.4h-2.5a3.8 3.8 0 0 0-2.2.6 2.61 2.61 0 0 0-.7 1.7zm1.7-14.2a4.14 4.14 0 0 0 .6 2.3 2.21 2.21 0 0 0 2 .8 2.48 2.48 0 0 0 2-.8 3.92 3.92 0 0 0 .6-2.3c0-2.1-.9-3.2-2.6-3.2s-2.6 1.1-2.6 3.2zM120.3 243.9h-4.8v-10.2a4.28 4.28 0 0 0-.7-2.8 2.45 2.45 0 0 0-2.1-.9 3.24 3.24 0 0 0-2.9 1.3 8.26 8.26 0 0 0-.9 4.4v8.2h-4.8v-17.5h3.6l.6 2.2h.3a5.1 5.1 0 0 1 2.2-1.9 7.94 7.94 0 0 1 3.2-.6 6 6 0 0 1 4.6 1.6 6.48 6.48 0 0 1 1.6 4.8v11.4zM133.1 244.2a9.29 9.29 0 0 1-6.6-2.3 8.92 8.92 0 0 1-2.4-6.6c0-2.9.7-5.2 2.2-6.8a7.91 7.91 0 0 1 6.1-2.4 7.27 7.27 0 0 1 7.9 7.9v2.3H129a5.16 5.16 0 0 0 1.2 3.2 4 4 0 0 0 3.2 1.1 14.53 14.53 0 0 0 3-.3 16.62 16.62 0 0 0 2.9-1v3.7a10.71 10.71 0 0 1-2.7.9 18.27 18.27 0 0 1-3.5.3zm-.7-14.8a3 3 0 0 0-2.4 1 4.17 4.17 0 0 0-1 2.7h6.7a3.67 3.67 0 0 0-.9-2.7 3.31 3.31 0 0 0-2.4-1zM153.8 226.1a7.59 7.59 0 0 1 1.6.1l-.4 4.5a5.9 5.9 0 0 0-1.4-.2 5.22 5.22 0 0 0-3.6 1.2 4.52 4.52 0 0 0-1.3 3.3v8.9h-4.8v-17.5h3.6l.7 2.9h.2a6.36 6.36 0 0 1 2.2-2.4 5.87 5.87 0 0 1 3.2-.8z"/></g><circle cx="317.4" cy="88" r="88" style="isolation:isolate" fill="#ce6910" opacity=".7"/><circle cx="317.3" cy="44.6" r="5.4" fill="#fff"/><circle cx="317.3" cy="130.8" r="6.1" fill="#fff"/><circle cx="317.3" cy="87.7" r="6.1" fill="#fff"/><circle cx="280.9" cy="66.1" r="6.1" fill="#fff"/><circle cx="280.9" cy="109.2" r="5.4" fill="#fff"/><circle cx="354" cy="66.1" r="6.1" fill="#fff"/><circle cx="354" cy="109.2" r="5.4" fill="#fff"/><path style="isolation:isolate" fill="none" stroke="#fff" stroke-linecap="round" stroke-linejoin="round" stroke-dasharray="2" opacity=".7" d="M317.2 130.8l36.2-21.6M354 66.1l-36.8-21.5M280.9 66.1v43.1"/><path style="isolation:isolate" fill="none" stroke="#fff" stroke-linecap="round" stroke-linejoin="round" stroke-width=".75" stroke-dasharray="1.5" opacity=".4" d="M280.9 109.2l36.3-21.5"/><path style="isolation:isolate" fill="none" stroke="#fff" stroke-linecap="round" stroke-linejoin="round" stroke-dasharray="2" opacity=".7" d="M354 66.1v43.1M280.9 66.7l36.3-21.6M317.7 131.3l-36.8-21.6"/><path fill="none" stroke="#fff" stroke-linecap="round" stroke-linejoin="round" stroke-dasharray="2" d="M317.2 87.7l36.2-21.6M317.2 87.7l-36.3-21.6"/><path style="isolation:isolate" fill="none" stroke="#fff" stroke-linecap="round" stroke-linejoin="round" stroke-width=".75" stroke-dasharray="1.5" opacity=".4" d="M354 109.2l-36.8-21.5"/><path style="isolation:isolate" fill="none" stroke="#fff" stroke-linecap="round" stroke-miterlimit="10" stroke-width=".75" stroke-dasharray="1.5" opacity=".4" d="M317.3 44.6v43.1"/><g fill="none" stroke="#fff" stroke-linecap="round" stroke-linejoin="round"><path d="M317.3 87.7v1"/><path stroke-dasharray="1.955899953842163,1.955899953842163" d="M317.3 90.6v38.2"/><path d="M317.3 129.8v1"/></g><g><circle cx="5" cy="254.9" r="5" style="isolation:isolate" fill="#3d3d3d" opacity=".4"/><path style="isolation:isolate" fill="none" stroke="#3d3d3d" stroke-miterlimit="10" opacity=".4" d="M11.5 254.9H163M163 254.9l92.5-90.5"/></g></g></g></symbol><symbol id="server" viewBox="0 0 403.7 260.7"><title>server</title><g data-name="&#x421;&#x43B;&#x43E;&#x439; 2"><g data-name="MDriven _Server"><circle cx="88" cy="88" r="88" style="isolation:isolate" fill="#e7832a" opacity=".7"/><circle cx="398.7" cy="255.7" r="5" style="isolation:isolate" fill="#3d3d3d" opacity=".4"/><path style="isolation:isolate" fill="none" stroke="#3d3d3d" stroke-miterlimit="10" opacity=".4" d="M392.7 255.7H241.2M241.2 255.7l-94-89.5"/><g fill="none" stroke="#fff" stroke-miterlimit="10"><path d="M72.5 117.8h-5.7a6.1 6.1 0 1 0 0 3.4h5.7a6.79 6.79 0 0 0 6.9-6.6v-10.2a1.7 1.7 0 1 0-3.4 0v10.2a3.36 3.36 0 0 1-3.5 3.2z" stroke-linecap="round" stroke-width=".75" stroke-dasharray="1.5"/><path d="M60.7 122.2a2.82 2.82 0 0 1-2.9-2.8 2.88 2.88 0 0 1 2.9-2.8 2.82 2.82 0 0 1 2.9 2.8 2.88 2.88 0 0 1-2.9 2.8z" stroke-linecap="round" stroke-width=".75" stroke-dasharray="1"/><path d="M98.3 102.6a1.69 1.69 0 0 0-1.7 1.7v10.2a6.73 6.73 0 0 0 6.9 6.6h5.7a6.1 6.1 0 1 0 0-3.4h-5.7a3.44 3.44 0 0 1-3.5-3.3v-10.2a1.67 1.67 0 0 0-1.7-1.6z" stroke-linecap="round" stroke-width=".75" stroke-dasharray="1.5"/><path d="M115.3 116.6a2.82 2.82 0 0 1 2.9 2.8 2.88 2.88 0 0 1-2.9 2.8 2.82 2.82 0 0 1-2.9-2.8 2.88 2.88 0 0 1 2.9-2.8z" stroke-linecap="round" stroke-width=".5" stroke-dasharray="1"/><path d="M90.2 38.4a22.44 22.44 0 0 0-19.4 11.3 10.14 10.14 0 0 0-2.5-.2 12.08 12.08 0 0 0-12.1 12.1 10.9 10.9 0 0 0 .3 2.6 16.78 16.78 0 0 0-7.1 13.7c0 9.1 7.3 17.2 16 17.7h43.3a19.43 19.43 0 0 0 17.8-19.5c0-8.9-6.1-16.9-14.4-19a22.07 22.07 0 0 0-21.9-18.7z" stroke-width="3.5"/><path d="M88 102.6a1.69 1.69 0 0 0-1.7 1.7v21.3a6.07 6.07 0 0 0-4.6 5.7 6.2 6.2 0 0 0 1.8 4.4 6.81 6.81 0 0 0 4.5 1.9h.2a6.36 6.36 0 0 0 6.4-5.9 6.2 6.2 0 0 0-1.8-4.4 6.57 6.57 0 0 0-2.9-1.7v-21.3a1.93 1.93 0 0 0-1.9-1.7z" stroke-linecap="round" stroke-width=".75" stroke-dasharray="1.5"/><path d="M90.9 131.6a2.8 2.8 0 0 1-2.9 2.7h-.1a2.52 2.52 0 0 1-2-.9 2.76 2.76 0 0 1 2.1-4.7h.1a2.52 2.52 0 0 1 2 .9 2.79 2.79 0 0 1 .8 2z" stroke-linecap="round" stroke-width=".75" stroke-dasharray="1"/></g><g fill="#3d3d3d" stroke="#3d3d3d" stroke-miterlimit="10"><path d="M264.6 216.7l-5.5-17.9h-.1c.2 3.6.3 6.1.3 7.3v10.6H255v-22.8h6.6l5.4 17.5h.1l5.7-17.5h6.6v22.8h-4.5v-12.6c0-.7.1-2.4.2-5.3h-.1l-5.9 17.9h-4.5zM304.1 205.1c0 3.8-1.1 6.6-3.2 8.6s-5.2 3-9.3 3h-6.5v-22.8h7.2q5.55 0 8.7 3c2.1 2 3.1 4.6 3.1 8.2zm-5.1.1c0-4.9-2.2-7.4-6.5-7.4h-2.6v14.9h2.1c4.7 0 7-2.5 7-7.5zM318.2 198.9a7.59 7.59 0 0 1 1.6.1l-.4 4.5a5.9 5.9 0 0 0-1.4-.2 5.22 5.22 0 0 0-3.6 1.2 4.52 4.52 0 0 0-1.3 3.3v8.9h-4.8v-17.5h3.6l.7 2.9h.2a6.36 6.36 0 0 1 2.2-2.4 7.56 7.56 0 0 1 3.2-.8zM322.7 194.7c0-1.6.9-2.3 2.6-2.3s2.6.8 2.6 2.3a2.35 2.35 0 0 1-.6 1.7 2.71 2.71 0 0 1-1.9.6c-1.8.1-2.7-.7-2.7-2.3zm5 22h-4.8v-17.5h4.8zM336.9 216.7l-6.7-17.5h5l3.4 10a17.49 17.49 0 0 1 .7 3.6h.1a20.42 20.42 0 0 1 .7-3.6l3.4-10h5l-6.7 17.5zM358.8 217a9.29 9.29 0 0 1-6.6-2.3 8.92 8.92 0 0 1-2.4-6.6c0-2.9.7-5.2 2.2-6.8a7.91 7.91 0 0 1 6.1-2.4 7.27 7.27 0 0 1 7.9 7.9v2.3h-11.3a5.16 5.16 0 0 0 1.2 3.2 4.17 4.17 0 0 0 3.2 1.1 14.53 14.53 0 0 0 3-.3 16.62 16.62 0 0 0 2.9-1v3.7a10.71 10.71 0 0 1-2.7.9 17.55 17.55 0 0 1-3.5.3zm-.7-14.7a3 3 0 0 0-2.4 1 4.17 4.17 0 0 0-1 2.7h6.7a3.67 3.67 0 0 0-.9-2.7 3.15 3.15 0 0 0-2.4-1zM385.9 216.7h-4.8v-10.2a4.28 4.28 0 0 0-.7-2.8 2.45 2.45 0 0 0-2.1-.9 3.24 3.24 0 0 0-2.9 1.3 8.26 8.26 0 0 0-.9 4.4v8.2h-4.8v-17.5h3.6l.6 2.2h.3a5.1 5.1 0 0 1 2.2-1.9 7.94 7.94 0 0 1 3.2-.6 6 6 0 0 1 4.6 1.6 6.48 6.48 0 0 1 1.6 4.8v11.4zM285.2 238.4a5.86 5.86 0 0 1-2.2 4.9 9.54 9.54 0 0 1-6.2 1.8 15.13 15.13 0 0 1-6.5-1.4v-4.5a25.16 25.16 0 0 0 3.9 1.5 10.6 10.6 0 0 0 2.9.4 3.84 3.84 0 0 0 2.4-.6 2 2 0 0 0 .9-1.8 1.92 1.92 0 0 0-.4-1.2 5.47 5.47 0 0 0-1.1-1q-.75-.45-3-1.5a15.48 15.48 0 0 1-3.1-1.9 6.84 6.84 0 0 1-1.7-2.1 6.09 6.09 0 0 1-.6-2.8 6 6 0 0 1 2.1-4.8 8.44 8.44 0 0 1 5.7-1.7 12.67 12.67 0 0 1 3.4.4 27.89 27.89 0 0 1 3.4 1.2l-1.6 3.8a20.85 20.85 0 0 0-3-1 9.86 9.86 0 0 0-2.4-.3 3.28 3.28 0 0 0-2.1.6 2.06 2.06 0 0 0-.7 1.7 2 2 0 0 0 .3 1.1 3.82 3.82 0 0 0 .9.9c.4.3 1.5.8 3.1 1.6a11.56 11.56 0 0 1 4.4 3.1 5 5 0 0 1 1.2 3.6zM296.9 245a9.29 9.29 0 0 1-6.6-2.3 8.92 8.92 0 0 1-2.4-6.6c0-2.9.7-5.2 2.2-6.8a7.91 7.91 0 0 1 6.1-2.4 7.27 7.27 0 0 1 7.9 7.9v2.3h-11.4a5.16 5.16 0 0 0 1.2 3.2 4.17 4.17 0 0 0 3.2 1.1 14.53 14.53 0 0 0 3-.3 16.62 16.62 0 0 0 2.9-1v3.7a10.71 10.71 0 0 1-2.7.9 16.5 16.5 0 0 1-3.4.3zm-.7-14.7a3 3 0 0 0-2.4 1 4.17 4.17 0 0 0-1 2.7h6.7a3.67 3.67 0 0 0-.9-2.7 3.31 3.31 0 0 0-2.4-1zM317.6 226.9a7.59 7.59 0 0 1 1.6.1l-.4 4.5a5.9 5.9 0 0 0-1.4-.2 5.22 5.22 0 0 0-3.6 1.2 4.52 4.52 0 0 0-1.3 3.3v8.9h-4.8v-17.5h3.6l.7 2.9h.2a6.36 6.36 0 0 1 2.2-2.4 7.56 7.56 0 0 1 3.2-.8zM326.6 244.7l-6.7-17.5h5l3.4 10a17.49 17.49 0 0 1 .7 3.6h.1a20.42 20.42 0 0 1 .7-3.6l3.4-10h5l-6.7 17.5zM348.5 245a9.29 9.29 0 0 1-6.6-2.3 8.92 8.92 0 0 1-2.4-6.6c0-2.9.7-5.2 2.2-6.8a7.91 7.91 0 0 1 6.1-2.4 7.27 7.27 0 0 1 7.9 7.9v2.3h-11.3a5.16 5.16 0 0 0 1.2 3.2 4.17 4.17 0 0 0 3.2 1.1 14.53 14.53 0 0 0 3-.3 16.62 16.62 0 0 0 2.9-1v3.7a10.71 10.71 0 0 1-2.7.9 17.55 17.55 0 0 1-3.5.3zm-.7-14.7a3 3 0 0 0-2.4 1 4.17 4.17 0 0 0-1 2.7h6.7a3.67 3.67 0 0 0-.9-2.7 3.15 3.15 0 0 0-2.4-1zM369.3 226.9a7.59 7.59 0 0 1 1.6.1l-.4 4.5a5.9 5.9 0 0 0-1.4-.2 5.22 5.22 0 0 0-3.6 1.2 4.52 4.52 0 0 0-1.3 3.3v8.9h-4.8v-17.5h3.6l.7 2.9h.2a6.36 6.36 0 0 1 2.2-2.4 7.56 7.56 0 0 1 3.2-.8z"/></g></g></g></symbol><symbol id="turnkey" viewBox="0 0 404.5 257"><title>&#x420;&#x435;&#x441;&#x443;&#x440;&#x441; 1</title><g data-name="&#x421;&#x43B;&#x43E;&#x439; 2"><g data-name="MDriven _Turnkey"><g fill="#3d3d3d" stroke="#3d3d3d" stroke-miterlimit="10"><path d="M24.9 25.5L19.5 7.1h-.1q.3 5.55.3 7.5v10.9h-4.3V2h6.5l5.4 17.9h.1L33 2h6.5v23.5H35V12.6c0-.7.1-2.5.2-5.5h-.1l-5.8 18.4zM64 13.5c0 3.9-1.1 6.8-3.2 8.9s-5.2 3.1-9.2 3.1h-6.4V2h7.1c3.7 0 6.6 1 8.6 3S64 9.9 64 13.5zm-5 .1c0-5-2.1-7.6-6.4-7.6H50v15.3h2.1c4.6.1 6.9-2.5 6.9-7.7zM77.9 7.2a7.59 7.59 0 0 1 1.6.1l-.4 4.6a5.21 5.21 0 0 0-1.4-.2 4.79 4.79 0 0 0-3.5 1.2 4.59 4.59 0 0 0-1.3 3.4v9.2h-4.7v-18h3.6l.7 3h.2a6.36 6.36 0 0 1 2.2-2.4 5.79 5.79 0 0 1 3-.9zM82.5 2.9c0-1.6.8-2.4 2.5-2.4s2.6.8 2.6 2.4a2.44 2.44 0 0 1-.6 1.8 2.71 2.71 0 0 1-1.9.6c-1.8 0-2.6-.8-2.6-2.4zm4.9 22.6h-4.7v-18h4.7zM96.5 25.5l-6.6-18h4.9l3.3 10.2a17.15 17.15 0 0 1 .7 3.7h.1a21.32 21.32 0 0 1 .7-3.7L103 7.5h4.9l-6.6 18zM118.2 25.8a8.53 8.53 0 0 1-6.5-2.4 9.25 9.25 0 0 1-2.4-6.8c0-3 .7-5.3 2.2-7a7.75 7.75 0 0 1 6-2.5 7.39 7.39 0 0 1 5.7 2.2c1.4 1.4 2 3.4 2 6v2.4H114a4.9 4.9 0 0 0 1.2 3.3 4 4 0 0 0 3.1 1.2 15.26 15.26 0 0 0 3-.3 11.48 11.48 0 0 0 2.9-1.1v3.7a20 20 0 0 1-2.6 1 16.5 16.5 0 0 1-3.4.3zm-.7-15.1a3 3 0 0 0-2.4 1 4.71 4.71 0 0 0-1 2.8h6.6a4.1 4.1 0 0 0-.9-2.8 2.64 2.64 0 0 0-2.3-1zM145 25.5h-4.7V15a4.6 4.6 0 0 0-.7-2.9 2.39 2.39 0 0 0-2.1-1 3.3 3.3 0 0 0-2.9 1.4 8.6 8.6 0 0 0-.9 4.6v8.4H129v-18h3.6l.6 2.3h.3a4.78 4.78 0 0 1 2.2-2 7.83 7.83 0 0 1 3.1-.7 6.19 6.19 0 0 1 4.6 1.7 7.2 7.2 0 0 1 1.6 4.9v11.8zM26.2 54.2h-4.8V34.9h-6.1v-4.1h17.1v4.1h-6.1v19.3zM47.7 54.2l-.7-2.3h-.2a4.84 4.84 0 0 1-2.1 1.9 6.57 6.57 0 0 1-3.2.7 6 6 0 0 1-4.6-1.7 7.18 7.18 0 0 1-1.5-4.9V36.3H40v10.5a4.6 4.6 0 0 0 .7 2.9 2.39 2.39 0 0 0 2.1 1 3.3 3.3 0 0 0 2.9-1.4 8.6 8.6 0 0 0 .9-4.6v-8.4h4.7v17.9zM65.9 36a7.59 7.59 0 0 1 1.6.1l-.4 4.6a5.21 5.21 0 0 0-1.4-.2 4.79 4.79 0 0 0-3.5 1.2 4.59 4.59 0 0 0-1.3 3.4v9.1h-4.7V36.3h3.6l.7 3h.2a6.36 6.36 0 0 1 2.2-2.4 5.29 5.29 0 0 1 3-.9zM86.6 54.2h-4.7V43.8a4.6 4.6 0 0 0-.7-2.9 2.39 2.39 0 0 0-2.1-1 3.3 3.3 0 0 0-2.9 1.4 8.6 8.6 0 0 0-.9 4.6v8.4h-4.7v-18h3.6l.6 2.3h.3a4.78 4.78 0 0 1 2.2-2 7.83 7.83 0 0 1 3.1-.7 6.19 6.19 0 0 1 4.6 1.7 7.2 7.2 0 0 1 1.6 4.9zM96 44.5l2.1-2.7 4.8-5.5h5.3l-6.9 7.8 7.3 10.2h-5.4l-5-7.3-2 1.7v5.6h-4.7v-25h4.7v11.1l-.2 4.1zM118.9 54.6a8.53 8.53 0 0 1-6.5-2.4 9.25 9.25 0 0 1-2.4-6.8c0-3 .7-5.3 2.2-7a7.75 7.75 0 0 1 6-2.5 7.39 7.39 0 0 1 5.7 2.2c1.4 1.4 2 3.4 2 6v2.4h-11.2a4.9 4.9 0 0 0 1.2 3.3A4 4 0 0 0 119 51a15.26 15.26 0 0 0 3-.3 11.48 11.48 0 0 0 2.9-1.1v3.8a20 20 0 0 1-2.6 1 31.14 31.14 0 0 1-3.4.2zm-.7-15.2a3 3 0 0 0-2.4 1 4.71 4.71 0 0 0-1 2.8h6.6a4.1 4.1 0 0 0-.9-2.8 2.93 2.93 0 0 0-2.3-1zM127.3 36.3h5.2l3.3 10.1a13.12 13.12 0 0 1 .6 3.1h.1a10.76 10.76 0 0 1 .7-3.1l3.2-10.1h5.1L138 56.5a8.34 8.34 0 0 1-2.9 4.2 7.22 7.22 0 0 1-4.4 1.4 9.86 9.86 0 0 1-2.4-.3v-3.9a11.08 11.08 0 0 0 1.9.2 3.49 3.49 0 0 0 2.2-.8 5.51 5.51 0 0 0 1.5-2.4l.3-.9z"/></g><circle cx="316.5" cy="169" r="88" style="isolation:isolate" fill="#e57512" opacity=".8"/><g fill="#fff"><path d="M331.3 125.5a4.25 4.25 0 0 1 1.1.2c2.9 1 4.5 6.4 4.3 14.6-.2 9.1-2.6 20.5-6.6 32.1-8.2 23.6-20 38.1-26.2 38.1a4.25 4.25 0 0 1-1.1-.2c-2.9-1-4.5-6.4-4.3-14.6.2-9.1 2.6-20.5 6.6-32.1 8.2-23.5 20-38.1 26.2-38.1m0-2c-8 0-20.1 16.8-28.1 39.5-8.5 24.4-9.1 46.5-1.1 49.2a5.08 5.08 0 0 0 1.7.3c8 0 20.1-16.8 28.1-39.5 8.5-24.4 9.1-46.5 1.1-49.2a4.67 4.67 0 0 0-1.7-.3z"/><path d="M288.2 139.6v1c9.9 0 23.8 4.5 37 12.2 10.7 6.2 19.8 13.7 25.7 21 5.5 7 7.4 13.3 5.2 17.2-2.2 3.7-7.5 4.5-11.6 4.5-9.9 0-23.8-4.5-37-12.2-10.7-6.2-19.8-13.7-25.7-21-5.5-7-7.4-13.3-5.2-17.2 2.2-3.7 7.5-4.5 11.6-4.5v-1m0 0c-6 0-10.5 1.6-12.4 5-5.2 8.9 8.8 26.6 31.2 39.6 13.9 8 27.7 12.3 37.5 12.3 6 0 10.5-1.6 12.4-5 5.2-8.9-8.8-26.6-31.2-39.6-13.9-8-27.7-12.3-37.5-12.3z"/><path d="M290.4 132.4v1c9.7 0 25.1 8.9 38.4 22.2 8.8 8.8 15.6 18.3 19.3 27 3.5 8.2 3.8 14.8.6 17.9-1.5 1.5-3.7 2.2-6.5 2.2-9.7 0-25.1-8.9-38.4-22.2-8.8-8.8-15.6-18.3-19.3-27-3.5-8.2-3.8-14.8-.6-17.9 1.5-1.5 3.7-2.2 6.5-2.2v-1m0 0c-3 0-5.5.8-7.2 2.5-7.3 7.3 1.6 28 19.9 46.3 14 14 29.4 22.5 39.1 22.5 3 0 5.5-.8 7.2-2.5 7.3-7.3-1.6-28-19.9-46.3-13.9-14-29.3-22.5-39.1-22.5z"/><path d="M309.4 122.5a8.75 8.75 0 0 0-1.6.2c-.1 0-.2.1-.3.1a.55.55 0 0 0-.4.6.66.66 0 0 0 .5.4h.1c.1 0 .2-.1.3-.1a6.6 6.6 0 0 1 1.4-.1.47.47 0 0 0 .5-.5c0-.4-.2-.6-.5-.6zm-3.6 1c-.1 0-.2 0-.2.1a8.34 8.34 0 0 0-1.2.8l-.2.2a.48.48 0 0 0 0 .7.52.52 0 0 0 .4.2.37.37 0 0 0 .3-.1 6.08 6.08 0 0 1 1.4-1 .57.57 0 0 0 .2-.7 2.54 2.54 0 0 0-.7-.2zM303 126a.76.76 0 0 0-.4.2c-.4.5-.7 1-1.1 1.6a.53.53 0 0 0 .2.7c.1 0 .2.1.3.1a.52.52 0 0 0 .4-.2 5.83 5.83 0 0 1 1.1-1.5.49.49 0 0 0-.1-.7c-.2-.2-.3-.2-.4-.2zm-2 3.3a.55.55 0 0 0-.5.3c-.1.1-.1.3-.2.4a.42.42 0 0 0 .3.6h.2a.55.55 0 0 0 .5-.3 14.17 14.17 0 0 1 .8-1.8.66.66 0 0 0-.2-.7c-.8 1.5-.9 1.5-.9 1.5zm-1.5 3.7a.55.55 0 0 0-.5.3 13.32 13.32 0 0 0-.5 1.9c-.1.3.1.5.4.6h.1a.66.66 0 0 0 .5-.4c.2-.6.3-1.3.5-1.9a.49.49 0 0 0-.3-.6c-.1.1-.1.1-.2.1zm-.9 3.8a.66.66 0 0 0-.5.4.37.37 0 0 1-.1.3c0 .2-.1.4-.1.6a.55.55 0 0 0 .4.6h.1c.2 0 .5-.2.5-.4a10.62 10.62 0 0 1 .4-1.9c.1-.3-.1-.5-.4-.6l-.3 1zm-.7 3.9c-.2 0-.5.2-.5.4-.1.5-.1 1-.2 1.6v.3a.46.46 0 0 0 .4.5.47.47 0 0 0 .5-.5c.1-.7.1-1.3.2-2 .1 0 0-.3-.4-.3zm-.4 3.9a.47.47 0 0 0-.5.5c0 .7-.1 1.3-.1 2a.47.47 0 0 0 .5.5.47.47 0 0 0 .5-.5c0-.7.1-1.3.1-2 0-.2-.2-.4-.5-.5zm-.1 4a.47.47 0 0 0-.5.5V150.6a.47.47 0 0 0 .5.5.47.47 0 0 0 .5-.5v-2c0 .2-.2 0-.5 0zm0 4a.47.47 0 0 0-.5.5v1.3a.47.47 0 0 0 .5.5.47.47 0 0 0 .5-.5c0-.7-.1-1.3-.1-2 .1.4-.1.2-.4.2zm.2 4a.54.54 0 0 0-.5.5v.4c0 .5.1 1 .1 1.5a.47.47 0 0 0 .5.5.54.54 0 0 0 .5-.5c-.1-.7-.1-1.3-.2-2 .1-.2-.1-.4-.4-.4zm.4 3.9a.56.56 0 0 0-.5.6c.1.6.1 1.3.2 1.9 0 .3.2.4.5.4h.1a.44.44 0 0 0 .4-.6 13.55 13.55 0 0 1-.2-2 .85.85 0 0 0-.5-.3zm.5 4a.56.56 0 0 0-.5.6v.1c.1.6.2 1.1.3 1.7 0 .2.3.4.5.4h.1a.44.44 0 0 0 .4-.6c-.1-.7-.2-1.3-.3-2a.76.76 0 0 0-.5-.2zm.6 3.9c-.4.1-.5.3-.5.6a12.86 12.86 0 0 0 .4 1.9c0 .2.3.4.5.4h.1a.55.55 0 0 0 .4-.6c-.1-.7-.3-1.3-.4-1.9a.46.46 0 0 0-.5-.4zm.8 3.9h-.1a.55.55 0 0 0-.4.6c.1.4.2.9.3 1.3v.5a.66.66 0 0 0 .5.4h.1a.55.55 0 0 0 .4-.6 12.86 12.86 0 0 1-.4-1.9.45.45 0 0 0-.4-.3zm.9 3.9h-.1a.55.55 0 0 0-.4.6 2.92 2.92 0 0 1 .2.9.66.66 0 0 0 .5.4h.1a.55.55 0 0 0 .4-.6c-.2-.6-.3-1.3-.5-1.9.2.7 0 .6-.2.6zm1.1 3.8h-.1a.45.45 0 0 0-.3.6c.1.2.1.4.2.6a5.64 5.64 0 0 0 .4 1.2.66.66 0 0 0 .5.4h.1a.45.45 0 0 0 .3-.6c-.2-.6-.4-1.3-.6-1.9a.85.85 0 0 0-.5-.3zm1.1 3.8h-.2a.45.45 0 0 0-.3.6c.1.4.3.8.4 1.2.1.2.1.4.2.5a.55.55 0 0 0 .5.3h.2a.45.45 0 0 0 .3-.6c-.2-.6-.4-1.2-.6-1.9-.1.1-.3-.1-.5-.1zm1.4 3.8h-.2a.45.45 0 0 0-.3.6c0 .1 0 .1.1.2l.3.9a.55.55 0 0 0 .5.3h.2a.45.45 0 0 0 .3-.6c-.2-.6-.5-1.2-.7-1.8.2.5 0 .4-.2.4zm1.4 3.7h-.2a.52.52 0 0 0-.3.7c.3.6.5 1.2.8 1.8a.55.55 0 0 0 .5.3h.2a.52.52 0 0 0 .3-.7c-.3-.6-.5-1.2-.8-1.8a.55.55 0 0 0-.5-.3zm1.7 3.6h-.2a.48.48 0 0 0-.2.7l.6 1.2a2.19 2.19 0 0 0 .3.5.54.54 0 0 0 .4.3c.1 0 .2 0 .2-.1a.57.57 0 0 0 .2-.7l-.9-1.8c-.1 0-.2-.1-.4-.1zm1.8 3.5c-.1 0-.2 0-.2.1a.57.57 0 0 0-.2.7c.1.2.3.5.4.7v.1c.2.3.3.6.5.9a.4.4 0 0 0 .4.2.37.37 0 0 0 .3-.1.57.57 0 0 0 .2-.7c-.3-.6-.7-1.1-1-1.7a.52.52 0 0 0-.4-.2zm2 3.5a.37.37 0 0 0-.3.1.62.62 0 0 0-.2.7c.4.6.7 1.1 1.1 1.7a.76.76 0 0 0 .4.2.37.37 0 0 0 .3-.1.49.49 0 0 0 .1-.7c-.4-.5-.7-1.1-1.1-1.6 0-.3-.1-.3-.3-.3zm2.2 3.2a.37.37 0 0 0-.3.1.49.49 0 0 0-.1.7 5.49 5.49 0 0 0 .7.9c.1.1.2.3.3.4a.52.52 0 0 0 .4.2.37.37 0 0 0 .3-.1.62.62 0 0 0 .1-.7l-1.2-1.5c.1.1 0 0-.2 0zm2.6 3a.37.37 0 0 0-.3.1.48.48 0 0 0 0 .7l1.4 1.4a.37.37 0 0 0 .3.1.76.76 0 0 0 .4-.2.48.48 0 0 0 0-.7 18.48 18.48 0 0 1-1.4-1.4c-.2.1-.3 0-.4 0zm2.9 2.7a.76.76 0 0 0-.4.2.49.49 0 0 0 .1.7 15.26 15.26 0 0 0 1.6 1.1c.1 0 .2.1.3.1a.52.52 0 0 0 .4-.2.53.53 0 0 0-.2-.7c-.5-.3-1-.7-1.6-1.1 0-.1-.1-.1-.2-.1zm3.3 2a.55.55 0 0 0-.5.3c-.1.3 0 .5.3.7.6.2 1.2.4 1.7.6h.2a.66.66 0 0 0 .5-.4c.1-.3-.1-.5-.4-.6a10.93 10.93 0 0 1-1.7-.5.1.1 0 0 0-.1-.1zm5.5.4h-.1a1.27 1.27 0 0 1-.6.1 4.48 4.48 0 0 1-1.1.1.5.5 0 0 0 0 1 4.1 4.1 0 0 0 1.1-.1c.1 0 .2-.1.3-.1a.45.45 0 0 0 .3-.6c.5-.3.3-.4.1-.4zm3.2-1.9a.37.37 0 0 0-.3.1 13.45 13.45 0 0 1-1.4 1.1.62.62 0 0 0-.2.7.4.4 0 0 0 .4.2.37.37 0 0 0 .3-.1 4.44 4.44 0 0 0 1.1-.8 1.38 1.38 0 0 1 .4-.3.48.48 0 0 0 0-.7c0-.2-.2-.2-.3-.2zm2.4-3.1a.52.52 0 0 0-.4.2c-.3.6-.7 1.1-1 1.6a.49.49 0 0 0 .1.7.37.37 0 0 0 .3.1.76.76 0 0 0 .4-.2c.1-.1.2-.2.2-.3l.1-.1c.2-.3.4-.7.6-1a.53.53 0 0 0-.2-.7c0-.3-.1-.3-.1-.3zm1.6-3.5a.55.55 0 0 0-.5.3c-.2.6-.5 1.2-.7 1.8a.62.62 0 0 0 .2.7h.2a.55.55 0 0 0 .5-.3 11.73 11.73 0 0 0 .5-1.1c.1-.1.1-.3.2-.4a.42.42 0 0 0-.3-.6c0-.4 0-.4-.1-.4zm1.2-3.8a.66.66 0 0 0-.5.4c-.2.6-.3 1.3-.5 1.9a.49.49 0 0 0 .3.6h.1a.51.51 0 0 0 .5-.4c.2-.6.3-1.1.5-1.7.1-.3-.1-.5-.4-.6v-.2zm.7-3.9c-.2 0-.5.2-.5.4-.1.7-.2 1.3-.3 1.9-.1.3.1.5.4.6h.1a.66.66 0 0 0 .5-.4c0-.2.1-.3.1-.5s.1-.4.1-.6c0-.2.1-.4.1-.6a.58.58 0 0 0-.5-.8zm.5-3.9a.47.47 0 0 0-.5.5c-.1.7-.1 1.3-.2 2a.68.68 0 0 0 .4.6h.1c.2 0 .5-.2.5-.4v-.4a6.6 6.6 0 0 0 .1-1.4c.2-.6 0-.9-.4-.9zm.3-4a.47.47 0 0 0-.5.5c0 .7-.1 1.3-.1 2a.47.47 0 0 0 .5.5.47.47 0 0 0 .5-.5c0-.7.1-1.3.1-2a.54.54 0 0 0-.5-.5zm0-3.9a.47.47 0 0 0-.5.5v2a.47.47 0 0 0 .5.5.47.47 0 0 0 .5-.5V186c0-.6-.2-.8-.5-.8zm-.1-4a.54.54 0 0 0-.5.5c0 .7.1 1.3.1 2a.47.47 0 0 0 .5.5.47.47 0 0 0 .5-.5c0-.7-.1-1.3-.1-2a.47.47 0 0 0-.5-.5zm-.3-4a.54.54 0 0 0-.5.5c.1.7.1 1.3.2 2a.47.47 0 0 0 .5.5.54.54 0 0 0 .5-.5c0-.4-.1-.7-.1-1.1a2 2 0 0 0-.1-.7c0-.5-.2-.7-.5-.7zm-.4-3.9a.56.56 0 0 0-.5.6 13.55 13.55 0 0 1 .2 2c0 .3.2.4.5.4h.1a.44.44 0 0 0 .4-.6 13.55 13.55 0 0 1-.2-2 .51.51 0 0 0-.5-.4zm-.6-4c-.4.1-.5.3-.5.6.1.7.2 1.3.3 2 0 .2.3.4.5.4h.1a.44.44 0 0 0 .4-.6v-.5c0-.3-.1-.5-.1-.8-.3-.9-.5-1.1-.7-1.1zm-.7-3.9c-.4.1-.5.3-.5.6.1.7.3 1.3.4 1.9 0 .2.3.4.5.4h.1c.3-.1.5-.3.4-.6s-.1-.3-.1-.5c-.1-.4-.2-.9-.3-1.4a.66.66 0 0 0-.5-.4zm-.9-3.9h-.1a.55.55 0 0 0-.4.6 12.86 12.86 0 0 1 .4 1.9.66.66 0 0 0 .5.4h.1a.55.55 0 0 0 .4-.6c0-.1-.1-.3-.1-.4l-.3-1.5a.66.66 0 0 0-.5-.4zm-1-3.8h-.1a.55.55 0 0 0-.4.6c.2.6.3 1.3.5 1.9a.66.66 0 0 0 .5.4h.1a.55.55 0 0 0 .4-.6c-.2-.7-.3-1.3-.5-1.9a.51.51 0 0 0-.5-.4zm-1.1-3.9h-.1a.45.45 0 0 0-.3.6c.2.6.4 1.3.6 1.9a.66.66 0 0 0 .5.4h.1a.45.45 0 0 0 .3-.6c-.2-.6-.4-1.3-.6-1.9a.66.66 0 0 0-.5-.4zm-1.3-3.7h-.2a.45.45 0 0 0-.3.6c.2.6.4 1.2.6 1.9a.55.55 0 0 0 .5.3h.2a.45.45 0 0 0 .3-.6 14.58 14.58 0 0 0-.7-1.9c0-.2-.2-.3-.4-.3zm-1.4-3.8h-.2a.52.52 0 0 0-.3.7c.2.6.5 1.2.7 1.8a.55.55 0 0 0 .5.3h.2a.45.45 0 0 0 .3-.6c-.2-.6-.5-1.3-.7-1.9a.55.55 0 0 0-.5-.3zm-1.5-3.6h-.2a.43.43 0 0 0-.2.7c.3.6.5 1.2.8 1.8a.55.55 0 0 0 .5.3h.2c.2-.1.4-.4.3-.6-.3-.6-.5-1.2-.8-1.9-.3-.2-.4-.3-.6-.3zm-1.8-3.6c-.1 0-.2 0-.2.1a.57.57 0 0 0-.2.7l.9 1.8a.55.55 0 0 0 .5.3c.1 0 .1 0 .2-.1a.57.57 0 0 0 .2-.7l-.9-1.8a.55.55 0 0 0-.5-.3zm-1.9-3.5a.37.37 0 0 0-.3.1.57.57 0 0 0-.2.7c.3.6.7 1.1 1 1.7a.54.54 0 0 0 .4.3c.1 0 .2 0 .2-.1a.57.57 0 0 0 .2-.7c-.3-.6-.7-1.2-1-1.8 0-.1-.1-.2-.3-.2zm-2.1-3.3a.37.37 0 0 0-.3.1.49.49 0 0 0-.1.7c.4.5.7 1.1 1.1 1.6a.76.76 0 0 0 .4.2.37.37 0 0 0 .3-.1.57.57 0 0 0 .2-.7 16.29 16.29 0 0 1-1.1-1.7 4.33 4.33 0 0 1-.5-.1zm-2.4-3.1a.37.37 0 0 0-.3.1.62.62 0 0 0-.1.7l1.2 1.5a.52.52 0 0 0 .4.2.37.37 0 0 0 .3-.1.49.49 0 0 0 .1-.7 10.1 10.1 0 0 0-1.3-1.6.37.37 0 0 0-.3-.1zm-2.8-2.9a.76.76 0 0 0-.4.2.48.48 0 0 0 0 .7c.5.4.9.9 1.4 1.3a.52.52 0 0 0 .4.2.37.37 0 0 0 .3-.1.48.48 0 0 0 0-.7 19.2 19.2 0 0 0-1.5-1.4c.1-.1-.1-.2-.2-.2zm-3.1-2.3a.52.52 0 0 0-.4.2.53.53 0 0 0 .2.7c.5.3 1 .6 1.6 1a.37.37 0 0 0 .3.1.52.52 0 0 0 .4-.2.49.49 0 0 0-.1-.7 16.29 16.29 0 0 0-1.7-1.1zm-3.5-1.4a.66.66 0 0 0-.5.4.55.55 0 0 0 .4.6 10.93 10.93 0 0 1 1.7.5h.2a.55.55 0 0 0 .5-.3.42.42 0 0 0-.3-.6c-.7-.2-1.3-.4-2-.6z"/><path d="M334.7 147.6h-.8c-.1 0-.2.1-.2.3a.22.22 0 0 0 .2.2h1a.35.35 0 0 0 .2-.1c0 .1.1.1.2.1h1a.22.22 0 0 0 .2-.2c0-.1-.1-.3-.2-.3h-.9a.35.35 0 0 0-.2.1 2 2 0 0 1-.5-.1zm-2 0h-.7c-.1 0-.2.1-.2.3a.22.22 0 0 0 .2.2h1c.1 0 .2-.1.2-.3-.3-.1-.4-.2-.5-.2zm-2 .1h-.9c-.1 0-.2.1-.2.3a.22.22 0 0 0 .2.2h1c.1 0 .2-.1.2-.3s-.2-.2-.3-.2zm-2 .1h-1c-.1 0-.2.1-.2.3a.22.22 0 0 0 .2.2 3.4 3.4 0 0 0 1-.1c.1 0 .2-.1.2-.3a.35.35 0 0 0-.2-.1zm-2 .2h-.7c-.1 0-.2.1-.2.3a.22.22 0 0 0 .2.2c.3 0 .7-.1 1-.1.1 0 .2-.1.2-.3a2 2 0 0 1-.5-.1zm-2 .1h-.9c-.1 0-.2.1-.2.3a.22.22 0 0 0 .2.2c.3 0 .7-.1 1-.1.1 0 .2-.1.2-.3a1 1 0 0 0-.3-.1zm-2 .3c-.3 0-.5.1-.8.1h-.1c-.1 0-.2.1-.2.3a.22.22 0 0 0 .2.2c.3 0 .7-.1 1-.1.1 0 .2-.1.2-.3s-.1-.2-.3-.2zm-1.9.2c-.4 0-.7.1-1 .1-.1 0-.2.1-.2.3a.22.22 0 0 0 .2.2c.3 0 .7-.1 1-.1.1 0 .2-.1.2-.3a.22.22 0 0 0-.2-.2zm-2 .3c-.2 0-.4.1-.6.1h-.3c-.1 0-.2.2-.2.3a.22.22 0 0 0 .2.2c.3-.1.7-.1 1-.2.1 0 .2-.1.2-.3-.1 0-.2-.1-.3-.1zm-2 .4c-.2 0-.3.1-.5.1h-.1a.6.6 0 0 0-.4.1c-.1 0-.2.2-.2.3a.22.22 0 0 0 .2.2c.3-.1.7-.1 1-.2.1 0 .2-.2.2-.3s-.1-.2-.2-.2zm-1.9.3h-.7c-.1 0-.2.2-.2.3a.22.22 0 0 0 .2.2c.3-.1.7-.1 1-.2.1 0 .2-.2.2-.3a.78.78 0 0 1-.5 0zm-2 .4h-.2c-.3.1-.5.1-.8.2-.1 0-.2.2-.2.3a.22.22 0 0 0 .2.2h.1c.3-.1.5-.1.8-.2h.2c.1 0 .2-.2.2-.3s-.2-.2-.3-.2zm-2 .4a4.4 4.4 0 0 1-1 .2c-.1 0-.2.2-.2.3a.22.22 0 0 0 .2.2h.1a3 3 0 0 1 1-.2c.1 0 .2-.2.2-.3s-.1-.2-.3-.2zm-1.9.5c-.2 0-.3.1-.5.1h-.2c-.1 0-.2.1-.3.1s-.2.2-.2.3a.22.22 0 0 0 .2.2h.1a3 3 0 0 1 1-.2c.1 0 .2-.2.2-.3s-.2-.2-.3-.2zm-1.9.5h-.1c-.2.1-.5.1-.7.2-.1 0-.2.2-.2.3a.22.22 0 0 0 .2.2h.1c.3-.1.6-.2 1-.3.1 0 .2-.2.2-.3a2 2 0 0 1-.5-.1zm-2 .5a3.09 3.09 0 0 1-.8.2h-.1c-.1 0-.2.2-.2.3a.22.22 0 0 0 .2.2h.1c.3-.1.6-.2 1-.3.1 0 .2-.2.2-.3s-.2-.1-.4-.1zm-1.9.6c-.2 0-.3.1-.4.1-.2.1-.4.1-.5.2s-.2.2-.2.3a.22.22 0 0 0 .2.2h.1c.3-.1.6-.2 1-.3.1 0 .2-.2.2-.3-.2-.1-.3-.2-.4-.2zm-1.9.6c-.2.1-.4.1-.6.2-.1 0-.2.1-.3.1s-.2.2-.2.3a.22.22 0 0 0 .2.2h.1l.9-.3c.1 0 .2-.2.2-.3s-.2-.2-.3-.2zm-1.9.6c-.2 0-.3.1-.4.1-.2.1-.4.1-.6.2s-.2.2-.2.3a.22.22 0 0 0 .2.2h.1l.9-.3c.1 0 .2-.2.2-.3a.22.22 0 0 0-.2-.2zm-1.8.7h-.1c-.3.1-.5.2-.8.3a.19.19 0 0 0-.1.3.22.22 0 0 0 .2.2h.1l.9-.3a.19.19 0 0 0 .1-.3c-.1-.2-.2-.2-.3-.2zm-1.9.7h-.1c-.1 0-.2.1-.3.1-.1 0-.1.1-.2.1s-.2.2-.1.3a.22.22 0 0 0 .2.2h.1a3.55 3.55 0 0 0 .9-.4c.1-.1.2-.2.1-.3zm-1.9.7a4.88 4.88 0 0 0-.7.3c-.1 0-.1.1-.2.1s-.2.2-.1.3a.22.22 0 0 0 .2.2h.1c.3-.1.6-.3.9-.4.1-.1.2-.2.1-.3s-.2-.2-.3-.2zm-1.8.8h-.1c-.3.1-.6.3-.9.4-.1.1-.2.2-.1.3s.1.1.2.1h.1c.3-.1.6-.3.9-.4.1-.1.2-.2.1-.3a.35.35 0 0 0-.2-.1zm-1.8.8h-.1c-.3.1-.6.3-.9.4-.1.1-.2.2-.1.3s.1.1.2.1h.1c.3-.1.6-.3.9-.4.1-.1.2-.2.1-.3a.35.35 0 0 0-.2-.1zm-1.8.9h-.1a5.94 5.94 0 0 0-.8.4c-.1.1-.2.2-.1.3s.1.1.2.1h.1c.3-.2.6-.3.9-.5.1-.1.2-.2.1-.3-.1.1-.2 0-.3 0zm-1.8.9h-.1c-.3.2-.6.3-.9.5-.1.1-.2.2-.1.3s.1.1.2.1h.1c.3-.2.6-.3.9-.5.1-.1.2-.2.1-.3a.35.35 0 0 0-.2-.1zm-1.7 1h-.1c-.1 0-.1.1-.2.1-.2.1-.3.2-.5.3a.1.1 0 0 0-.1.1c-.1.1-.2.2-.1.3s.1.1.2.1h.1c.3-.2.6-.3.9-.5.1-.1.2-.2.1-.3s-.2-.1-.3-.1zm-1.7 1h-.1c-.3.2-.5.3-.8.5a.37.37 0 0 0-.1.3c0 .1.1.1.2.1h.1a9.23 9.23 0 0 1 .8-.5c.1-.1.2-.2.1-.3s-.1-.1-.2-.1zm-1.7 1.1h-.1a5.55 5.55 0 0 0-.8.6.37.37 0 0 0-.1.3c0 .1.1.1.2.1h.1c.3-.2.5-.4.8-.6a.37.37 0 0 0 .1-.3c0-.1-.1-.1-.2-.1zm-1.6 1.1h-.1c-.1.1-.2.1-.3.2-.2.1-.3.3-.5.4a.19.19 0 0 0 0 .3c0 .1.1.1.2.1s.1 0 .2-.1c.3-.2.5-.4.8-.6a.37.37 0 0 0 .1-.3c-.3.1-.4 0-.4 0zm-1.6 1.2c-.1 0-.1 0-.2.1l-.3.3a1.38 1.38 0 0 1-.4.3c-.1.1-.1.2 0 .4s.1.1.2.1.1 0 .2-.1a5.55 5.55 0 0 1 .8-.6c.1-.1.1-.2 0-.4-.2 0-.2-.1-.3-.1zm-1.5 1.3c-.1 0-.1 0-.2.1a4.62 4.62 0 0 0-.7.7.3.3 0 0 0 0 .4c0 .1.1.1.2.1s.1 0 .2-.1a4.62 4.62 0 0 0 .7-.7.3.3 0 0 0 0-.4.31.31 0 0 0-.2-.1zm-1.5 1.4c-.1 0-.1 0-.2.1l-.3.3a1.38 1.38 0 0 0-.3.4.3.3 0 0 0 0 .4.35.35 0 0 0 .2.1c.1 0 .1 0 .2-.1a4.62 4.62 0 0 1 .7-.7.3.3 0 0 0 0-.4.37.37 0 0 0-.3-.1zm-1.3 1.5c-.1 0-.1 0-.2.1s-.1.2-.2.2c-.1.1-.2.2-.2.3s-.1.3.1.3h.1c.1 0 .2 0 .2-.1.2-.3.4-.5.6-.8a.3.3 0 0 0 0-.4c-.3.4-.3.4-.4.4zm-1.2 1.5c-.1 0-.2 0-.2.1s-.2.3-.3.5c0 .1-.1.1-.1.2a.19.19 0 0 0 .1.3h.1c.1 0 .2 0 .2-.1.2-.3.3-.5.5-.8a.19.19 0 0 0-.1-.3c-.1.2-.1.1-.2.1zm-.9 1.7a.35.35 0 0 0-.2.1.1.1 0 0 1-.1.1c-.1.3-.2.5-.3.8 0 .1 0 .3.1.3h.1a.22.22 0 0 0 .2-.2 3.55 3.55 0 0 1 .4-.9.19.19 0 0 0-.1-.3c-.1.2-.1.1-.1.1zm-.8 1.9a.22.22 0 0 0-.2.2 3.55 3.55 0 0 0-.2 1c0 .1.1.3.2.3a.22.22 0 0 0 .2-.2c.1-.3.1-.6.2-.9s0-.4-.2-.4zm-.3 1.9a.22.22 0 0 0-.2.2V176.9a.22.22 0 0 0 .2.2c.1 0 .2-.1.2-.3v-.9c.1 0 0-.1-.2-.1zm.2 1.9c-.2 0-.3.2-.2.3.1.3.1.6.2.9a.22.22 0 0 0 .2.2h.1c.1 0 .2-.2.2-.3a2.92 2.92 0 0 1-.2-.9c-.1-.1-.2-.2-.3-.2zm.6 1.8h-.1c-.1.1-.2.2-.1.3a4.05 4.05 0 0 0 .5.9c0 .1.1.1.2.1h.1a.37.37 0 0 0 .1-.3c-.2-.3-.3-.5-.5-.8a.22.22 0 0 0-.2-.2zm1 1.7c-.1 0-.1 0-.2.1s-.1.2 0 .4l.3.3.2.2a.35.35 0 0 0 .2.1c.1 0 .1 0 .2-.1a.3.3 0 0 0 0-.4c-.2-.2-.4-.5-.6-.7.1.1 0 .1-.1.1zm1.4 1.3c-.1 0-.1 0-.2.1a.3.3 0 0 0 0 .4c.2.1.3.3.5.4h.1c.1 0 .2 0 .2-.1s.1-.3-.1-.3c-.3-.2-.5-.4-.8-.6.4.2.4.1.3.1zm1.6 1.2c-.1 0-.2 0-.2.1a.19.19 0 0 0 .1.3c.3.2.6.3.9.5h.1c.1 0 .2 0 .2-.1a.19.19 0 0 0-.1-.3 5.58 5.58 0 0 1-.8-.5zm1.7 1a.35.35 0 0 0-.2.1.19.19 0 0 0 .1.3c.3.1.5.3.8.4h.2a.35.35 0 0 0 .2-.1.19.19 0 0 0-.1-.3c-.3-.1-.6-.3-.9-.4zm1.8.8a.22.22 0 0 0-.2.2.19.19 0 0 0 .1.3.31.31 0 0 1 .2.1c.2.1.3.1.5.2h.1a.22.22 0 0 0 .2-.2c0-.1 0-.3-.1-.3s-.4-.2-.8-.3zm1.9.7a.22.22 0 0 0-.2.2c0 .1 0 .3.2.3.3.1.5.2.8.3h.1a.22.22 0 0 0 .2-.2c0-.1 0-.3-.2-.3a4.65 4.65 0 0 0-.9-.3zm1.9.5a.22.22 0 0 0-.2.2c0 .1 0 .3.2.3a.37.37 0 0 1 .3.1c.1 0 .3.1.4.1h.3a.22.22 0 0 0 .2-.2c0-.1-.1-.3-.2-.3a4.4 4.4 0 0 1-1-.2zm1.9.5a.22.22 0 0 0-.2.2c0 .1.1.3.2.3.3.1.6.1.9.2a.22.22 0 0 0 .2-.2c0-.1-.1-.3-.2-.3a6.38 6.38 0 0 0-.9-.2zm2 .4a.22.22 0 0 0-.2.2c0 .1.1.3.2.3s.5.1.7.1h.2a.22.22 0 0 0 .2-.2c0-.1-.1-.3-.2-.3s-.6-.1-.9-.1zm1.9.3a.22.22 0 0 0-.2.2c0 .1.1.3.2.3h.1a.6.6 0 0 1 .4.1.6.6 0 0 1 .4.1.22.22 0 0 0 .2-.2c0-.1-.1-.3-.2-.3a2 2 0 0 0-.9-.2zm2 .2a.22.22 0 0 0-.2.2c0 .1.1.3.2.3a1.27 1.27 0 0 1 .6.1h.3a.22.22 0 0 0 .2-.2c0-.1-.1-.3-.2-.3a3.45 3.45 0 0 1-.9-.1zm2 .2a.22.22 0 0 0-.2.2c0 .1.1.3.2.3a3.4 3.4 0 0 1 1 .1.22.22 0 0 0 .2-.2c0-.1-.1-.3-.2-.3a3.4 3.4 0 0 0-1-.1zm2 .1a.22.22 0 0 0-.2.2c0 .1.1.3.2.3h.9a.22.22 0 0 0 .2-.2c0-.1-.1-.3-.2-.3zm2 .1a.22.22 0 0 0-.2.2c0 .1.1.3.2.3h.9a.22.22 0 0 0 .2-.2c0-.1-.1-.3-.2-.3zm3 0h-1c-.1 0-.2.1-.2.3a.22.22 0 0 0 .2.2h.9c.1 0 .2-.1.2-.3s0-.2-.1-.2zm2-.1h-1c-.1 0-.2.1-.2.3a.22.22 0 0 0 .2.2h1c.1 0 .2-.1.2-.3a.22.22 0 0 0-.2-.2zm2 0a3.4 3.4 0 0 0-1 .1c-.1 0-.2.1-.2.3a.22.22 0 0 0 .2.2 3.4 3.4 0 0 0 1-.1c.1 0 .2-.1.2-.3a.22.22 0 0 0-.2-.2zm2-.2c-.4 0-.7.1-1 .1-.1 0-.2.1-.2.3a.22.22 0 0 0 .2.2h.9c.1 0 .2-.1.2-.3s0-.3-.1-.3zm1.9-.2c-.4 0-.7.1-1 .1-.1 0-.2.1-.2.3a.22.22 0 0 0 .2.2c.3 0 .7-.1 1-.1.1 0 .2-.1.2-.3s0-.2-.2-.2zm2-.2c-.4 0-.7.1-1 .1-.1 0-.2.1-.2.3a.22.22 0 0 0 .2.2.9.9 0 0 0 .5-.1h.5c.1 0 .2-.1.2-.3s-.1-.2-.2-.2zm2-.2c-.4 0-.7.1-1 .1-.1 0-.2.1-.2.3a.22.22 0 0 0 .2.2c.3 0 .7-.1 1-.1.1 0 .2-.1.2-.3a.22.22 0 0 0-.2-.2zm2-.3a3.75 3.75 0 0 1-1 .1c-.1 0-.2.1-.2.3a.22.22 0 0 0 .2.2h.3c.2 0 .3-.1.5-.1.1 0 .2-.1.2-.3.2-.1.1-.2 0-.2zm1.9-.3c-.4.1-.7.1-1 .2-.1 0-.2.2-.2.3a.22.22 0 0 0 .2.2h.2c.2 0 .5-.1.7-.1.1 0 .2-.2.2-.3.2-.2.1-.3-.1-.3zm2-.4c-.4.1-.7.1-1 .2-.1 0-.2.2-.2.3a.22.22 0 0 0 .2.2c.1 0 .3-.1.4-.1.1 0 .3-.1.4-.1s.2-.2.2-.3c.2-.1.1-.2 0-.2zm2-.3c-.4.1-.7.1-1 .2-.1 0-.2.2-.2.3a.22.22 0 0 0 .2.2c.2 0 .3-.1.5-.1a.76.76 0 0 0 .4-.1c.1 0 .2-.2.2-.3s0-.2-.1-.2zm1.9-.5c-.4.1-.7.1-1 .2-.1 0-.2.2-.2.3a.22.22 0 0 0 .2.2h.1c.2 0 .4-.1.6-.1a.37.37 0 0 0 .3-.1c.1 0 .2-.2.2-.3a.22.22 0 0 0-.2-.2zm2-.4a4.4 4.4 0 0 1-1 .2c-.1 0-.2.2-.2.3a.22.22 0 0 0 .2.2h.1c.1 0 .2 0 .2-.1a6.37 6.37 0 0 1 .7-.2c.1 0 .2-.2.2-.3a.35.35 0 0 0-.2-.1zm1.9-.5c-.4.1-.7.2-1 .3-.1 0-.2.2-.2.3a.22.22 0 0 0 .2.2h.1c.3-.1.5-.1.8-.2h.1c.1 0 .2-.2.2-.3s-.1-.3-.2-.3zm1.9-.5c-.4.1-.7.2-1 .3-.1 0-.2.2-.2.3a.22.22 0 0 0 .2.2h.2c.3-.1.6-.1.8-.2s.2-.2.2-.3-.1-.3-.2-.3zm2-.6c-.4.1-.7.2-1 .3-.1 0-.2.2-.2.3a.22.22 0 0 0 .2.2h.1c.3-.1.6-.2 1-.3.1 0 .2-.2.2-.3s-.2-.2-.3-.2zm1.9-.5c-.4.1-.7.2-1 .3-.1 0-.2.2-.2.3a.22.22 0 0 0 .2.2h.1c.3-.1.6-.2 1-.3.1 0 .2-.2.2-.3s-.2-.2-.3-.2zm1.9-.7c-.4.1-.7.2-1 .3-.1 0-.2.2-.2.3a.22.22 0 0 0 .2.2h.1c.3-.1.6-.2 1-.3.1 0 .2-.2.2-.3s-.2-.2-.3-.2zm1.8-.6c-.4.1-.7.2-1 .3-.1 0-.2.2-.2.3a.22.22 0 0 0 .2.2h.1c.2-.1.3-.1.5-.2.1 0 .3-.1.4-.1s.2-.2.2-.3-.1-.2-.2-.2zm1.9-.7a10.38 10.38 0 0 0-1 .4.19.19 0 0 0-.1.3.22.22 0 0 0 .2.2h.1c.2-.1.4-.1.6-.2.1 0 .1 0 .2-.1a.19.19 0 0 0 .1-.3c.1-.2 0-.3-.1-.3zm1.9-.7a10.38 10.38 0 0 0-1 .4c-.1.1-.2.2-.1.3a.22.22 0 0 0 .2.2h.1c.1-.1.3-.1.4-.2.1-.1.3-.1.4-.2s.2-.2.1-.3c.1-.2 0-.2-.1-.2zm1.8-.8a6.89 6.89 0 0 1-1 .4c-.1.1-.2.2-.1.3a.22.22 0 0 0 .2.2h.2l.6-.3c.1-.1.2-.2.1-.3.2-.2.1-.3 0-.3zm1.8-.8h-.1c-.3.1-.6.3-.9.4-.1.1-.2.2-.1.3s.1.1.2.1h.1c.3-.1.6-.3.9-.4.1-.1.2-.2.1-.3s-.1-.1-.2-.1zm1.8-.9h-.1c-.3.1-.6.3-.9.4-.1.1-.2.2-.1.3s.1.1.2.1h.1c.3-.1.6-.3.9-.4.1-.1.2-.2.1-.3a.35.35 0 0 0-.2-.1zm1.8-.9h-.1c-.3.2-.6.3-.9.5-.1.1-.2.2-.1.3s.1.1.2.1h.1c.3-.2.6-.3.9-.5.1-.1.2-.2.1-.3a.35.35 0 0 0-.2-.1zm1.8-.9h-.1c-.3.2-.6.3-.9.5-.1.1-.2.2-.1.3s.1.1.2.1h.1c.1 0 .1-.1.2-.1l.6-.3c.1-.1.2-.2.1-.3s0-.2-.1-.2zm1.7-1h-.1c-.3.2-.6.3-.9.5-.1.1-.2.2-.1.3s.1.1.2.1h.1c.3-.2.6-.3.9-.5.1-.1.2-.2.1-.3s-.1-.1-.2-.1zm1.7-1.1h-.1a9.23 9.23 0 0 1-.8.5c-.1.1-.2.2-.1.3s.1.1.2.1h.1c.1-.1.3-.2.4-.3a.52.52 0 0 1 .4-.2.37.37 0 0 0 .1-.3c-.1 0-.1-.1-.2-.1zm1.6-1.1h-.1c-.3.2-.5.4-.8.6a.37.37 0 0 0-.1.3c0 .1.1.1.2.1h.1c.1 0 .1-.1.2-.1.2-.1.4-.3.6-.4a.37.37 0 0 0 .1-.3.22.22 0 0 0-.2-.2zm1.6-1.2c-.1 0-.1 0-.2.1-.3.2-.5.4-.8.6a.37.37 0 0 0-.1.3c0 .1.1.1.2.1h.1a2.18 2.18 0 0 0 .5-.4l.2-.2a.19.19 0 0 0 0-.3c.3-.1.2-.2.1-.2zm1.6-1.2c-.1 0-.1 0-.2.1a5.55 5.55 0 0 1-.8.6c-.1.1-.1.2 0 .4s.1.1.2.1.1 0 .2-.1c.2-.2.4-.3.6-.5.1-.1.1-.2 0-.4.1-.2 0-.2 0-.2zm1.4-1.4c-.1 0-.1 0-.2.1l-.7.7a.3.3 0 0 0 0 .4c0 .1.1.1.2.1s.1 0 .2-.1a.1.1 0 0 0 .1-.1l.1-.1a.3.3 0 0 0 0-.4c.5-.5.4-.6.3-.6zm1.4-1.4c-.1 0-.1 0-.2.1a4.62 4.62 0 0 1-.7.7.3.3 0 0 0 0 .4.35.35 0 0 0 .2.1c.1 0 .1 0 .2-.1a2.65 2.65 0 0 0 .5-.6.3.3 0 0 0 0-.4c.1-.2.1-.2 0-.2zm1.2-1.5c-.1 0-.2 0-.2.1-.2.3-.4.5-.6.8a.3.3 0 0 0 0 .4.35.35 0 0 0 .2.1c.1 0 .1 0 .2-.1s.2-.2.2-.3c.1-.2.2-.3.3-.5s.1-.3-.1-.3c.1-.2.1-.2 0-.2zm1.1-1.7c-.1 0-.2 0-.2.1a5.58 5.58 0 0 1-.5.8.19.19 0 0 0 .1.3h.1c.1 0 .2 0 .2-.1s.2-.3.3-.4c0-.1.1-.1.1-.2a.19.19 0 0 0-.1-.3c.1-.2 0-.2 0-.2zm.8-1.8a.22.22 0 0 0-.2.2 3.55 3.55 0 0 1-.4.9.19.19 0 0 0 .1.3h.1a.35.35 0 0 0 .2-.1c0-.1.1-.2.1-.3v-.4c.4-.4.3-.5.1-.6zm.5-1.9a.22.22 0 0 0-.2.2 2.92 2.92 0 0 1-.2.9c0 .1 0 .3.2.3h.1a.22.22 0 0 0 .2-.2c0-.2.1-.3.1-.5 0-.1.1-.3.1-.4s-.1-.2-.3-.3zm0-1.9c-.2 0-.3.1-.2.3v.9c0 .1.1.3.2.3a.22.22 0 0 0 .2-.2v-.9c.1-.3 0-.4-.2-.4zm-.4-1.9c-.2.1-.3.2-.2.3l.3.9a.22.22 0 0 0 .2.2h.1c.1 0 .2-.2.2-.3s-.1-.3-.1-.4c0-.1-.1-.3-.1-.4-.2-.2-.3-.3-.4-.3zm-.9-1.7h-.1a.37.37 0 0 0-.1.3c.2.3.3.5.5.8 0 .1.1.1.2.1h.1c.1-.1.2-.2.1-.3-.2-.3-.3-.6-.5-.9a.14.14 0 0 1-.2 0zm-1.3-1.4c-.1 0-.1 0-.2.1a.3.3 0 0 0 0 .4l.7.7c0 .1.1.1.2.1s.1 0 .2-.1a.19.19 0 0 0 0-.3 2.34 2.34 0 0 0-.7-.7c-.1-.2-.2-.2-.2-.2zm-1.5-1.3c-.1 0-.2 0-.2.1s-.1.3.1.3c.3.2.5.4.8.6a.35.35 0 0 0 .2.1c.1 0 .1 0 .2-.1s.1-.3 0-.3c-.3-.2-.5-.4-.8-.6a.77.77 0 0 0-.3-.1zm-1.7-1c-.1 0-.2 0-.2.1a.19.19 0 0 0 .1.3 5.58 5.58 0 0 1 .8.5h.1c.1 0 .2 0 .2-.1a.19.19 0 0 0-.1-.3c-.3-.2-.6-.3-.9-.5zm-1.8-.9a.22.22 0 0 0-.2.2.19.19 0 0 0 .1.3c.3.1.6.3.9.4h.1a.35.35 0 0 0 .2-.1.19.19 0 0 0-.1-.3 9.3 9.3 0 0 0-1-.5zm-1.8-.7a.22.22 0 0 0-.2.2c0 .1 0 .3.2.3l.9.3h.1a.22.22 0 0 0 .2-.2c0-.1 0-.3-.1-.3l-1.1-.3zm-1.9-.6a.22.22 0 0 0-.2.2c0 .1 0 .3.2.3l.9.3h.1a.22.22 0 0 0 .2-.2c0-.1 0-.3-.2-.3s-.6-.2-1-.3zm-1.9-.5a.22.22 0 0 0-.2.2c0 .1.1.3.2.3a3 3 0 0 0 1 .2h.1a.22.22 0 0 0 .2-.2c0-.1 0-.3-.2-.3-.4-.1-.8-.1-1.1-.2zm-2-.4a.22.22 0 0 0-.2.2c0 .1.1.3.2.3.3.1.7.1 1 .2h.1a.22.22 0 0 0 .2-.2c0-.1-.1-.3-.2-.3a4.25 4.25 0 0 0-1.1-.2zm-1.9-.4a.22.22 0 0 0-.2.2c0 .1.1.3.2.3a3.55 3.55 0 0 1 1 .2.22.22 0 0 0 .2-.2c0-.1-.1-.3-.2-.3-.3-.1-.7-.1-1-.2zm-2-.2a.22.22 0 0 0-.2.2c0 .1.1.3.2.3.3 0 .7.1 1 .1a.22.22 0 0 0 .2-.2c0-.1-.1-.3-.2-.3-.3 0-.7-.1-1-.1zm-2-.2a.22.22 0 0 0-.2.2c0 .1.1.3.2.3.3 0 .7.1 1 .1a.22.22 0 0 0 .2-.2c0-.1-.1-.3-.2-.3a3.08 3.08 0 0 0-1-.1zm-2-.2a.22.22 0 0 0-.2.2c0 .1.1.3.2.3a3.4 3.4 0 0 1 1 .1.22.22 0 0 0 .2-.2c0-.1-.1-.3-.2-.3a3.75 3.75 0 0 1-1-.1zm-2 0a.22.22 0 0 0-.2.2c0 .1.1.3.2.3h1a.22.22 0 0 0 .2-.2c0-.1-.1-.3-.2-.3z"/><path d="M344.7 138.1h-1a.4.4 0 0 0 0 .8h1c.1 0 .2 0 .2-.1s.1.1.2.1h1a.43.43 0 0 0 .4-.4.37.37 0 0 0-.4-.4h-.9c-.1 0-.2 0-.2.1a.37.37 0 0 0-.3-.1zm-1.9 0c-.4 0-.7.1-1 .1s-.4.2-.3.4.2.3.4.3c.3 0 .7-.1 1-.1s.4-.2.3-.4-.2-.3-.4-.3zm-2 .2c-.4 0-.7.1-1 .1-.2 0-.3.2-.3.4s.2.3.4.3h.1c.3 0 .7-.1 1-.1s.4-.2.3-.4-.3-.3-.5-.3zm-2 .3h-.1c-.3.1-.6.1-.9.2-.2 0-.3.2-.3.4s.2.3.4.3h.1c.3-.1.6-.1 1-.2.2 0 .3-.2.3-.4a.55.55 0 0 0-.5-.3zm-1.9.4a4.33 4.33 0 0 0-.5.1h-.2c-.2 0-.3.2-.3.4s.2.3.4.3h.1c.3-.1.6-.1 1-.2.2 0 .3-.2.3-.4-.5-.1-.7-.2-.8-.2zm-2 .4h-.2c-.3.1-.6.1-.9.2a.55.55 0 0 0-.3.5c0 .2.2.3.4.3h.1a3 3 0 0 1 1-.2.55.55 0 0 0 .3-.5c0-.2-.2-.3-.4-.3zm-1.9.5h-.1c-.3.1-.6.2-1 .3a.55.55 0 0 0-.3.5c0 .2.2.3.4.3h.1l.9-.3a.55.55 0 0 0 .3-.5.27.27 0 0 0-.3-.3zm-1.9.6h-.1c-.2.1-.4.1-.6.2-.1 0-.2.1-.3.1a.37.37 0 0 0-.2.5c.1.2.2.3.4.3h.1l.9-.3a.37.37 0 0 0 .2-.5c-.1-.2-.2-.3-.4-.3zm-1.9.6h-.1c-.1 0-.2.1-.3.1-.2.1-.4.1-.6.2a.37.37 0 0 0-.2.5c.1.2.2.2.4.2h.1l.9-.3a.37.37 0 0 0 .2-.5.52.52 0 0 0-.4-.2zm-1.8.7h-.1a3.55 3.55 0 0 0-.9.4.37.37 0 0 0-.2.5c.1.1.2.2.3.2h.1a3.55 3.55 0 0 0 .9-.4.37.37 0 0 0 .2-.5c-.1-.1-.2-.2-.3-.2zm-1.9.7h-.1c-.1 0-.1.1-.2.1s-.1 0-.2.1c-.1 0-.2.1-.3.1a.37.37 0 0 0-.2.5c.1.1.2.2.3.2h.1c.3-.1.6-.3.9-.4a.37.37 0 0 0 .2-.5 4.33 4.33 0 0 1-.5-.1zm-1.8.8h-.1c-.3.1-.5.2-.8.3h-.1a.37.37 0 0 0-.2.5c.1.1.2.2.3.2h.2c.3-.1.6-.3.9-.4a.37.37 0 0 0 .2-.5c-.2 0-.3-.1-.4-.1zm-1.9.8h-.2c-.3.1-.6.3-.9.4a.37.37 0 0 0-.2.5c.1.1.2.2.3.2h.2c.3-.1.6-.3.9-.4a.37.37 0 0 0 .2-.5c0-.1-.1-.2-.3-.2zm-1.8.8h-.2c-.2.1-.3.2-.5.2a.37.37 0 0 0-.2.5c.1.1.2.2.3.2h.2c.3-.1.6-.3.9-.4a.37.37 0 0 0 .2-.5 1.58 1.58 0 0 1-.7 0zm-1.8.9h-.3c-.3.1-.5.3-.8.4a.37.37 0 0 0-.2.5c.1.1.2.2.3.2h.2c.3-.2.6-.3.9-.5a.37.37 0 0 0 .2-.5.44.44 0 0 0-.3-.1zm-1.7.9h-.3a2.19 2.19 0 0 0-.5.3c-.1 0-.1.1-.2.1s-.2.3-.2.5.2.2.3.2h.2c.3-.2.6-.3.9-.5a.37.37 0 0 0 .2-.5c-.2 0-.3-.1-.4-.1zm-1.8 1h-.2c-.2.1-.5.3-.7.4-.2.1-.2.3-.1.5s.2.2.3.2h.2c.3-.2.6-.3.9-.5s.2-.3.1-.5a1.09 1.09 0 0 0-.5-.1zm-1.7 1h-.2c-.1.1-.2.1-.3.2h-.1c-.2.1-.3.2-.5.3s-.2.3-.1.5.2.2.3.2.1 0 .2-.1c.3-.2.6-.3.9-.5s.2-.3.1-.5a.37.37 0 0 0-.3-.1zm-1.7 1c-.1 0-.1 0-.2.1-.3.2-.6.3-.9.5s-.2.3-.1.5.2.2.3.2.1 0 .2-.1c.3-.2.6-.3.9-.5s.2-.3.1-.5-.2-.2-.3-.2zm-1.8 1c-.1 0-.1 0-.2.1a9.23 9.23 0 0 1-.8.5c-.2.1-.2.3-.1.5s.2.2.3.2.1 0 .2-.1a9.23 9.23 0 0 1 .8-.5c.2-.1.2-.3.1-.5s-.1-.2-.3-.2zm-1.6 1.1c-.1 0-.1 0-.2.1-.1 0-.1.1-.2.1s-.2.3-.1.5.2.2.3.2.1 0 .2-.1a9.23 9.23 0 0 1 .8-.5c.2-.1.2-.3.1-.5a3.23 3.23 0 0 1-.9.2zm-1.7 1.1c-.1 0-.1 0-.2.1s-.1.1-.2.1c-.2.1-.3.2-.5.3s-.2.3-.1.5.2.2.3.2.1 0 .2-.1c.3-.2.5-.4.8-.6s.2-.3.1-.5zm-1.7 1.1c-.1 0-.1 0-.2.1a.1.1 0 0 0-.1.1c-.1 0-.1.1-.2.1-.1.1-.2.1-.2.2a.35.35 0 0 0-.1.5c.1.1.2.2.3.2s.2 0 .2-.1c.3-.2.5-.4.8-.6a.35.35 0 0 0 .1-.5zm-1.6 1.1c-.1 0-.2 0-.2.1s-.2.1-.3.2a1.76 1.76 0 0 0-.5.4.35.35 0 0 0-.1.5c.1.1.2.2.3.2s.2 0 .2-.1c.3-.2.5-.4.8-.6a.35.35 0 0 0 .1-.5c-.1-.1-.2-.2-.3-.2zm-1.6 1.2c-.1 0-.2 0-.2.1s-.3.2-.4.3l-.1.1a.35.35 0 0 0-.1.5.37.37 0 0 0 .3.1c.1 0 .2 0 .2-.1.3-.2.5-.4.8-.6a.35.35 0 0 0 .1-.5.73.73 0 0 1-.6.1zm-1.6 1.2c-.1 0-.2 0-.2.1s-.2.2-.3.2l-.1.1a.35.35 0 0 0-.1.5.37.37 0 0 0 .3.1c.1 0 .2 0 .2-.1.3-.2.5-.4.8-.6a.35.35 0 0 0 .1-.5c-.5.3-.6.2-.7.2zm-1.5 1.2c-.1 0-.2 0-.2.1-.3.2-.5.4-.8.6a.35.35 0 0 0-.1.5.37.37 0 0 0 .3.1c.1 0 .2 0 .2-.1.3-.2.5-.4.8-.6a.35.35 0 0 0 .1-.5c-.1 0-.2-.1-.3-.1zm-1.6 1.3c-.1 0-.2 0-.2.1a1.38 1.38 0 0 1-.4.3 1.38 1.38 0 0 1-.4.3.28.28 0 0 0 0 .5.37.37 0 0 0 .3.1c.1 0 .2 0 .2-.1.3-.2.5-.4.8-.6a.28.28 0 0 0 0-.5.37.37 0 0 0-.3-.1zm-1.5 1.3c-.1 0-.2 0-.2.1a5 5 0 0 0-.8.7.28.28 0 0 0 0 .5.37.37 0 0 0 .3.1c.1 0 .2 0 .2-.1a4.62 4.62 0 0 0 .7-.7.28.28 0 0 0 0-.5c0-.1-.1-.1-.2-.1zm-1.5 1.3a.37.37 0 0 0-.3.1l-.2.2-.5.5a.28.28 0 0 0 0 .5.5.5 0 0 0 .6 0 4.62 4.62 0 0 0 .7-.7.28.28 0 0 0 0-.5.37.37 0 0 0-.3-.1zm-1.5 1.4a.37.37 0 0 0-.3.1c-.1.1-.3.2-.4.4l-.3.3c-.1.1-.2.4 0 .5a.5.5 0 0 0 .6 0l.7-.7a.28.28 0 0 0 0-.5.37.37 0 0 0-.3-.1zm-1.4 1.3a.37.37 0 0 0-.3.1l-.1.1-.1.1-.1.1a.45.45 0 0 0 0 .5.5.5 0 0 0 .6 0l.7-.7c.1-.1.2-.4 0-.5-.5.4-.6.3-.7.3zm-1.4 1.4a.37.37 0 0 0-.3.1l-.6.6-.1.1a.45.45 0 0 0 0 .5.5.5 0 0 0 .6 0l.7-.7a.45.45 0 0 0 0-.5c-.1 0-.2-.1-.3-.1zm-1.4 1.5a.37.37 0 0 0-.3.1l-.3.3a1.38 1.38 0 0 0-.3.4.45.45 0 0 0 0 .5.5.5 0 0 0 .6 0 4.62 4.62 0 0 1 .7-.7.45.45 0 0 0 0-.5.76.76 0 0 0-.4-.1zm-1.3 1.5a.37.37 0 0 0-.3.1c-.2.2-.4.5-.6.7a.45.45 0 0 0 0 .5.31.31 0 0 0 .2.1.37.37 0 0 0 .3-.1 4.62 4.62 0 0 1 .7-.7.45.45 0 0 0 0-.5c-.2-.1-.2-.1-.3-.1zm-1.3 1.5a.37.37 0 0 0-.3.1v.1c-.1.2-.3.3-.4.5 0 .1-.1.1-.1.2s-.1.4.1.5a.31.31 0 0 0 .2.1.37.37 0 0 0 .3-.1c.2-.3.4-.5.6-.8a.45.45 0 0 0 0-.5c-.3-.1-.3-.1-.4-.1zm-1.3 1.5a.37.37 0 0 0-.3.1c-.2.2-.3.4-.5.6-.1.2-.1.4.1.5s.1.1.2.1.2-.1.3-.1c.2-.3.4-.5.6-.8s.1-.4-.1-.5a.37.37 0 0 1-.3.1zm-1.2 1.6c-.1 0-.2.1-.3.2l-.1.1c-.1.2-.3.4-.4.6s-.1.4.1.5.1.1.2.1.2-.1.3-.2c.2-.3.4-.5.6-.8s.1-.4-.1-.5zm-1.1 1.6c-.1 0-.2.1-.3.2s-.2.3-.3.4c-.1.1-.2.3-.3.4s-.1.4.1.5.1.1.2.1.2-.1.3-.2a3.51 3.51 0 0 0 .5-.8c.1-.2.1-.4-.1-.5a.1.1 0 0 0-.1-.1zm-1.1 1.7c-.1 0-.2.1-.3.2-.1.2-.2.3-.3.5-.1.1-.1.2-.2.3a.44.44 0 0 0 .1.5c.1 0 .1.1.2.1s.3-.1.3-.2a5.58 5.58 0 0 1 .5-.8c.1-.2.1-.4-.1-.5s-.1-.1-.2-.1zm-1 1.7c-.1 0-.3.1-.3.2s-.1.3-.2.4c-.1.1-.1.3-.2.4a.37.37 0 0 0 .2.5h.2c.1 0 .3-.1.3-.2a4.05 4.05 0 0 1 .5-.9.44.44 0 0 0-.1-.5c-.3.1-.3.1-.4.1zm-.9 1.7c-.1 0-.3.1-.3.2s-.2.3-.2.5a.35.35 0 0 1-.1.2.37.37 0 0 0 .2.5h.2c.1 0 .3-.1.3-.2.1-.3.3-.6.4-.9a.37.37 0 0 0-.2-.5c-.2.3-.3.2-.3.2zm-.8 1.9c-.1 0-.3.1-.3.2s-.1.2-.1.3c0 .1-.1.2-.1.3a.37.37 0 0 0 .2.5h.1c.2 0 .3-.1.4-.3l.3-.9a.37.37 0 0 0-.2-.5c-.2.4-.3.4-.3.4zm-.7 1.8c-.2 0-.3.1-.4.3s-.1.4-.2.6c0 .1-.1.2-.1.3a.55.55 0 0 0 .3.5h.1c.2 0 .3-.1.4-.3l.3-.9c.1-.2-.1-.4-.3-.5zm-.4 1.9c-.2 0-.3.1-.4.3V187.5c0 .2.1.4.3.4.2 0 .3-.1.4-.3s.1-.6.1-.9c0 .2-.1 0-.4-.1zm-.2 1.9a.43.43 0 0 0-.4.4v.9a.43.43 0 0 0 .4.4.43.43 0 0 0 .4-.4v-.9a.78.78 0 0 0-.4-.4zm0 2a.37.37 0 0 0-.4.4v.2c0 .1.1.3.1.4s.2.3.4.3h.1a.55.55 0 0 0 .3-.5c-.1-.3-.1-.6-.2-.9.1.2-.1.1-.3.1zm.5 1.8h-.1a.37.37 0 0 0-.2.5.35.35 0 0 0 .1.2c.1.1.1.3.2.4s.2.2.3.2h.2c.2-.1.2-.3.1-.5s-.3-.5-.4-.8c.1.1 0 0-.2 0zm1 1.7c-.1 0-.2 0-.2.1a.35.35 0 0 0-.1.5c.2.2.4.5.6.7a.5.5 0 0 0 .6 0c.1-.1.2-.4 0-.5a4.35 4.35 0 0 1-.6-.7.37.37 0 0 0-.3-.1zm1.3 1.3a.37.37 0 0 0-.3.1c-.1.2-.1.4.1.5s.5.4.8.6c.1 0 .1.1.2.1s.2-.1.3-.2.1-.4-.1-.5a4.23 4.23 0 0 1-.7-.5c-.2 0-.2-.1-.3-.1zm1.6 1.1c-.1 0-.3.1-.3.2a.37.37 0 0 0 .2.5c.1.1.3.1.4.2.1 0 .2.1.3.1h.1c.1 0 .3-.1.3-.2a.37.37 0 0 0-.2-.5 3.55 3.55 0 0 1-.9-.4c.2.1.2.1.1.1zm1.8.7c-.2 0-.3.1-.4.3s.1.4.2.5.2.1.3.1c.2 0 .3.1.5.1h.1c.2 0 .3-.1.4-.3s-.1-.4-.3-.4a2.92 2.92 0 0 0-.9-.2c.2-.1.1-.1.1-.1zm1.9.4c-.2 0-.3.1-.4.3s.1.4.3.4a3.4 3.4 0 0 0 1 .1c.2 0 .4-.1.4-.3s-.1-.4-.3-.4a3.75 3.75 0 0 1-1-.1zm1.9.2a.45.45 0 0 0-.4.3c0 .2.1.4.3.4h1a.4.4 0 1 0 0-.8c-.2.2-.5.2-.9.1zm3 .1h-1a.4.4 0 1 0 0 .8h1a.43.43 0 0 0 .4-.4.37.37 0 0 0-.4-.4zm2-.2c-.4 0-.7.1-1 .1s-.4.2-.3.4.2.3.4.3c.3 0 .7-.1 1-.1s.4-.2.3-.4-.2-.3-.4-.3zm1.9-.2a3.75 3.75 0 0 1-1 .1c-.2 0-.4.2-.3.4s.2.3.4.3c.3 0 .6-.1.9-.1.2 0 .3-.2.3-.4s-.1-.3-.3-.3zm2-.4c-.4.1-.7.1-1 .2s-.3.2-.3.4.2.3.4.3h.1c.3-.1.7-.1 1-.2s.3-.2.3-.4c-.2-.1-.3-.3-.5-.3zm1.9-.4a4.4 4.4 0 0 1-1 .2c-.2 0-.3.2-.3.4s.2.3.4.3h.1c.3-.1.6-.1.9-.2h.1c.2 0 .3-.2.3-.5a.76.76 0 0 0-.5-.2zm2-.5l-1.1.3a.55.55 0 0 0-.3.5c0 .2.2.3.4.3h.1c.3-.1.6-.2 1-.3a.55.55 0 0 0 .3-.5.54.54 0 0 0-.4-.3zm1.9-.5h-.1l-.9.3a.55.55 0 0 0-.3.5c0 .2.2.3.4.3h.1c.3-.1.6-.2 1-.3a.37.37 0 0 0 .2-.5.54.54 0 0 0-.4-.3zm1.9-.6h-.1l-.9.3a.37.37 0 0 0-.2.5c.1.2.2.3.4.3h.1c.3-.1.6-.2 1-.3a.37.37 0 0 0 .2-.5.91.91 0 0 0-.5-.3zm1.8-.7h-.1l-.9.3a.37.37 0 0 0-.2.5c.1.2.2.3.4.3h.2c.2-.1.4-.1.6-.2a.37.37 0 0 0 .2-.5c.1-.3 0-.4-.2-.4zm1.9-.7h-.1a3.55 3.55 0 0 0-.9.4.37.37 0 0 0-.2.5.52.52 0 0 0 .4.2h.1a3.55 3.55 0 0 0 .9-.4.37.37 0 0 0 .2-.5.52.52 0 0 0-.4-.2zm1.9-.7h-.1c-.3.1-.6.3-.9.4a.37.37 0 0 0-.2.5c.1.1.2.2.3.2h.1a.1.1 0 0 0 .1-.1c.3-.1.5-.2.8-.3a.37.37 0 0 0 .2-.5c-.1-.2-.2-.2-.3-.2zm1.8-.8h-.2c-.3.1-.6.3-.9.4a.37.37 0 0 0-.2.5c.1.1.2.2.3.2h.1c.3-.1.6-.3.9-.4a.37.37 0 0 0 .2-.5c.1-.2-.1-.2-.2-.2zm1.8-.9h-.2c-.3.1-.6.3-.9.4a.37.37 0 0 0-.2.5c.1.1.2.2.3.2h.2l.6-.3h.1c.1 0 .2-.1.3-.1a.37.37 0 0 0 .2-.5.76.76 0 0 0-.4-.2zm1.8-.8h-.2c-.3.1-.6.3-.9.4a.37.37 0 0 0-.2.5c.1.1.2.2.3.2h.6c.1-.1.3-.1.4-.2h.1a.37.37 0 0 0 .2-.5c0-.4-.2-.4-.3-.4zm1.8-.9h-.2c-.3.2-.6.3-.9.5a.37.37 0 0 0-.2.5c.1.1.2.2.3.2h.2l.6-.3a.37.37 0 0 0 .2-.5c.2-.4.1-.4 0-.4zm1.7-1h-.2c-.3.2-.6.3-.9.5a.37.37 0 0 0-.2.5c.1.1.2.2.3.2h.2c.1-.1.3-.1.4-.2h.3c.2-.1.2-.3.2-.5.2-.4.1-.5-.1-.5zm1.8-.9h-.2c-.3.2-.6.3-.9.5s-.2.3-.1.5.2.2.3.2h.2c.1 0 .1-.1.2-.1h.2c.2-.1.2-.3.1-.5.4-.6.3-.6.2-.6zm1.7-1c-.1 0-.1 0-.2.1-.3.2-.6.3-.9.5s-.2.3-.1.5.2.2.3.2.1 0 .2-.1a3.51 3.51 0 0 0 .8-.5c.2-.1.2-.3.1-.5.1-.2-.1-.2-.2-.2zm1.7-1c-.1 0-.1 0-.2.1a5.58 5.58 0 0 0-.8.5c-.2.1-.2.3-.1.5s.2.2.3.2.1 0 .2-.1a.1.1 0 0 0 .1-.1 4.35 4.35 0 0 1 .7-.4c.2-.1.2-.3.1-.5s-.2-.2-.3-.2zm1.7-1.1c-.1 0-.1 0-.2.1a9.23 9.23 0 0 1-.8.5c-.2.1-.2.3-.1.5s.2.2.3.2.1 0 .2-.1.3-.2.5-.3h.1c.1-.1.2-.1.3-.2s.2-.3.1-.5-.3-.2-.4-.2zm1.7-1.1c-.1 0-.1 0-.2.1a9.23 9.23 0 0 1-.8.5c-.2.1-.2.3-.1.5s.2.2.3.2.1 0 .2-.1h.1c.2-.2.5-.3.7-.5s.2-.3.1-.5-.2-.2-.3-.2zm1.6-1.1c-.1 0-.1 0-.2.1-.3.2-.5.4-.8.6s-.2.3-.1.5.2.2.3.2.1 0 .2-.1.3-.2.4-.3c.1-.1.3-.2.4-.3a.35.35 0 0 0 .1-.5c0-.1-.1-.2-.3-.2zm1.7-1.1c-.1 0-.2 0-.2.1-.3.2-.5.4-.8.6a.35.35 0 0 0-.1.5c.1.1.2.2.3.2s.1 0 .2-.1.2-.1.3-.2c.2-.1.3-.2.5-.3a.35.35 0 0 0 .1-.5c-.1-.3-.2-.3-.3-.3zm1.6-1.2c-.1 0-.2 0-.2.1-.3.2-.5.4-.8.6a.35.35 0 0 0-.1.5c.1.1.2.2.3.2s.2 0 .2-.1l.1-.1a4.23 4.23 0 0 1 .7-.5.35.35 0 0 0 .1-.5c-.1-.1-.2-.2-.3-.2zm1.6-1.2c-.1 0-.2 0-.2.1-.3.2-.5.4-.8.6a.35.35 0 0 0-.1.5c.1.1.2.2.3.2s.2 0 .2-.1c.3-.2.5-.4.8-.6a.35.35 0 0 0 .1-.5c-.1-.1-.2-.2-.3-.2zm1.6-1.2c-.1 0-.2 0-.2.1-.3.2-.5.4-.8.6a.35.35 0 0 0-.1.5.37.37 0 0 0 .3.1c.1 0 .2 0 .2-.1.2-.2.4-.3.6-.5l.1-.1a.35.35 0 0 0 .1-.5c0-.1-.1-.1-.2-.1zm1.5-1.3c-.1 0-.2 0-.2.1-.3.2-.5.4-.8.6a.35.35 0 0 0-.1.5.37.37 0 0 0 .3.1c.1 0 .2 0 .2-.1l.1-.1a2.18 2.18 0 0 0 .5-.4.35.35 0 0 0 .1-.5c.1-.1 0-.2-.1-.2zm1.5-1.2c-.1 0-.2 0-.2.1-.3.2-.5.4-.8.6a.28.28 0 0 0 0 .5.37.37 0 0 0 .3.1c.1 0 .2 0 .2-.1l.2-.2c.1-.1.2-.2.3-.2a.28.28 0 0 0 0-.5c.3-.3.1-.3 0-.3zm1.5-1.4c-.1 0-.2 0-.2.1a4.62 4.62 0 0 0-.7.7.28.28 0 0 0 0 .5.37.37 0 0 0 .3.1c.1 0 .2 0 .2-.1s.3-.2.4-.4c.1-.1.2-.2.3-.2a.28.28 0 0 0 0-.5c0-.1-.2-.2-.3-.2zm1.5-1.3a.37.37 0 0 0-.3.1 4.62 4.62 0 0 0-.7.7.28.28 0 0 0 0 .5.37.37 0 0 0 .3.1c.1 0 .2 0 .2-.1l.7-.7a.28.28 0 0 0 0-.5c0-.1-.1-.1-.2-.1zm1.5-1.4a.37.37 0 0 0-.3.1l-.7.7a.28.28 0 0 0 0 .5.5.5 0 0 0 .6 0c.1-.1.3-.2.4-.4l.3-.3c.1-.1.2-.4 0-.5s-.2-.1-.3-.1zm1.4-1.4a.37.37 0 0 0-.3.1l-.7.7a.45.45 0 0 0 0 .5.5.5 0 0 0 .6 0l.7-.7a.45.45 0 0 0 0-.5c-.1 0-.2-.1-.3-.1zm1.4-1.4a.37.37 0 0 0-.3.1l-.7.7a.45.45 0 0 0 0 .5.5.5 0 0 0 .6 0l.3-.3.1-.1c.1-.1.2-.2.2-.3a.45.45 0 0 0 0-.5c0-.1-.1-.1-.2-.1zm1.3-1.4a.37.37 0 0 0-.3.1 4.62 4.62 0 0 1-.7.7.45.45 0 0 0 0 .5.5.5 0 0 0 .6 0 1.76 1.76 0 0 0 .4-.5l.1-.1a.45.45 0 0 0 0-.5c.1-.2 0-.2-.1-.2zm1.3-1.5a.37.37 0 0 0-.3.1c-.2.2-.4.5-.6.7a.45.45 0 0 0 0 .5.31.31 0 0 0 .2.1.37.37 0 0 0 .3-.1l.3-.3a1.38 1.38 0 0 0 .3-.4.45.45 0 0 0 0-.5c0-.1-.1-.1-.2-.1zm1.3-1.6a.37.37 0 0 0-.3.1c-.2.3-.4.5-.6.8a.45.45 0 0 0 0 .5.31.31 0 0 0 .2.1.37.37 0 0 0 .3-.1c.2-.2.4-.5.6-.7l.1-.1c.1-.2.1-.4-.1-.5a.35.35 0 0 0-.2-.1zm1.2-1.5c-.1 0-.2.1-.3.1-.2.3-.4.5-.6.8s-.1.4.1.5.1.1.2.1a.37.37 0 0 0 .3-.1.1.1 0 0 1 .1-.1 4.23 4.23 0 0 0 .5-.7c.1-.2.1-.4-.1-.5 0-.1-.1-.1-.2-.1zm1.2-1.7c-.1 0-.2.1-.3.2-.2.3-.4.5-.6.8s-.1.4.1.5.1.1.2.1.2-.1.3-.2l.1-.1c.1-.1.1-.2.2-.3v-.1c.1-.2.1-.4-.1-.5.2-.3.2-.4.1-.4zm1.1-1.6c-.1 0-.2.1-.3.2a3.51 3.51 0 0 0-.5.8c-.1.2-.1.4.1.5s.1.1.2.1.2-.1.3-.2a3.51 3.51 0 0 0 .5-.8c.1-.2.1-.4-.1-.5s-.1-.1-.2-.1zm1-1.7c-.1 0-.3.1-.3.2a5.58 5.58 0 0 1-.5.8c-.1.2-.1.4.1.5s.1.1.2.1.2-.1.3-.2.1-.2.2-.3a.76.76 0 0 0 .2-.4.44.44 0 0 0-.1-.5c.1-.2 0-.2-.1-.2zm1-1.7c-.1 0-.3.1-.3.2a4.05 4.05 0 0 1-.5.9.37.37 0 0 0 .2.5h.2c.1 0 .3-.1.3-.2v-.1a2.19 2.19 0 0 1 .3-.5.1.1 0 0 1 .1-.1.37.37 0 0 0-.2-.5c0-.2-.1-.2-.1-.2zm.8-1.8c-.1 0-.3.1-.3.2-.1.3-.3.6-.4.9a.37.37 0 0 0 .2.5h.2c.1 0 .3-.1.3-.2.1-.3.3-.6.4-.9a.37.37 0 0 0-.2-.5zm.7-1.9c-.2 0-.3.1-.4.3l-.3.9a.37.37 0 0 0 .2.5h.1a.52.52 0 0 0 .4-.2c.1-.2.2-.5.3-.7v-.1a.37.37 0 0 0-.2-.5c0-.2 0-.2-.1-.2zm.6-1.8c-.2 0-.3.1-.4.3a2.92 2.92 0 0 0-.2.9c-.1.2.1.4.3.5h.1c.2 0 .3-.1.4-.3s0-.1.1-.2c0-.1.1-.3.1-.4 0-.6-.2-.8-.4-.8zm.3-2c-.2 0-.4.1-.4.3s-.1.6-.1.9.1.4.3.4h.1c.2 0 .3-.1.4-.3v-.2c0-.3.1-.5.1-.8a.45.45 0 0 0-.4-.3zm0-1.9a.43.43 0 0 0-.4.4v.9a.43.43 0 0 0 .4.4.43.43 0 0 0 .4-.4v-1c0-.2-.2-.3-.4-.3zm-.3-1.9h-.1a.55.55 0 0 0-.3.5 2.92 2.92 0 0 1 .2.9c0 .2.2.3.4.3h.1c.2 0 .3-.2.3-.4a.76.76 0 0 0-.1-.4c0-.2-.1-.3-.1-.4-.1-.4-.3-.5-.4-.5zm-.8-1.7c-.1 0-.1 0-.2.1s-.2.3-.1.5a3 3 0 0 1 .4.8c.1.1.2.2.3.2h.2a.37.37 0 0 0 .2-.5v-.1c-.1-.2-.2-.3-.2-.5v-.2a.78.78 0 0 0-.6-.3zm-1.2-1.5a.37.37 0 0 0-.3.1.45.45 0 0 0 0 .5 4.35 4.35 0 0 1 .6.7.37.37 0 0 0 .3.1c.1 0 .2 0 .2-.1a.35.35 0 0 0 .1-.5 2.34 2.34 0 0 0-.7-.7c0-.1-.1-.1-.2-.1zm-1.5-1.2c-.1 0-.3.1-.3.2a.44.44 0 0 0 .1.5c.3.2.5.3.8.5.1.1.1.1.2.1s.2-.1.3-.1c.1-.2.1-.4-.1-.5s-.5-.4-.8-.6c-.1 0-.1-.1-.2-.1zm-1.8-.8a.52.52 0 0 0-.4.2.37.37 0 0 0 .2.5 3.55 3.55 0 0 1 .9.4h.2c.1 0 .3-.1.3-.2a.37.37 0 0 0-.2-.5c-.3-.1-.6-.3-.9-.4zm-1.8-.5c-.2 0-.3.1-.4.3s.1.4.3.4.6.1.9.2h.1c.2 0 .3-.1.4-.3s-.1-.4-.3-.5a3.75 3.75 0 0 1-1-.1zm-2-.3c-.2 0-.4.1-.4.3s.1.4.3.4.6.1 1 .1h.1c.2 0 .3-.1.4-.3s-.1-.4-.3-.4c-.4 0-.7-.1-1.1-.1z"/><circle cx="317.02" cy="168.68" r="5.9" transform="matrix(.83 -.55 .55 .83 -40.37 203.71)"/></g><circle cx="5" cy="62.5" r="5" style="isolation:isolate" fill="#3d3d3d" opacity=".4"/><path style="isolation:isolate" fill="none" stroke="#3d3d3d" stroke-miterlimit="10" opacity=".4" d="M11.5 63H158M158 63l81.5 47"/></g></g></symbol></svg>