<?xml version="1.0" encoding="iso-8859-1"?>
<!-- Generator: Adobe Illustrator 21.1.0, SVG Export Plug-In . SVG Version: 6.00 Build 0)  -->
<svg version="1.1" id="Layer_1" xmlns="http://www.w3.org/2000/svg" xmlns:xlink="http://www.w3.org/1999/xlink" x="0px" y="0px"
	 viewBox="0 0 150 150" style="enable-background:new 0 0 150 150;" xml:space="preserve">
<path style="fill:#F6F6F6;" d="M75,0.327c-41.24,0-74.671,33.432-74.671,74.671c0,18.148,6.857,31.82,9.38,36.262
	C22.382,133.564,47.627,149.972,75,149.67c37.049-0.41,74.671-31.396,74.671-74.671C149.671,33.758,116.24,0.327,75,0.327z"/>
<g>
	<path style="fill:none;stroke:#F59C1A;stroke-width:1.75;stroke-miterlimit:10;" d="M75.854,79.978
		c-14.526,0-26.705-4.261-30.024-10.024c-0.592,1.021-0.929,2.066-0.929,3.164v9.415c0,7.27,13.868,13.184,30.953,13.184
		c17.111,0,30.98-5.914,30.98-13.184v-9.415c0-1.098-0.347-2.142-0.942-3.164C102.572,75.717,90.41,79.978,75.854,79.978z"/>
	<path style="fill:none;stroke:#F59C1A;stroke-width:1.75;stroke-miterlimit:10;" d="M75.854,99.437
		c-14.526,0-26.705-4.275-30.024-10.02c-0.592,1.008-0.929,2.066-0.929,3.151v9.428c0,7.283,13.868,13.171,30.953,13.171
		c17.111,0,30.98-5.888,30.98-13.171v-9.428c0-1.084-0.347-2.142-0.942-3.151C102.572,95.162,90.41,99.437,75.854,99.437
		L75.854,99.437z"/>
	<path style="fill:none;stroke:#F59C1A;stroke-width:1.75;stroke-miterlimit:10;" d="M105.984,51.127
		c-0.608,5.323-13.832,9.594-30.13,9.594c-16.282,0-29.505-4.271-30.113-9.594c-0.529,0.969-0.84,1.977-0.84,3.008v9.429
		c0,7.27,13.868,13.171,30.953,13.171c17.111,0,30.98-5.888,30.98-13.171v-9.429C106.833,53.104,106.513,52.096,105.984,51.127
		L105.984,51.127z"/>
	<path style="fill:none;stroke:#F59C1A;stroke-width:1.75;stroke-miterlimit:10;" d="M75.854,57.726
		c16.672,0,30.18-4.453,30.18-9.967c0-5.501-13.508-9.971-30.18-9.971c-16.658,0-30.166,4.47-30.166,9.971
		C45.687,53.273,59.195,57.726,75.854,57.726L75.854,57.726z"/>
</g>
</svg>
