<?xml version="1.0" encoding="iso-8859-1"?>
<!-- Generator: Adobe Illustrator 21.1.0, SVG Export Plug-In . SVG Version: 6.00 Build 0)  -->
<svg version="1.1" id="Layer_1" xmlns="http://www.w3.org/2000/svg" xmlns:xlink="http://www.w3.org/1999/xlink" x="0px" y="0px"
	 viewBox="0 0 150 150" style="enable-background:new 0 0 150 150;" xml:space="preserve">
<path style="fill:#F6F6F6;" d="M75,0.327c-41.24,0-74.671,33.432-74.671,74.671c0,18.148,6.857,31.82,9.38,36.262
	C22.382,133.564,47.627,149.972,75,149.67c37.049-0.41,74.671-31.396,74.671-74.671C149.671,33.758,116.24,0.327,75,0.327z"/>
<path style="fill:none;stroke:#E59B44;stroke-width:1.75;stroke-miterlimit:10;" d="M49.849,44.612c0,1.141-0.935,2.076-2.076,2.076
	c-1.148,0-2.083-0.935-2.083-2.076c0-1.148,0.935-2.083,2.083-2.083C48.914,42.529,49.849,43.464,49.849,44.612L49.849,44.612z"/>
<path style="fill:none;stroke:#E59B44;stroke-width:1.75;stroke-miterlimit:10;" d="M47.087,44.083"/>
<path style="fill:none;stroke:#E59B44;stroke-width:1.75;stroke-miterlimit:10;" d="M55.049,44.612c0-1.148,0.935-2.083,2.083-2.083
	c1.148,0,2.076,0.935,2.076,2.083c0,1.141-0.929,2.076-2.076,2.076C55.983,46.689,55.049,45.754,55.049,44.612L55.049,44.612z"/>
<path style="fill:none;stroke:#E59B44;stroke-width:1.75;stroke-miterlimit:10;" d="M53.918,44.083"/>
<path style="fill:none;stroke:#E59B44;stroke-width:1.75;stroke-miterlimit:10;" d="M64.408,44.612c0-1.148,0.935-2.083,2.083-2.083
	s2.083,0.935,2.083,2.083c0,1.141-0.935,2.076-2.083,2.076C65.342,46.689,64.408,45.754,64.408,44.612L64.408,44.612z"/>
<path style="fill:none;stroke:#E59B44;stroke-width:1.75;stroke-miterlimit:10;" d="M66.211,44.083"/>
<path style="fill:none;stroke:#E59B44;stroke-width:2;stroke-miterlimit:10;" d="M65.367,61.839h9.895
	c1.795,0,3.251,1.455,3.251,3.251v9.895c0,1.795-1.455,3.251-3.251,3.251h-9.895c-1.795,0-3.251-1.455-3.251-3.251V65.09
	C62.116,63.294,63.571,61.839,65.367,61.839z"/>
<path style="fill:none;stroke:#E59B44;stroke-width:2;stroke-miterlimit:10;" d="M92.689,89.161h9.895
	c1.795,0,3.251,1.455,3.251,3.251v9.895c0,1.795-1.455,3.251-3.251,3.251h-9.895c-1.795,0-3.251-1.455-3.251-3.251v-9.895
	C89.438,90.617,90.893,89.161,92.689,89.161z"/>
<path style="fill:none;stroke:#E59B44;stroke-width:2;stroke-miterlimit:10;" d="M65.367,89.161h9.895
	c1.795,0,3.251,1.455,3.251,3.251v9.895c0,1.795-1.455,3.251-3.251,3.251h-9.895c-1.795,0-3.251-1.455-3.251-3.251v-9.895
	C62.116,90.617,63.571,89.161,65.367,89.161z"/>
<path style="fill:none;stroke:#E59B44;stroke-width:2;stroke-miterlimit:10;" d="M92.689,61.839h9.895
	c1.795,0,3.251,1.455,3.251,3.251v9.895c0,1.795-1.455,3.251-3.251,3.251h-9.895c-1.795,0-3.251-1.455-3.251-3.251V65.09
	C89.438,63.294,90.893,61.839,92.689,61.839z"/>
<path style="fill:none;stroke:#E59B44;stroke-width:1.75;stroke-miterlimit:10;" d="M34.794,34.517v79.415
	c0,1.409,1.142,2.552,2.552,2.552h11.293c1.409,0,2.552-1.142,2.552-2.552V53.465c0-1.409-1.142-2.552-2.552-2.552l-6.898-0.153
	c-1.409,0-2.552-1.142-2.552-2.552V39.65c0-1.409,1.142-1.179,2.552-1.179l67.634,0.153c1.409,0,2.552-0.23,2.552,1.179v8.558
	c0,1.409-1.142,2.552-2.552,2.552H58.403c-1.409,0-2.552,1.142-2.552,2.552v60.466c0,1.409,1.142,2.552,2.552,2.552h55.805
	c1.409,0,2.552-1.142,2.552-2.552V34.517c0-1.409-1.142-2.552-2.552-2.552H37.346C35.936,31.965,34.794,33.107,34.794,34.517z"/>
<path style="fill:none;stroke:#E59B44;stroke-width:1.75;stroke-miterlimit:10;" d="M40.507,59.103h5.263
	c0.727,0,1.318,0.642,1.318,1.428c0,0.788-0.591,1.428-1.318,1.428h-5.263c-0.725,0-1.318-0.64-1.318-1.428
	C39.189,59.745,39.782,59.103,40.507,59.103L40.507,59.103z"/>
<path style="fill:none;stroke:#E59B44;stroke-width:1.75;stroke-miterlimit:10;" d="M40.507,71.686h5.263
	c0.727,0,1.318,0.642,1.318,1.428c0,0.788-0.591,1.428-1.318,1.428h-5.263c-0.725,0-1.318-0.64-1.318-1.428
	C39.189,72.328,39.782,71.686,40.507,71.686L40.507,71.686z"/>
<path style="fill:none;stroke:#E59B44;stroke-width:1.75;stroke-miterlimit:10;" d="M40.507,84.269h5.263
	c0.727,0,1.318,0.642,1.318,1.428c0,0.788-0.591,1.428-1.318,1.428h-5.263c-0.725,0-1.318-0.64-1.318-1.428
	C39.189,84.911,39.782,84.269,40.507,84.269L40.507,84.269z"/>
</svg>
