<?xml version="1.0" encoding="iso-8859-1"?>
<!-- Generator: Adobe Illustrator 21.1.0, SVG Export Plug-In . SVG Version: 6.00 Build 0)  -->
<svg version="1.1" id="Layer_1" xmlns="http://www.w3.org/2000/svg" xmlns:xlink="http://www.w3.org/1999/xlink" x="0px" y="0px"
	 viewBox="0 0 150 150" style="enable-background:new 0 0 150 150;" xml:space="preserve">
<path style="fill:#F6F6F6;" d="M75,0.327c-41.24,0-74.671,33.432-74.671,74.671c0,18.148,6.857,31.82,9.38,36.262
	C22.382,133.564,47.627,149.972,75,149.67c37.049-0.41,74.671-31.396,74.671-74.671C149.671,33.758,116.24,0.327,75,0.327z"/>
<path style="fill:none;stroke:#F59C1A;stroke-width:2;stroke-miterlimit:10;" d="M70.869,45.609"/>
<path style="fill:none;stroke:#F59C1A;stroke-width:2;stroke-miterlimit:10;" d="M42.902,77.403"/>
<path style="fill:none;stroke:#F59C1A;stroke-width:2;stroke-miterlimit:10;" d="M75.777,105.291"/>
<g>
	<path style="fill:none;stroke:#F59C1A;stroke-width:2;stroke-miterlimit:10;" d="M64.241,41.319c0-2.212-2.169-3.759-4.354-3.437
		l-27.665,3.984c-2.18,0.322-4.27,2.393-4.27,4.6v21.548c0,2.21,2.032,4.115,4.241,4.115h27.269c2.209,0,4.779-1.905,4.779-4.115
		V41.319z"/>
	<path style="fill:none;stroke:#F59C1A;stroke-width:2;stroke-miterlimit:10;" d="M32.192,77.754c-2.209,0-4.241,2.111-4.241,4.323
		v21.916c0,2.21,1.902,4.283,4.082,4.605l27.795,4.044c2.186,0.318,4.413-1.226,4.413-3.438V82.077c0-2.212-2.57-4.323-4.779-4.323
		H32.192z"/>
	<path style="fill:none;stroke:#F59C1A;stroke-width:2;stroke-miterlimit:10;" d="M69.864,109.712c0,2.205,1.607,4.276,3.792,4.598
		l40.648,6c2.18,0.322,3.946-1.223,3.946-3.426V82.077c0-2.212-1.937-4.323-4.147-4.323H73.515c-2.203,0-3.651,2.111-3.651,4.323
		V109.712z"/>
	<path style="fill:none;stroke:#F59C1A;stroke-width:2;stroke-miterlimit:10;" d="M69.864,67.923c0,2.212,1.448,4.323,3.651,4.323
		h40.589c2.209,0,4.147-2.111,4.147-4.323V33.117c0-2.203-1.766-3.748-3.946-3.426l-40.648,6c-2.185,0.322-3.792,2.393-3.792,4.598
		V67.923z"/>
</g>
<path style="fill:none;stroke:#F59C1A;stroke-width:2;stroke-miterlimit:10;" d="M75.777,44.709"/>
<path style="fill:none;" d="M75,0.326c-41.24,0-74.671,33.432-74.671,74.671c0,18.148,6.857,31.82,9.38,36.262
	c12.673,22.304,37.918,38.712,65.291,38.41c37.049-0.41,74.671-31.396,74.671-74.671C149.671,33.757,116.24,0.326,75,0.326z"/>
</svg>
